STARTFONT 2.1
COMMENT
COMMENT Shinonome 12dot font for JISX 0208, 1983/1990
COMMENT
COMMENT The original is designed by
COMMENT   Yasuyuki Furukawa <Furukawa.Yasuyuki@fujixerox.co.jp>, 2000.
COMMENT   (Public Domain)
COMMENT
COMMENT Modified and Maintained by /efont/.
COMMENT
COMMENT (c) /efont/ -- Efont Open Laboratory 2001
COMMENT http://openlab.ring.gr.jp/efont/
COMMENT
FONT -Shinonome-Gothic-Bold-I-Normal--12-110-75-75-C-120-JISX0208.1990-0
SIZE 12 75 75
FONTBOUNDINGBOX 15 12 -1 -2
STARTPROPERTIES 20
FONTNAME_REGISTRY ""
FOUNDRY "Shinonome"
FAMILY_NAME "Gothic"
WEIGHT_NAME "Bold"
SLANT "I"
SETWIDTH_NAME "Normal"
ADD_STYLE_NAME ""
PIXEL_SIZE 12
POINT_SIZE 110
RESOLUTION_X 75
RESOLUTION_Y 75
SPACING "C"
AVERAGE_WIDTH 120
CHARSET_REGISTRY "JISX0208.1990"
CHARSET_ENCODING "0"
COPYRIGHT "Public Domain"
DEFAULT_CHAR 8481
FONT_ASCENT 10
FONT_DESCENT 2
_XMBDFED_INFO "Edited with xmbdfed 4.4."
ENDPROPERTIES
CHARS 6879
STARTCHAR 2121
ENCODING 8481
SWIDTH 960 0
DWIDTH 12 0
BBX 15 12 -1 -2
BITMAP
0000
0000
0000
0000
0000
0000
0000
0000
0000
0000
0000
0000
ENDCHAR
STARTCHAR 2122
ENCODING 8482
SWIDTH 960 0
DWIDTH 12 0
BBX 15 12 -1 -2
BITMAP
0000
0000
0000
0000
0000
0000
0000
0000
0000
6000
3000
3000
ENDCHAR
STARTCHAR 2123
ENCODING 8483
SWIDTH 960 0
DWIDTH 12 0
BBX 15 12 -1 -2
BITMAP
0000
0000
0000
0000
0000
0000
0000
0000
0000
3800
6c00
3800
ENDCHAR
STARTCHAR 2124
ENCODING 8484
SWIDTH 960 0
DWIDTH 12 0
BBX 15 12 -1 -2
BITMAP
0000
0000
0000
0000
0000
0000
0000
0000
0000
3000
3000
6000
ENDCHAR
STARTCHAR 2125
ENCODING 8485
SWIDTH 960 0
DWIDTH 12 0
BBX 15 12 -1 -2
BITMAP
0000
0000
0000
0000
0000
0000
0000
0000
0000
7000
7000
0000
ENDCHAR
STARTCHAR 2126
ENCODING 8486
SWIDTH 960 0
DWIDTH 12 0
BBX 15 12 -1 -2
BITMAP
0000
0000
0000
0000
0000
01c0
0380
0000
0000
0000
0000
0000
ENDCHAR
STARTCHAR 2127
ENCODING 8487
SWIDTH 960 0
DWIDTH 12 0
BBX 15 12 -1 -2
BITMAP
0000
0000
0000
0180
0180
0000
0000
0000
0300
0600
0000
0000
ENDCHAR
STARTCHAR 2128
ENCODING 8488
SWIDTH 960 0
DWIDTH 12 0
BBX 15 12 -1 -2
BITMAP
0000
0000
0000
0180
0180
0000
0000
0000
0300
0600
0c00
0000
ENDCHAR
STARTCHAR 2129
ENCODING 8489
SWIDTH 960 0
DWIDTH 12 0
BBX 15 12 -1 -2
BITMAP
0000
01e0
0330
0630
0660
00c0
0180
0180
0000
0300
0300
0000
ENDCHAR
STARTCHAR 212a
ENCODING 8490
SWIDTH 960 0
DWIDTH 12 0
BBX 15 12 -1 -2
BITMAP
0000
00e0
00e0
01c0
0180
0180
0300
0300
0000
0600
0600
0000
ENDCHAR
STARTCHAR 212b
ENCODING 8491
SWIDTH 960 0
DWIDTH 12 0
BBX 15 12 -1 -2
BITMAP
0600
1b00
1b00
1800
0000
0000
0000
0000
0000
0000
0000
0000
ENDCHAR
STARTCHAR 212c
ENCODING 8492
SWIDTH 960 0
DWIDTH 12 0
BBX 15 12 -1 -2
BITMAP
0000
0c00
1c00
3400
1800
0000
0000
0000
0000
0000
0000
0000
ENDCHAR
STARTCHAR 212d
ENCODING 8493
SWIDTH 960 0
DWIDTH 12 0
BBX 15 12 -1 -2
BITMAP
0060
00c0
0180
0000
0000
0000
0000
0000
0000
0000
0000
0000
ENDCHAR
STARTCHAR 212e
ENCODING 8494
SWIDTH 960 0
DWIDTH 12 0
BBX 15 12 -1 -2
BITMAP
0180
00c0
0060
0000
0000
0000
0000
0000
0000
0000
0000
0000
ENDCHAR
STARTCHAR 212f
ENCODING 8495
SWIDTH 960 0
DWIDTH 12 0
BBX 15 12 -1 -2
BITMAP
03b8
03b8
0000
0000
0000
0000
0000
0000
0000
0000
0000
0000
ENDCHAR
STARTCHAR 2130
ENCODING 8496
SWIDTH 960 0
DWIDTH 12 0
BBX 15 12 -1 -2
BITMAP
0060
00d0
0198
0000
0000
0000
0000
0000
0000
0000
0000
0000
ENDCHAR
STARTCHAR 2131
ENCODING 8497
SWIDTH 960 0
DWIDTH 12 0
BBX 15 12 -1 -2
BITMAP
1fff
0000
0000
0000
0000
0000
0000
0000
0000
0000
0000
0000
ENDCHAR
STARTCHAR 2132
ENCODING 8498
SWIDTH 960 0
DWIDTH 12 0
BBX 15 12 -1 -2
BITMAP
0000
0000
0000
0000
0000
0000
0000
0000
0000
0000
0000
fff8
ENDCHAR
STARTCHAR 2133
ENCODING 8499
SWIDTH 960 0
DWIDTH 12 0
BBX 15 12 -1 -2
BITMAP
0000
0000
0000
0000
0000
0e00
0300
0180
00c0
0000
0000
0000
ENDCHAR
STARTCHAR 2134
ENCODING 8500
SWIDTH 960 0
DWIDTH 12 0
BBX 15 12 -1 -2
BITMAP
0000
0000
0030
01b0
00c0
0e00
0300
0180
00c0
0000
0000
0000
ENDCHAR
STARTCHAR 2135
ENCODING 8501
SWIDTH 960 0
DWIDTH 12 0
BBX 15 12 -1 -2
BITMAP
0000
0000
0000
0000
0700
0180
00c0
01e0
0300
0000
0000
0000
ENDCHAR
STARTCHAR 2136
ENCODING 8502
SWIDTH 960 0
DWIDTH 12 0
BBX 15 12 -1 -2
BITMAP
0000
0030
00d8
00c0
0e00
0300
0180
03c0
0600
0000
0000
0000
ENDCHAR
STARTCHAR 2137
ENCODING 8503
SWIDTH 960 0
DWIDTH 12 0
BBX 15 12 -1 -2
BITMAP
0000
0000
0000
0360
0360
0660
06c0
0d80
1b00
0000
0000
0000
ENDCHAR
STARTCHAR 2138
ENCODING 8504
SWIDTH 960 0
DWIDTH 12 0
BBX 15 12 -1 -2
BITMAP
00c0
00c0
01a0
0760
0c30
383c
0fe0
0300
0300
0600
0600
fff0
ENDCHAR
STARTCHAR 2139
ENCODING 8505
SWIDTH 960 0
DWIDTH 12 0
BBX 15 12 -1 -2
BITMAP
0000
0000
0180
03f0
0330
0660
1cc0
3680
0380
0180
00c0
0000
ENDCHAR
STARTCHAR 213a
ENCODING 8506
SWIDTH 960 0
DWIDTH 12 0
BBX 15 12 -1 -2
BITMAP
0000
000c
0018
0030
0060
0ec0
1b80
36c0
3c00
7000
0000
0000
ENDCHAR
STARTCHAR 213b
ENCODING 8507
SWIDTH 960 0
DWIDTH 12 0
BBX 15 12 -1 -2
BITMAP
0000
01e0
0730
0c18
1818
3018
6018
6018
6030
6060
39c0
0f00
ENDCHAR
STARTCHAR 213c
ENCODING 8508
SWIDTH 960 0
DWIDTH 12 0
BBX 15 12 -1 -2
BITMAP
0000
0000
0000
0000
0000
0ff8
0000
0000
0000
0000
0000
0000
ENDCHAR
STARTCHAR 213d
ENCODING 8509
SWIDTH 960 0
DWIDTH 12 0
BBX 15 12 -1 -2
BITMAP
0000
0000
0000
0000
0000
0000
7ffc
0000
0000
0000
0000
0000
ENDCHAR
STARTCHAR 213e
ENCODING 8510
SWIDTH 960 0
DWIDTH 12 0
BBX 15 12 -1 -2
BITMAP
0000
0000
0000
0000
0000
0000
07c0
0000
0000
0000
0000
0000
ENDCHAR
STARTCHAR 213f
ENCODING 8511
SWIDTH 960 0
DWIDTH 12 0
BBX 15 12 -1 -2
BITMAP
0003
0006
001c
0030
0060
01c0
0300
0600
1c00
3000
6000
c000
ENDCHAR
STARTCHAR 2140
ENCODING 8512
SWIDTH 960 0
DWIDTH 12 0
BBX 15 12 -1 -2
BITMAP
1800
0c00
0600
0600
0300
0180
0180
00c0
0060
0060
0030
0018
ENDCHAR
STARTCHAR 2141
ENCODING 8513
SWIDTH 960 0
DWIDTH 12 0
BBX 15 12 -1 -2
BITMAP
0000
0000
0000
0000
0f00
1980
0198
00f0
0000
0000
0000
0000
ENDCHAR
STARTCHAR 2142
ENCODING 8514
SWIDTH 960 0
DWIDTH 12 0
BBX 15 12 -1 -2
BITMAP
01b0
01b0
01b0
0360
0360
0360
06c0
06c0
06c0
0d80
0d80
0d80
ENDCHAR
STARTCHAR 2143
ENCODING 8515
SWIDTH 960 0
DWIDTH 12 0
BBX 15 12 -1 -2
BITMAP
0060
0060
0060
00c0
00c0
00c0
0180
0180
0180
0300
0300
0300
ENDCHAR
STARTCHAR 2144
ENCODING 8516
SWIDTH 960 0
DWIDTH 12 0
BBX 15 12 -1 -2
BITMAP
0000
0000
0000
0000
0000
1998
3330
0000
0000
0000
0000
0000
ENDCHAR
STARTCHAR 2145
ENCODING 8517
SWIDTH 960 0
DWIDTH 12 0
BBX 15 12 -1 -2
BITMAP
0000
0000
0000
0000
0000
0c30
1860
0000
0000
0000
0000
0000
ENDCHAR
STARTCHAR 2146
ENCODING 8518
SWIDTH 960 0
DWIDTH 12 0
BBX 15 12 -1 -2
BITMAP
0006
000c
000c
001c
0000
0000
0000
0000
0000
0000
0000
0000
ENDCHAR
STARTCHAR 2147
ENCODING 8519
SWIDTH 960 0
DWIDTH 12 0
BBX 15 12 -1 -2
BITMAP
0700
0300
0600
0c00
0000
0000
0000
0000
0000
0000
0000
0000
ENDCHAR
STARTCHAR 2148
ENCODING 8520
SWIDTH 960 0
DWIDTH 12 0
BBX 15 12 -1 -2
BITMAP
0036
006c
006c
00ec
0000
0000
0000
0000
0000
0000
0000
0000
ENDCHAR
STARTCHAR 2149
ENCODING 8521
SWIDTH 960 0
DWIDTH 12 0
BBX 15 12 -1 -2
BITMAP
0ec0
06c0
0dc0
1b00
0000
0000
0000
0000
0000
0000
0000
0000
ENDCHAR
STARTCHAR 214a
ENCODING 8522
SWIDTH 960 0
DWIDTH 12 0
BBX 15 12 -1 -2
BITMAP
000c
0018
0030
0060
00c0
00c0
0180
0180
0180
0180
00c0
0060
ENDCHAR
STARTCHAR 214b
ENCODING 8523
SWIDTH 960 0
DWIDTH 12 0
BBX 15 12 -1 -2
BITMAP
0600
0300
0300
0300
0180
0180
0300
0300
0600
0c00
1800
3000
ENDCHAR
STARTCHAR 214c
ENCODING 8524
SWIDTH 960 0
DWIDTH 12 0
BBX 15 12 -1 -2
BITMAP
001c
0070
0060
00c0
00c0
00c0
0180
0180
0180
0300
0380
00e0
ENDCHAR
STARTCHAR 214d
ENCODING 8525
SWIDTH 960 0
DWIDTH 12 0
BBX 15 12 -1 -2
BITMAP
0700
01c0
00c0
0180
0180
0180
0300
0300
0300
0600
0e00
3800
ENDCHAR
STARTCHAR 214e
ENCODING 8526
SWIDTH 960 0
DWIDTH 12 0
BBX 15 12 -1 -2
BITMAP
007c
0060
0060
00c0
00c0
00c0
0180
0180
0180
0300
0300
03e0
ENDCHAR
STARTCHAR 214f
ENCODING 8527
SWIDTH 960 0
DWIDTH 12 0
BBX 15 12 -1 -2
BITMAP
07c0
00c0
00c0
0180
0180
0180
0300
0300
0300
0600
0600
3e00
ENDCHAR
STARTCHAR 2150
ENCODING 8528
SWIDTH 960 0
DWIDTH 12 0
BBX 15 12 -1 -2
BITMAP
000c
0018
0018
0030
0030
0060
0060
0060
0060
00c0
00c0
0060
ENDCHAR
STARTCHAR 2151
ENCODING 8529
SWIDTH 960 0
DWIDTH 12 0
BBX 15 12 -1 -2
BITMAP
0600
0300
0300
0600
0600
0300
0600
0c00
0c00
1800
1800
3000
ENDCHAR
STARTCHAR 2152
ENCODING 8530
SWIDTH 960 0
DWIDTH 12 0
BBX 15 12 -1 -2
BITMAP
000c
0018
0030
0030
0060
00c0
00c0
00c0
00c0
00c0
00c0
0060
ENDCHAR
STARTCHAR 2153
ENCODING 8531
SWIDTH 960 0
DWIDTH 12 0
BBX 15 12 -1 -2
BITMAP
0600
0300
0300
0300
0300
0300
0300
0600
0c00
0c00
1800
3000
ENDCHAR
STARTCHAR 2154
ENCODING 8532
SWIDTH 960 0
DWIDTH 12 0
BBX 15 12 -1 -2
BITMAP
006c
00d8
0198
01b0
0360
06c0
06c0
06c0
06c0
06c0
06c0
0360
ENDCHAR
STARTCHAR 2155
ENCODING 8533
SWIDTH 960 0
DWIDTH 12 0
BBX 15 12 -1 -2
BITMAP
06c0
0360
0360
0360
0360
0360
0360
06c0
0cc0
0d80
1b00
3600
ENDCHAR
STARTCHAR 2156
ENCODING 8534
SWIDTH 960 0
DWIDTH 12 0
BBX 15 12 -1 -2
BITMAP
007c
0060
0060
00c0
00c0
00c0
0180
0180
0000
0000
0000
0000
ENDCHAR
STARTCHAR 2157
ENCODING 8535
SWIDTH 960 0
DWIDTH 12 0
BBX 15 12 -1 -2
BITMAP
0000
0000
0000
0000
0180
0180
0300
0300
0300
0600
0600
3e00
ENDCHAR
STARTCHAR 2158
ENCODING 8536
SWIDTH 960 0
DWIDTH 12 0
BBX 15 12 -1 -2
BITMAP
00fc
00cc
00dc
01a0
01a0
01a0
0340
03c0
0000
0000
0000
0000
ENDCHAR
STARTCHAR 2159
ENCODING 8537
SWIDTH 960 0
DWIDTH 12 0
BBX 15 12 -1 -2
BITMAP
0000
0000
0000
0000
03c0
0340
0680
0680
0680
3d00
3300
3f00
ENDCHAR
STARTCHAR 215a
ENCODING 8538
SWIDTH 960 0
DWIDTH 12 0
BBX 15 12 -1 -2
BITMAP
007c
0078
0078
00e0
00e0
00e0
01c0
01c0
01c0
03c0
03c0
03e0
ENDCHAR
STARTCHAR 215b
ENCODING 8539
SWIDTH 960 0
DWIDTH 12 0
BBX 15 12 -1 -2
BITMAP
07c0
03c0
03c0
0380
0380
0380
0700
0700
0700
1e00
1e00
3e00
ENDCHAR
STARTCHAR 215c
ENCODING 8540
SWIDTH 960 0
DWIDTH 12 0
BBX 15 12 -1 -2
BITMAP
0000
00c0
00c0
0180
0180
1ff8
0300
0300
0300
0600
0000
0000
ENDCHAR
STARTCHAR 215d
ENCODING 8541
SWIDTH 960 0
DWIDTH 12 0
BBX 15 12 -1 -2
BITMAP
0000
0000
0000
0000
0000
0ff8
0000
0000
0000
0000
0000
0000
ENDCHAR
STARTCHAR 215e
ENCODING 8542
SWIDTH 960 0
DWIDTH 12 0
BBX 15 12 -1 -2
BITMAP
0000
00c0
00c0
0180
0180
1ff8
0300
0300
0300
0000
7fe0
0000
ENDCHAR
STARTCHAR 215f
ENCODING 8543
SWIDTH 960 0
DWIDTH 12 0
BBX 15 12 -1 -2
BITMAP
0000
0000
061c
0630
0360
0340
0380
06c0
1c60
3060
0000
0000
ENDCHAR
STARTCHAR 2160
ENCODING 8544
SWIDTH 960 0
DWIDTH 12 0
BBX 15 12 -1 -2
BITMAP
0000
0000
01c0
0380
0000
0000
3ff0
0000
0000
0e00
0e00
0000
ENDCHAR
STARTCHAR 2161
ENCODING 8545
SWIDTH 960 0
DWIDTH 12 0
BBX 15 12 -1 -2
BITMAP
0000
0000
0000
0000
1ff8
0000
0000
3ff0
0000
0000
0000
0000
ENDCHAR
STARTCHAR 2162
ENCODING 8546
SWIDTH 960 0
DWIDTH 12 0
BBX 15 12 -1 -2
BITMAP
0000
0030
0060
00c0
1ff8
0180
0300
3ff0
0600
0c00
1800
0000
ENDCHAR
STARTCHAR 2163
ENCODING 8547
SWIDTH 960 0
DWIDTH 12 0
BBX 15 12 -1 -2
BITMAP
0000
001c
00f0
0380
0e00
1800
0c00
0700
01c0
0060
0000
0000
ENDCHAR
STARTCHAR 2164
ENCODING 8548
SWIDTH 960 0
DWIDTH 12 0
BBX 15 12 -1 -2
BITMAP
0000
0e00
0380
00c0
0070
0038
00e0
0380
1e00
7000
0000
0000
ENDCHAR
STARTCHAR 2165
ENCODING 8549
SWIDTH 960 0
DWIDTH 12 0
BBX 15 12 -1 -2
BITMAP
0000
000e
00f8
0780
1c00
0780
00e0
0038
3ff8
0000
7ff0
0000
ENDCHAR
STARTCHAR 2166
ENCODING 8550
SWIDTH 960 0
DWIDTH 12 0
BBX 15 12 -1 -2
BITMAP
0000
0e00
03c0
0070
001c
01f0
0f00
3800
3ff8
0000
7ff0
0000
ENDCHAR
STARTCHAR 2167
ENCODING 8551
SWIDTH 960 0
DWIDTH 12 0
BBX 15 12 -1 -2
BITMAP
0000
0000
0000
0e70
1b58
3398
3318
36b0
1ce0
0000
0000
0000
ENDCHAR
STARTCHAR 2168
ENCODING 8552
SWIDTH 960 0
DWIDTH 12 0
BBX 15 12 -1 -2
BITMAP
0000
0000
00e0
01c0
0000
0000
0000
0000
1c70
38e0
0000
0000
ENDCHAR
STARTCHAR 2169
ENCODING 8553
SWIDTH 960 0
DWIDTH 12 0
BBX 15 12 -1 -2
BITMAP
0000
007e
001e
0034
006c
01cc
1f00
3300
3300
3600
1c00
0000
ENDCHAR
STARTCHAR 216a
ENCODING 8554
SWIDTH 960 0
DWIDTH 12 0
BBX 15 12 -1 -2
BITMAP
0000
01c0
0360
0660
0660
03c0
0300
0300
1fe0
0600
0600
0600
ENDCHAR
STARTCHAR 216b
ENCODING 8555
SWIDTH 960 0
DWIDTH 12 0
BBX 15 12 -1 -2
BITMAP
0000
0600
0d00
0d00
0600
0000
0000
0000
0000
0000
0000
0000
ENDCHAR
STARTCHAR 216c
ENCODING 8556
SWIDTH 960 0
DWIDTH 12 0
BBX 15 12 -1 -2
BITMAP
0380
0180
0300
0600
0000
0000
0000
0000
0000
0000
0000
0000
ENDCHAR
STARTCHAR 216d
ENCODING 8557
SWIDTH 960 0
DWIDTH 12 0
BBX 15 12 -1 -2
BITMAP
0760
0360
06e0
0d80
0000
0000
0000
0000
0000
0000
0000
0000
ENDCHAR
STARTCHAR 216e
ENCODING 8558
SWIDTH 960 0
DWIDTH 12 0
BBX 15 12 -1 -2
BITMAP
0000
0674
0f5c
0d18
0600
0600
0c00
0c00
0c70
0cc0
0780
0000
ENDCHAR
STARTCHAR 216f
ENCODING 8559
SWIDTH 960 0
DWIDTH 12 0
BBX 15 12 -1 -2
BITMAP
0000
0f3c
0638
0660
0ff0
0340
1fe0
0300
0300
0600
0f00
0000
ENDCHAR
STARTCHAR 2170
ENCODING 8560
SWIDTH 960 0
DWIDTH 12 0
BBX 15 12 -1 -2
BITMAP
01a0
03e8
06b8
0750
0340
03c0
0680
06c0
1ac0
3d40
3780
0d00
ENDCHAR
STARTCHAR 2171
ENCODING 8561
SWIDTH 960 0
DWIDTH 12 0
BBX 15 12 -1 -2
BITMAP
0000
0000
0000
0180
0780
0dc0
3b40
3a00
3dc0
3b00
1e00
1800
ENDCHAR
STARTCHAR 2172
ENCODING 8562
SWIDTH 960 0
DWIDTH 12 0
BBX 15 12 -1 -2
BITMAP
0000
0070
00d8
0180
0380
0380
3fc0
0700
3e18
6f60
3bc0
0000
ENDCHAR
STARTCHAR 2173
ENCODING 8563
SWIDTH 960 0
DWIDTH 12 0
BBX 15 12 -1 -2
BITMAP
0000
0606
0d1c
0d30
0660
01c0
0300
0660
1cd0
30d0
6060
0000
ENDCHAR
STARTCHAR 2174
ENCODING 8564
SWIDTH 960 0
DWIDTH 12 0
BBX 15 12 -1 -2
BITMAP
0198
0198
0198
1ffc
0660
0660
0cc0
0cc0
7ff0
3300
3300
3300
ENDCHAR
STARTCHAR 2175
ENCODING 8565
SWIDTH 960 0
DWIDTH 12 0
BBX 15 12 -1 -2
BITMAP
0000
0380
06c0
0cc0
0d80
0f18
1a30
3360
3340
3340
1e60
0000
ENDCHAR
STARTCHAR 2176
ENCODING 8566
SWIDTH 960 0
DWIDTH 12 0
BBX 15 12 -1 -2
BITMAP
0000
0000
0000
0180
0eb0
03c0
0300
0780
1d60
0600
0000
0000
ENDCHAR
STARTCHAR 2177
ENCODING 8567
SWIDTH 960 0
DWIDTH 12 0
BBX 15 12 -1 -2
BITMAP
0000
01f0
0718
0de8
1b74
1b74
3368
31b0
1800
0ce0
0780
0000
ENDCHAR
STARTCHAR 2178
ENCODING 8568
SWIDTH 960 0
DWIDTH 12 0
BBX 15 12 -1 -2
BITMAP
01e0
0330
0300
0380
03c0
06c0
0ec0
0780
0380
0380
1980
0f00
ENDCHAR
STARTCHAR 2179
ENCODING 8569
SWIDTH 960 0
DWIDTH 12 0
BBX 15 12 -1 -2
BITMAP
0000
00c0
01c0
0340
3f7c
1838
1860
0cc0
1b60
3dc0
70e0
0000
ENDCHAR
STARTCHAR 217a
ENCODING 8570
SWIDTH 960 0
DWIDTH 12 0
BBX 15 12 -1 -2
BITMAP
0000
00c0
00c0
03c0
3ffc
1ff8
1fe0
0fc0
1fe0
3dc0
70e0
0000
ENDCHAR
STARTCHAR 217b
ENCODING 8571
SWIDTH 960 0
DWIDTH 12 0
BBX 15 12 -1 -2
BITMAP
0000
01e0
0730
0c18
1818
3018
6018
6018
6030
6060
39c0
0f00
ENDCHAR
STARTCHAR 217c
ENCODING 8572
SWIDTH 960 0
DWIDTH 12 0
BBX 15 12 -1 -2
BITMAP
0000
01e0
07f8
1ff8
1ff8
3ffc
7ff8
7ff8
3ff0
7fe0
3fc0
0f00
ENDCHAR
STARTCHAR 217d
ENCODING 8573
SWIDTH 960 0
DWIDTH 12 0
BBX 15 12 -1 -2
BITMAP
0000
01e0
0770
0dd8
1a68
3c68
6868
68d8
75b0
3760
19c0
0f00
ENDCHAR
STARTCHAR 217e
ENCODING 8574
SWIDTH 960 0
DWIDTH 12 0
BBX 15 12 -1 -2
BITMAP
0000
00c0
03a0
0660
0c30
3818
6018
3030
18e0
1980
0d00
0600
ENDCHAR
STARTCHAR 2221
ENCODING 8737
SWIDTH 960 0
DWIDTH 12 0
BBX 15 12 -1 -2
BITMAP
0000
00c0
01e0
07e0
0ff0
1ff8
7ff8
3ff0
1fe0
1f80
0f00
0600
ENDCHAR
STARTCHAR 2222
ENCODING 8738
SWIDTH 960 0
DWIDTH 12 0
BBX 15 12 -1 -2
BITMAP
0000
1ffe
1806
300c
300c
300c
6018
6018
6018
c030
c030
fff0
ENDCHAR
STARTCHAR 2223
ENCODING 8739
SWIDTH 960 0
DWIDTH 12 0
BBX 15 12 -1 -2
BITMAP
0000
1ffe
1ffe
3ffc
3ffc
3ffc
7ff8
7ff8
7ff8
fff0
fff0
fff0
ENDCHAR
STARTCHAR 2224
ENCODING 8740
SWIDTH 960 0
DWIDTH 12 0
BBX 15 12 -1 -2
BITMAP
00c0
00c0
01c0
0340
0660
0c60
0c60
1860
3060
6060
fff0
0000
ENDCHAR
STARTCHAR 2225
ENCODING 8741
SWIDTH 960 0
DWIDTH 12 0
BBX 15 12 -1 -2
BITMAP
00c0
00c0
01e0
03c0
07e0
07e0
1fe0
1fe0
3ff0
7fe0
fff0
0000
ENDCHAR
STARTCHAR 2226
ENCODING 8742
SWIDTH 960 0
DWIDTH 12 0
BBX 15 12 -1 -2
BITMAP
0000
1ffe
0c18
0c18
0c30
0c60
0c60
0cc0
0d80
0d00
0600
0600
ENDCHAR
STARTCHAR 2227
ENCODING 8743
SWIDTH 960 0
DWIDTH 12 0
BBX 15 12 -1 -2
BITMAP
0000
1ffe
0ffc
1ff8
0ff0
0ff0
0fc0
0fc0
0780
0f00
0600
0600
ENDCHAR
STARTCHAR 2228
ENCODING 8744
SWIDTH 960 0
DWIDTH 12 0
BBX 15 12 -1 -2
BITMAP
0000
0ce6
06ec
0630
0360
1d5c
3bb8
06c0
1c60
3760
6730
0000
ENDCHAR
STARTCHAR 2229
ENCODING 8745
SWIDTH 960 0
DWIDTH 12 0
BBX 15 12 -1 -2
BITMAP
0000
0ffe
0ffe
0000
3ffe
3ffe
0380
0380
0380
0700
0700
0700
ENDCHAR
STARTCHAR 222a
ENCODING 8746
SWIDTH 960 0
DWIDTH 12 0
BBX 15 12 -1 -2
BITMAP
0000
0000
0000
00e0
0038
3ffe
0070
01c0
0000
0000
0000
0000
ENDCHAR
STARTCHAR 222b
ENCODING 8747
SWIDTH 960 0
DWIDTH 12 0
BBX 15 12 -1 -2
BITMAP
0000
0000
0000
0380
0e00
3ffe
1c00
0700
0000
0000
0000
0000
ENDCHAR
STARTCHAR 222c
ENCODING 8748
SWIDTH 960 0
DWIDTH 12 0
BBX 15 12 -1 -2
BITMAP
0060
0060
00f0
01e0
0350
0350
0180
0180
0180
0300
0300
0300
ENDCHAR
STARTCHAR 222d
ENCODING 8749
SWIDTH 960 0
DWIDTH 12 0
BBX 15 12 -1 -2
BITMAP
0060
0060
0060
00c0
00c0
00c0
06a0
06a0
07c0
0780
0300
0300
ENDCHAR
STARTCHAR 222e
ENCODING 8750
SWIDTH 960 0
DWIDTH 12 0
BBX 15 12 -1 -2
BITMAP
0000
0000
0000
3ffe
3ffe
0000
0000
7ffc
7ffc
0000
0000
0000
ENDCHAR
STARTCHAR 223a
ENCODING 8762
SWIDTH 960 0
DWIDTH 12 0
BBX 15 12 -1 -2
BITMAP
0000
0000
03fc
0600
0c00
0ff8
1800
0c00
07f0
0000
0000
0000
ENDCHAR
STARTCHAR 223b
ENCODING 8763
SWIDTH 960 0
DWIDTH 12 0
BBX 15 12 -1 -2
BITMAP
0000
0000
07e0
0030
0018
0ff8
0030
0060
1fc0
0000
0000
0000
ENDCHAR
STARTCHAR 223c
ENCODING 8764
SWIDTH 960 0
DWIDTH 12 0
BBX 15 12 -1 -2
BITMAP
0000
0000
07fe
0c00
1800
1800
1800
0ff8
0000
0000
3ff0
0000
ENDCHAR
STARTCHAR 223d
ENCODING 8765
SWIDTH 960 0
DWIDTH 12 0
BBX 15 12 -1 -2
BITMAP
0000
0000
0ff0
0018
000c
0018
0030
3fe0
0000
0000
7fe0
0000
ENDCHAR
STARTCHAR 223e
ENCODING 8766
SWIDTH 960 0
DWIDTH 12 0
BBX 15 12 -1 -2
BITMAP
0000
0000
07fe
0c00
1800
1800
3000
3000
1800
0ff0
0000
0000
ENDCHAR
STARTCHAR 223f
ENCODING 8767
SWIDTH 960 0
DWIDTH 12 0
BBX 15 12 -1 -2
BITMAP
0000
0000
0ff0
0018
000c
000c
0018
0018
0070
7fc0
0000
0000
ENDCHAR
STARTCHAR 2240
ENCODING 8768
SWIDTH 960 0
DWIDTH 12 0
BBX 15 12 -1 -2
BITMAP
0000
0c18
0c18
1830
1830
1830
3060
3060
30c0
3180
1f00
0000
ENDCHAR
STARTCHAR 2241
ENCODING 8769
SWIDTH 960 0
DWIDTH 12 0
BBX 15 12 -1 -2
BITMAP
0000
03e0
0630
0c30
1830
1830
3060
3060
3060
60c0
60c0
0000
ENDCHAR
STARTCHAR 224a
ENCODING 8778
SWIDTH 960 0
DWIDTH 12 0
BBX 15 12 -1 -2
BITMAP
0000
00c0
00c0
01c0
0340
06c0
0cc0
1860
3060
3060
6060
0000
ENDCHAR
STARTCHAR 224b
ENCODING 8779
SWIDTH 960 0
DWIDTH 12 0
BBX 15 12 -1 -2
BITMAP
0000
0c0c
0c18
0c18
0c30
0c60
0cc0
0680
0700
0300
0600
0000
ENDCHAR
STARTCHAR 224c
ENCODING 8780
SWIDTH 960 0
DWIDTH 12 0
BBX 15 12 -1 -2
BITMAP
0000
0000
0000
0000
0000
1ffc
0018
0018
0018
0000
0000
0000
ENDCHAR
STARTCHAR 224d
ENCODING 8781
SWIDTH 960 0
DWIDTH 12 0
BBX 15 12 -1 -2
BITMAP
0000
0000
0018
0018
3ffc
000e
7ff8
0030
0060
0000
0000
0000
ENDCHAR
STARTCHAR 224e
ENCODING 8782
SWIDTH 960 0
DWIDTH 12 0
BBX 15 12 -1 -2
BITMAP
0000
0000
0718
0c18
1ffc
300e
1ff8
1830
0c60
0000
0000
0000
ENDCHAR
STARTCHAR 224f
ENCODING 8783
SWIDTH 960 0
DWIDTH 12 0
BBX 15 12 -1 -2
BITMAP
0000
0c0c
0c18
0c18
0ff0
0cc0
0cc0
0680
0700
0300
0600
0000
ENDCHAR
STARTCHAR 2250
ENCODING 8784
SWIDTH 960 0
DWIDTH 12 0
BBX 15 12 -1 -2
BITMAP
0000
07fc
000c
0018
0018
0ff8
0030
0030
0030
3fe0
0000
0000
ENDCHAR
STARTCHAR 225c
ENCODING 8796
SWIDTH 960 0
DWIDTH 12 0
BBX 15 12 -1 -2
BITMAP
0000
000c
0038
0060
00c0
0380
0600
0c00
3800
6ff0
0000
0000
ENDCHAR
STARTCHAR 225d
ENCODING 8797
SWIDTH 960 0
DWIDTH 12 0
BBX 15 12 -1 -2
BITMAP
0000
00c0
00c0
0180
0180
0180
0300
0300
0300
7ff0
0000
0000
ENDCHAR
STARTCHAR 225e
ENCODING 8798
SWIDTH 960 0
DWIDTH 12 0
BBX 15 12 -1 -2
BITMAP
01f0
071c
0c06
0000
0000
0000
0000
0000
0000
0000
0000
0000
ENDCHAR
STARTCHAR 225f
ENCODING 8799
SWIDTH 960 0
DWIDTH 12 0
BBX 15 12 -1 -2
BITMAP
0000
00e0
01b0
0030
01d0
0370
06e0
1cc0
1dc0
0d00
0600
0000
ENDCHAR
STARTCHAR 2260
ENCODING 8800
SWIDTH 960 0
DWIDTH 12 0
BBX 15 12 -1 -2
BITMAP
0000
1ffe
0ffc
1c18
0c30
0c60
0c60
0ec0
0680
0f00
0600
0600
ENDCHAR
STARTCHAR 2261
ENCODING 8801
SWIDTH 960 0
DWIDTH 12 0
BBX 15 12 -1 -2
BITMAP
0000
0000
0000
1ffc
0000
0000
3ff8
0000
0000
7ff0
0000
0000
ENDCHAR
STARTCHAR 2262
ENCODING 8802
SWIDTH 960 0
DWIDTH 12 0
BBX 15 12 -1 -2
BITMAP
0000
0380
0380
0000
1ffc
0000
0000
3ff8
0000
01c0
01c0
0000
ENDCHAR
STARTCHAR 2263
ENCODING 8803
SWIDTH 960 0
DWIDTH 12 0
BBX 15 12 -1 -2
BITMAP
0000
0000
01cc
0330
0660
1cc0
3300
1980
0cc0
0cc0
0660
0000
ENDCHAR
STARTCHAR 2264
ENCODING 8804
SWIDTH 960 0
DWIDTH 12 0
BBX 15 12 -1 -2
BITMAP
0000
0000
0cc0
0cc0
0660
0330
0330
0660
1cc0
3300
6600
0000
ENDCHAR
STARTCHAR 2265
ENCODING 8805
SWIDTH 960 0
DWIDTH 12 0
BBX 15 12 -1 -2
BITMAP
007f
0060
00c0
00c0
0180
0300
0300
3600
7c00
3400
1800
0000
ENDCHAR
STARTCHAR 2266
ENCODING 8806
SWIDTH 960 0
DWIDTH 12 0
BBX 15 12 -1 -2
BITMAP
0000
0000
0000
0770
0cd8
1998
1998
1b30
0ee0
0000
0000
0000
ENDCHAR
STARTCHAR 2267
ENCODING 8807
SWIDTH 960 0
DWIDTH 12 0
BBX 15 12 -1 -2
BITMAP
0000
0000
0000
0738
0dac
19c0
1980
1b58
0e70
0000
0000
0000
ENDCHAR
STARTCHAR 2268
ENCODING 8808
SWIDTH 960 0
DWIDTH 12 0
BBX 15 12 -1 -2
BITMAP
0000
0000
0e38
1c70
0000
0000
0000
0000
0700
0e00
0000
0000
ENDCHAR
STARTCHAR 2269
ENCODING 8809
SWIDTH 960 0
DWIDTH 12 0
BBX 15 12 -1 -2
BITMAP
001c
0030
0060
00c0
00e0
00e0
00c0
00e0
00e0
00c0
0180
0700
ENDCHAR
STARTCHAR 226a
ENCODING 8810
SWIDTH 960 0
DWIDTH 12 0
BBX 15 12 -1 -2
BITMAP
00ee
0198
0330
0660
0770
0770
0660
0770
0770
0660
0cc0
3b80
ENDCHAR
STARTCHAR 2272
ENCODING 8818
SWIDTH 960 0
DWIDTH 12 0
BBX 15 12 -1 -2
BITMAP
00c0
01a0
01c0
0180
0340
06c0
0cc0
0fc0
18c0
30c0
79e0
0000
ENDCHAR
STARTCHAR 2273
ENCODING 8819
SWIDTH 960 0
DWIDTH 12 0
BBX 15 12 -1 -2
BITMAP
0730
0db0
0da0
0dc0
0680
0300
0600
0d30
1f68
3570
6660
0000
ENDCHAR
STARTCHAR 2274
ENCODING 8820
SWIDTH 960 0
DWIDTH 12 0
BBX 15 12 -1 -2
BITMAP
0030
0030
01bc
03f8
0fe0
0f60
06f0
07f0
1fc0
3d80
0c00
0c00
ENDCHAR
STARTCHAR 2275
ENCODING 8821
SWIDTH 960 0
DWIDTH 12 0
BBX 15 12 -1 -2
BITMAP
0180
0180
0180
0300
0300
03e0
0760
06e0
0680
0d00
0e00
0000
ENDCHAR
STARTCHAR 2276
ENCODING 8822
SWIDTH 960 0
DWIDTH 12 0
BBX 15 12 -1 -2
BITMAP
0060
0070
0070
00d8
00d8
00d0
01a0
0180
0f80
3f00
1e00
0000
ENDCHAR
STARTCHAR 2277
ENCODING 8823
SWIDTH 960 0
DWIDTH 12 0
BBX 15 12 -1 -2
BITMAP
00c0
01e0
06d8
1ff8
0db0
03c0
0780
0300
0300
0600
0600
0600
ENDCHAR
STARTCHAR 2278
ENCODING 8824
SWIDTH 960 0
DWIDTH 12 0
BBX 15 12 -1 -2
BITMAP
01e0
01e0
06d8
1ff8
0db0
0180
0300
1b60
3ff0
36c0
0f00
0f00
ENDCHAR
STARTCHAR 2279
ENCODING 8825
SWIDTH 960 0
DWIDTH 12 0
BBX 15 12 -1 -2
BITMAP
01f0
03d0
03d0
07a0
03a0
01a0
0340
0340
0340
0680
0680
0000
ENDCHAR
STARTCHAR 227e
ENCODING 8830
SWIDTH 960 0
DWIDTH 12 0
BBX 15 12 -1 -2
BITMAP
01f0
0718
0c0c
180c
3006
3006
600c
600c
6018
6030
38e0
0f80
ENDCHAR
STARTCHAR 2330
ENCODING 9008
SWIDTH 960 0
DWIDTH 12 0
BBX 15 12 -1 -2
BITMAP
0000
01e0
0330
0630
0c30
0c30
1860
1860
18c0
1980
0f00
0000
ENDCHAR
STARTCHAR 2331
ENCODING 9009
SWIDTH 960 0
DWIDTH 12 0
BBX 15 12 -1 -2
BITMAP
0000
00c0
00c0
0780
0180
0180
0300
0300
0300
0600
0f00
0000
ENDCHAR
STARTCHAR 2332
ENCODING 9010
SWIDTH 960 0
DWIDTH 12 0
BBX 15 12 -1 -2
BITMAP
0000
01e0
0330
0630
0030
0060
01c0
0300
0600
0c00
1fc0
0000
ENDCHAR
STARTCHAR 2333
ENCODING 9011
SWIDTH 960 0
DWIDTH 12 0
BBX 15 12 -1 -2
BITMAP
0000
01e0
0330
0030
0060
0180
00c0
0060
00c0
1980
0f00
0000
ENDCHAR
STARTCHAR 2334
ENCODING 9012
SWIDTH 960 0
DWIDTH 12 0
BBX 15 12 -1 -2
BITMAP
0000
0060
00e0
01c0
0340
06c0
0d80
1980
1fe0
0300
0780
0000
ENDCHAR
STARTCHAR 2335
ENCODING 9013
SWIDTH 960 0
DWIDTH 12 0
BBX 15 12 -1 -2
BITMAP
0000
03f8
0300
0600
06c0
0760
0c60
0060
00c0
1980
0f00
0000
ENDCHAR
STARTCHAR 2336
ENCODING 9014
SWIDTH 960 0
DWIDTH 12 0
BBX 15 12 -1 -2
BITMAP
0000
01e0
0330
0600
0c00
0f80
1cc0
1860
18c0
1980
0f00
0000
ENDCHAR
STARTCHAR 2337
ENCODING 9015
SWIDTH 960 0
DWIDTH 12 0
BBX 15 12 -1 -2
BITMAP
0000
03f8
0330
0630
0060
00c0
00c0
0180
0300
0600
0600
0000
ENDCHAR
STARTCHAR 2338
ENCODING 9016
SWIDTH 960 0
DWIDTH 12 0
BBX 15 12 -1 -2
BITMAP
0000
01e0
0730
0c30
0660
0780
0cc0
1860
18c0
1980
0f00
0000
ENDCHAR
STARTCHAR 2339
ENCODING 9017
SWIDTH 960 0
DWIDTH 12 0
BBX 15 12 -1 -2
BITMAP
0000
01e0
0330
0630
0c30
06f0
03a0
0060
18c0
1980
0f00
0000
ENDCHAR
STARTCHAR 2341
ENCODING 9025
SWIDTH 960 0
DWIDTH 12 0
BBX 15 12 -1 -2
BITMAP
0000
00c0
00c0
01c0
0340
06c0
0cc0
0fc0
18c0
30c0
79e0
0000
ENDCHAR
STARTCHAR 2342
ENCODING 9026
SWIDTH 960 0
DWIDTH 12 0
BBX 15 12 -1 -2
BITMAP
0000
07e0
0330
0630
0660
0780
0cc0
0c60
0cc0
1980
3f00
0000
ENDCHAR
STARTCHAR 2343
ENCODING 9027
SWIDTH 960 0
DWIDTH 12 0
BBX 15 12 -1 -2
BITMAP
0000
00f4
039c
0618
0c00
0c00
1800
1800
0c70
0cc0
0780
0000
ENDCHAR
STARTCHAR 2344
ENCODING 9028
SWIDTH 960 0
DWIDTH 12 0
BBX 15 12 -1 -2
BITMAP
0000
07e0
0330
0630
0630
0630
0c30
0c60
0cc0
1980
3f00
0000
ENDCHAR
STARTCHAR 2345
ENCODING 9029
SWIDTH 960 0
DWIDTH 12 0
BBX 15 12 -1 -2
BITMAP
0000
07f8
030c
0600
0660
07e0
0cc0
0c00
0c30
1860
3fc0
0000
ENDCHAR
STARTCHAR 2346
ENCODING 9030
SWIDTH 960 0
DWIDTH 12 0
BBX 15 12 -1 -2
BITMAP
0000
07f8
030c
0600
0660
07e0
0cc0
0c00
0c00
1800
3c00
0000
ENDCHAR
STARTCHAR 2347
ENCODING 9031
SWIDTH 960 0
DWIDTH 12 0
BBX 15 12 -1 -2
BITMAP
0000
01e8
0738
0c30
1800
1800
33f0
3060
1860
19c0
0f40
0000
ENDCHAR
STARTCHAR 2348
ENCODING 9032
SWIDTH 960 0
DWIDTH 12 0
BBX 15 12 -1 -2
BITMAP
0000
0f3c
0618
0c30
0c30
0ff0
1860
1860
1860
30c0
79e0
0000
ENDCHAR
STARTCHAR 2349
ENCODING 9033
SWIDTH 960 0
DWIDTH 12 0
BBX 15 12 -1 -2
BITMAP
0000
01e0
00c0
0180
0180
0180
0300
0300
0300
0600
0f00
0000
ENDCHAR
STARTCHAR 234a
ENCODING 9034
SWIDTH 960 0
DWIDTH 12 0
BBX 15 12 -1 -2
BITMAP
0000
00f0
0060
00c0
00c0
00c0
0180
0180
0180
0300
3600
1c00
ENDCHAR
STARTCHAR 234b
ENCODING 9035
SWIDTH 960 0
DWIDTH 12 0
BBX 15 12 -1 -2
BITMAP
0000
07b8
0370
06c0
0680
0700
0d00
0d80
0cc0
18c0
3de0
0000
ENDCHAR
STARTCHAR 234c
ENCODING 9036
SWIDTH 960 0
DWIDTH 12 0
BBX 15 12 -1 -2
BITMAP
0000
0780
0300
0600
0600
0600
0c00
0c00
0c30
1860
3fc0
0000
ENDCHAR
STARTCHAR 234d
ENCODING 9037
SWIDTH 960 0
DWIDTH 12 0
BBX 15 12 -1 -2
BITMAP
0000
1c0e
0c0c
1c38
1c38
1c68
34d0
36b0
3730
6360
f6f0
0000
ENDCHAR
STARTCHAR 234e
ENCODING 9038
SWIDTH 960 0
DWIDTH 12 0
BBX 15 12 -1 -2
BITMAP
0000
073c
0398
06b0
06b0
06b0
0da0
0ce0
0ce0
18c0
3cc0
0000
ENDCHAR
STARTCHAR 234f
ENCODING 9039
SWIDTH 960 0
DWIDTH 12 0
BBX 15 12 -1 -2
BITMAP
0000
01e0
0730
0c30
1818
1818
3030
3030
1860
19c0
0f00
0000
ENDCHAR
STARTCHAR 2350
ENCODING 9040
SWIDTH 960 0
DWIDTH 12 0
BBX 15 12 -1 -2
BITMAP
0000
07e0
0330
0630
0630
06e0
0f80
0c00
0c00
1800
3c00
0000
ENDCHAR
STARTCHAR 2351
ENCODING 9041
SWIDTH 960 0
DWIDTH 12 0
BBX 15 12 -1 -2
BITMAP
0000
01e0
0730
0c30
1818
1818
3030
3730
19a0
19c0
0f50
0070
ENDCHAR
STARTCHAR 2352
ENCODING 9042
SWIDTH 960 0
DWIDTH 12 0
BBX 15 12 -1 -2
BITMAP
0000
0fe0
0630
0c30
0c60
0fc0
1980
18c0
18c0
3180
79a0
00c0
ENDCHAR
STARTCHAR 2353
ENCODING 9043
SWIDTH 960 0
DWIDTH 12 0
BBX 15 12 -1 -2
BITMAP
0000
03e8
0638
0630
0600
0300
0180
00c0
18c0
38c0
3780
0000
ENDCHAR
STARTCHAR 2354
ENCODING 9044
SWIDTH 960 0
DWIDTH 12 0
BBX 15 12 -1 -2
BITMAP
0000
0ffc
0ccc
1998
0180
0180
0300
0300
0300
0600
0f00
0000
ENDCHAR
STARTCHAR 2355
ENCODING 9045
SWIDTH 960 0
DWIDTH 12 0
BBX 15 12 -1 -2
BITMAP
0000
0f3c
0618
0c30
0c30
0c30
1860
1860
18c0
1980
0f00
0000
ENDCHAR
STARTCHAR 2356
ENCODING 9046
SWIDTH 960 0
DWIDTH 12 0
BBX 15 12 -1 -2
BITMAP
0000
0f3c
0630
0630
0660
06c0
06c0
0680
0700
0300
0600
0000
ENDCHAR
STARTCHAR 2357
ENCODING 9047
SWIDTH 960 0
DWIDTH 12 0
BBX 15 12 -1 -2
BITMAP
0000
1eee
0ccc
1998
1998
1b50
1aa0
1aa0
1cc0
1980
1980
0000
ENDCHAR
STARTCHAR 2358
ENCODING 9048
SWIDTH 960 0
DWIDTH 12 0
BBX 15 12 -1 -2
BITMAP
0000
0f3c
0638
0660
0340
0380
0300
0680
1cc0
30c0
79e0
0000
ENDCHAR
STARTCHAR 2359
ENCODING 9049
SWIDTH 960 0
DWIDTH 12 0
BBX 15 12 -1 -2
BITMAP
0000
0f3c
0638
0660
0340
0380
0300
0300
0300
0600
0f00
0000
ENDCHAR
STARTCHAR 235a
ENCODING 9050
SWIDTH 960 0
DWIDTH 12 0
BBX 15 12 -1 -2
BITMAP
0000
03fc
0638
0c60
00c0
0180
0300
0600
1c30
3060
7fe0
0000
ENDCHAR
STARTCHAR 2361
ENCODING 9057
SWIDTH 960 0
DWIDTH 12 0
BBX 15 12 -1 -2
BITMAP
0000
0000
0000
0000
01c0
0360
03c0
06c0
0d80
0d00
06c0
0000
ENDCHAR
STARTCHAR 2362
ENCODING 9058
SWIDTH 960 0
DWIDTH 12 0
BBX 15 12 -1 -2
BITMAP
0000
0700
0300
0600
06c0
0760
0c60
0c60
0cc0
1d80
1b00
0000
ENDCHAR
STARTCHAR 2363
ENCODING 9059
SWIDTH 960 0
DWIDTH 12 0
BBX 15 12 -1 -2
BITMAP
0000
0000
0000
0000
03c0
0660
0c00
1800
1800
1980
0f00
0000
ENDCHAR
STARTCHAR 2364
ENCODING 9060
SWIDTH 960 0
DWIDTH 12 0
BBX 15 12 -1 -2
BITMAP
0000
0070
0030
0060
03a0
06e0
0cc0
18c0
18c0
1b80
0ec0
0000
ENDCHAR
STARTCHAR 2365
ENCODING 9061
SWIDTH 960 0
DWIDTH 12 0
BBX 15 12 -1 -2
BITMAP
0000
0000
0000
0000
0380
06c0
0cc0
1fc0
1800
1980
0f00
0000
ENDCHAR
STARTCHAR 2366
ENCODING 9062
SWIDTH 960 0
DWIDTH 12 0
BBX 15 12 -1 -2
BITMAP
0000
00e0
01b0
0300
0fc0
0300
0600
0600
0600
0c00
1e00
0000
ENDCHAR
STARTCHAR 2367
ENCODING 9063
SWIDTH 960 0
DWIDTH 12 0
BBX 15 12 -1 -2
BITMAP
0000
0000
0000
0000
03b0
06c0
06c0
0780
0600
1f80
38c0
0f80
ENDCHAR
STARTCHAR 2368
ENCODING 9064
SWIDTH 960 0
DWIDTH 12 0
BBX 15 12 -1 -2
BITMAP
0000
0700
0300
0600
0680
0740
0cc0
0cc0
0cc0
1980
3dc0
0000
ENDCHAR
STARTCHAR 2369
ENCODING 9065
SWIDTH 960 0
DWIDTH 12 0
BBX 15 12 -1 -2
BITMAP
0000
01c0
00c0
0000
0380
0180
0300
0300
0300
0600
0f00
0000
ENDCHAR
STARTCHAR 236a
ENCODING 9066
SWIDTH 960 0
DWIDTH 12 0
BBX 15 12 -1 -2
BITMAP
0000
00e0
0060
0000
01c0
00c0
0180
0180
0180
0300
3300
1e00
ENDCHAR
STARTCHAR 236b
ENCODING 9067
SWIDTH 960 0
DWIDTH 12 0
BBX 15 12 -1 -2
BITMAP
0000
0700
0300
0600
06e0
06c0
0d80
0f00
0d80
1980
3dc0
0000
ENDCHAR
STARTCHAR 236c
ENCODING 9068
SWIDTH 960 0
DWIDTH 12 0
BBX 15 12 -1 -2
BITMAP
0000
01c0
00c0
0180
0180
0180
0300
0300
0300
0600
0f00
0000
ENDCHAR
STARTCHAR 236d
ENCODING 9069
SWIDTH 960 0
DWIDTH 12 0
BBX 15 12 -1 -2
BITMAP
0000
0000
0000
0000
1b60
1dd0
1b30
1b30
1b30
3660
7770
0000
ENDCHAR
STARTCHAR 236e
ENCODING 9070
SWIDTH 960 0
DWIDTH 12 0
BBX 15 12 -1 -2
BITMAP
0000
0000
0000
0000
0e80
0740
0cc0
0cc0
0cc0
1980
3dc0
0000
ENDCHAR
STARTCHAR 236f
ENCODING 9071
SWIDTH 960 0
DWIDTH 12 0
BBX 15 12 -1 -2
BITMAP
0000
0000
0000
0000
03c0
0660
0c60
1860
18c0
1980
0f00
0000
ENDCHAR
STARTCHAR 2370
ENCODING 9072
SWIDTH 960 0
DWIDTH 12 0
BBX 15 12 -1 -2
BITMAP
0000
0000
0000
0000
0ec0
0760
0c60
0c60
0ec0
1b00
1800
3c00
ENDCHAR
STARTCHAR 2371
ENCODING 9073
SWIDTH 960 0
DWIDTH 12 0
BBX 15 12 -1 -2
BITMAP
0000
0000
0000
0000
03b0
06e0
0cc0
18c0
0dc0
0680
0180
03c0
ENDCHAR
STARTCHAR 2372
ENCODING 9074
SWIDTH 960 0
DWIDTH 12 0
BBX 15 12 -1 -2
BITMAP
0000
0000
0000
0000
0760
03b0
0600
0600
0600
0c00
1e00
0000
ENDCHAR
STARTCHAR 2373
ENCODING 9075
SWIDTH 960 0
DWIDTH 12 0
BBX 15 12 -1 -2
BITMAP
0000
0000
0000
0000
03c0
0660
0600
0380
0180
1980
0f00
0000
ENDCHAR
STARTCHAR 2374
ENCODING 9076
SWIDTH 960 0
DWIDTH 12 0
BBX 15 12 -1 -2
BITMAP
0000
0180
0180
0300
0fc0
0300
0600
0600
0600
0680
0300
0000
ENDCHAR
STARTCHAR 2375
ENCODING 9077
SWIDTH 960 0
DWIDTH 12 0
BBX 15 12 -1 -2
BITMAP
0000
0000
0000
0000
0f70
0660
0cc0
0cc0
0cc0
0d80
0740
0000
ENDCHAR
STARTCHAR 2376
ENCODING 9078
SWIDTH 960 0
DWIDTH 12 0
BBX 15 12 -1 -2
BITMAP
0000
0000
0000
0000
1ef0
0cc0
0cc0
0d80
0d00
0d00
0600
0000
ENDCHAR
STARTCHAR 2377
ENCODING 9079
SWIDTH 960 0
DWIDTH 12 0
BBX 15 12 -1 -2
BITMAP
0000
0000
0000
0000
3ddc
19b0
1b30
1aa0
1dc0
0d80
1980
0000
ENDCHAR
STARTCHAR 2378
ENCODING 9080
SWIDTH 960 0
DWIDTH 12 0
BBX 15 12 -1 -2
BITMAP
0000
0000
0000
0000
0f70
06e0
0680
0300
0e80
1980
3dc0
0000
ENDCHAR
STARTCHAR 2379
ENCODING 9081
SWIDTH 960 0
DWIDTH 12 0
BBX 15 12 -1 -2
BITMAP
0000
0000
0000
0000
0f70
0660
06c0
0680
0700
0600
3600
1c00
ENDCHAR
STARTCHAR 237a
ENCODING 9082
SWIDTH 960 0
DWIDTH 12 0
BBX 15 12 -1 -2
BITMAP
0000
0000
0000
0000
07e0
0cc0
0180
0300
0e60
18c0
3f80
0000
ENDCHAR
STARTCHAR 2421
ENCODING 9249
SWIDTH 960 0
DWIDTH 12 0
BBX 15 12 -1 -2
BITMAP
0000
0000
0000
0000
0300
07c0
0680
0fc0
1f40
34c0
1980
0000
ENDCHAR
STARTCHAR 2422
ENCODING 9250
SWIDTH 960 0
DWIDTH 12 0
BBX 15 12 -1 -2
BITMAP
0180
0180
07f0
0300
03e0
06b0
1db0
3530
3760
34c0
1b80
0000
ENDCHAR
STARTCHAR 2423
ENCODING 9251
SWIDTH 960 0
DWIDTH 12 0
BBX 15 12 -1 -2
BITMAP
0000
0000
0000
0000
0000
0c00
0d80
18c0
1ac0
1c00
0000
0000
ENDCHAR
STARTCHAR 2424
ENCODING 9252
SWIDTH 960 0
DWIDTH 12 0
BBX 15 12 -1 -2
BITMAP
0000
0000
0c00
0c60
1830
1830
3030
3630
1c30
1800
0000
0000
ENDCHAR
STARTCHAR 2425
ENCODING 9253
SWIDTH 960 0
DWIDTH 12 0
BBX 15 12 -1 -2
BITMAP
0000
0000
0000
0000
0600
0380
0f00
1980
0300
0600
1c00
0000
ENDCHAR
STARTCHAR 2426
ENCODING 9254
SWIDTH 960 0
DWIDTH 12 0
BBX 15 12 -1 -2
BITMAP
0180
00e0
0000
03c0
0e60
0060
0060
00c0
0180
0700
1c00
0000
ENDCHAR
STARTCHAR 2427
ENCODING 9255
SWIDTH 960 0
DWIDTH 12 0
BBX 15 12 -1 -2
BITMAP
0000
0000
0000
0000
0600
0300
1f80
0300
1c00
3600
6780
0000
ENDCHAR
STARTCHAR 2428
ENCODING 9256
SWIDTH 960 0
DWIDTH 12 0
BBX 15 12 -1 -2
BITMAP
0180
00e0
0000
07e0
00c0
0180
0300
0700
1d00
3300
61e0
0000
ENDCHAR
STARTCHAR 2429
ENCODING 9257
SWIDTH 960 0
DWIDTH 12 0
BBX 15 12 -1 -2
BITMAP
0000
0000
0000
0000
0300
0fa0
0660
0700
1e80
3580
1b00
0000
ENDCHAR
STARTCHAR 242a
ENCODING 9258
SWIDTH 960 0
DWIDTH 12 0
BBX 15 12 -1 -2
BITMAP
0180
0180
01ec
1f0c
030c
03c0
0e60
1a30
3660
34c0
1b80
0000
ENDCHAR
STARTCHAR 242b
ENCODING 9259
SWIDTH 960 0
DWIDTH 12 0
BBX 15 12 -1 -2
BITMAP
0000
0300
0318
1f98
06d8
0cd8
0d98
1980
3980
6b00
0e00
0000
ENDCHAR
STARTCHAR 242c
ENCODING 9260
SWIDTH 960 0
DWIDTH 12 0
BBX 15 12 -1 -2
BITMAP
0000
031a
031c
1f8c
06d8
0cd8
0d98
1980
3980
6b00
0e00
0000
ENDCHAR
STARTCHAR 242d
ENCODING 9261
SWIDTH 960 0
DWIDTH 12 0
BBX 15 12 -1 -2
BITMAP
00c0
00f0
07c0
00f0
0fc0
0060
07a0
0ce0
1800
1800
0f80
0000
ENDCHAR
STARTCHAR 242e
ENCODING 9262
SWIDTH 960 0
DWIDTH 12 0
BBX 15 12 -1 -2
BITMAP
00d4
00f4
07c0
00f0
0fc0
0060
07a0
0ce0
1800
1800
0f80
0000
ENDCHAR
STARTCHAR 242f
ENCODING 9263
SWIDTH 960 0
DWIDTH 12 0
BBX 15 12 -1 -2
BITMAP
0000
0060
00c0
0180
0300
0600
0600
0600
0300
0300
0300
0000
ENDCHAR
STARTCHAR 2430
ENCODING 9264
SWIDTH 960 0
DWIDTH 12 0
BBX 15 12 -1 -2
BITMAP
0000
00c0
01d8
0350
0600
0c00
0c00
0c00
0600
0600
0600
0000
ENDCHAR
STARTCHAR 2431
ENCODING 9265
SWIDTH 960 0
DWIDTH 12 0
BBX 15 12 -1 -2
BITMAP
0018
0618
0c1e
0df0
1830
1830
3060
3460
18c0
0180
0700
0000
ENDCHAR
STARTCHAR 2432
ENCODING 9266
SWIDTH 960 0
DWIDTH 12 0
BBX 15 12 -1 -2
BITMAP
0035
0635
0c1e
0df0
1830
1830
3060
3460
18c0
0180
0700
0000
ENDCHAR
STARTCHAR 2433
ENCODING 9267
SWIDTH 960 0
DWIDTH 12 0
BBX 15 12 -1 -2
BITMAP
0000
0300
01f8
0000
0000
0000
0000
1800
1870
0fc0
0000
0000
ENDCHAR
STARTCHAR 2434
ENCODING 9268
SWIDTH 960 0
DWIDTH 12 0
BBX 15 12 -1 -2
BITMAP
0000
0634
03f4
0000
0000
0000
0000
3000
30e0
1f80
0000
0000
ENDCHAR
STARTCHAR 2435
ENCODING 9269
SWIDTH 960 0
DWIDTH 12 0
BBX 15 12 -1 -2
BITMAP
00c0
00c0
007c
0fe0
00c0
0060
0fa0
18e0
1800
0c00
0780
0000
ENDCHAR
STARTCHAR 2436
ENCODING 9270
SWIDTH 960 0
DWIDTH 12 0
BBX 15 12 -1 -2
BITMAP
01b4
01b4
00f8
1fc0
0180
00c0
1f40
31c0
3000
1800
0f00
0000
ENDCHAR
STARTCHAR 2437
ENCODING 9271
SWIDTH 960 0
DWIDTH 12 0
BBX 15 12 -1 -2
BITMAP
0000
0300
0300
0600
0600
0600
0c00
0c00
0c70
0dc0
0700
0000
ENDCHAR
STARTCHAR 2438
ENCODING 9272
SWIDTH 960 0
DWIDTH 12 0
BBX 15 12 -1 -2
BITMAP
0000
0300
0334
0668
0600
0600
0c00
0c00
0c70
0dc0
0700
0000
ENDCHAR
STARTCHAR 2439
ENCODING 9273
SWIDTH 960 0
DWIDTH 12 0
BBX 15 12 -1 -2
BITMAP
0060
0060
0ffc
00c0
03c0
06c0
0680
0380
0380
0600
1c00
0000
ENDCHAR
STARTCHAR 243a
ENCODING 9274
SWIDTH 960 0
DWIDTH 12 0
BBX 15 12 -1 -2
BITMAP
006a
006a
0ffc
00c0
03c0
06c0
0680
0380
0380
0600
1c00
0000
ENDCHAR
STARTCHAR 243b
ENCODING 9275
SWIDTH 960 0
DWIDTH 12 0
BBX 15 12 -1 -2
BITMAP
0000
0030
0330
067c
1fe0
0660
0cc0
0d80
0c00
0c00
07c0
0000
ENDCHAR
STARTCHAR 243c
ENCODING 9276
SWIDTH 960 0
DWIDTH 12 0
BBX 15 12 -1 -2
BITMAP
0000
006a
066a
0cf0
3fc0
0cc0
1980
1b00
1800
1800
0f80
0000
ENDCHAR
STARTCHAR 243d
ENCODING 9277
SWIDTH 960 0
DWIDTH 12 0
BBX 15 12 -1 -2
BITMAP
0000
03f0
00e0
0180
0378
1fc0
0300
0600
0600
0600
0380
0000
ENDCHAR
STARTCHAR 243e
ENCODING 9278
SWIDTH 960 0
DWIDTH 12 0
BBX 15 12 -1 -2
BITMAP
0000
03fa
00ea
0180
0378
1fc0
0300
0600
0600
0600
0380
0000
ENDCHAR
STARTCHAR 243f
ENCODING 9279
SWIDTH 960 0
DWIDTH 12 0
BBX 15 12 -1 -2
BITMAP
0180
0180
0fe0
0600
0638
0ce0
0c00
1800
3300
3300
61e0
0000
ENDCHAR
STARTCHAR 2440
ENCODING 9280
SWIDTH 960 0
DWIDTH 12 0
BBX 15 12 -1 -2
BITMAP
0180
019a
0fea
0600
0638
0ce0
0c00
1800
3300
3300
61e0
0000
ENDCHAR
STARTCHAR 2441
ENCODING 9281
SWIDTH 960 0
DWIDTH 12 0
BBX 15 12 -1 -2
BITMAP
0300
0300
0ff0
0600
0600
0d80
1ec0
1860
00c0
0380
1e00
0000
ENDCHAR
STARTCHAR 2442
ENCODING 9282
SWIDTH 960 0
DWIDTH 12 0
BBX 15 12 -1 -2
BITMAP
0300
0334
0ff4
0600
0600
0d80
1ec0
1860
00c0
0380
1e00
0000
ENDCHAR
STARTCHAR 2443
ENCODING 9283
SWIDTH 960 0
DWIDTH 12 0
BBX 15 12 -1 -2
BITMAP
0000
0000
0000
0000
0000
0000
0780
1cc0
0180
0300
0e00
0000
ENDCHAR
STARTCHAR 2444
ENCODING 9284
SWIDTH 960 0
DWIDTH 12 0
BBX 15 12 -1 -2
BITMAP
0000
0000
03e0
3e30
0018
0030
0060
01c0
0700
0000
0000
0000
ENDCHAR
STARTCHAR 2445
ENCODING 9285
SWIDTH 960 0
DWIDTH 12 0
BBX 15 12 -1 -2
BITMAP
0000
001a
07f6
3c60
0030
0060
00c0
0380
0e00
0000
0000
0000
ENDCHAR
STARTCHAR 2446
ENCODING 9286
SWIDTH 960 0
DWIDTH 12 0
BBX 15 12 -1 -2
BITMAP
0000
003c
0fe0
00c0
0180
0300
0600
0600
0300
01c0
0000
0000
ENDCHAR
STARTCHAR 2447
ENCODING 9287
SWIDTH 960 0
DWIDTH 12 0
BBX 15 12 -1 -2
BITMAP
0000
0078
1fc0
01a8
0368
0600
0c00
0c00
0600
0380
0000
0000
ENDCHAR
STARTCHAR 2448
ENCODING 9288
SWIDTH 960 0
DWIDTH 12 0
BBX 15 12 -1 -2
BITMAP
0000
0180
0180
0180
01b8
01e0
0700
0c00
1800
1800
0fe0
0000
ENDCHAR
STARTCHAR 2449
ENCODING 9289
SWIDTH 960 0
DWIDTH 12 0
BBX 15 12 -1 -2
BITMAP
0000
019a
019a
0180
01b8
01e0
0700
0c00
1800
1800
0fe0
0000
ENDCHAR
STARTCHAR 244a
ENCODING 9290
SWIDTH 960 0
DWIDTH 12 0
BBX 15 12 -1 -2
BITMAP
0180
0180
07ec
061c
0630
0c30
1860
33e0
0670
06d0
0380
0000
ENDCHAR
STARTCHAR 244b
ENCODING 9291
SWIDTH 960 0
DWIDTH 12 0
BBX 15 12 -1 -2
BITMAP
0000
0600
0c78
0dc0
1800
1800
3000
3300
3300
39e0
3000
0000
ENDCHAR
STARTCHAR 244c
ENCODING 9292
SWIDTH 960 0
DWIDTH 12 0
BBX 15 12 -1 -2
BITMAP
0000
0060
0660
0df0
0ed8
0d98
1d98
3518
36f0
3530
19e0
0000
ENDCHAR
STARTCHAR 244d
ENCODING 9293
SWIDTH 960 0
DWIDTH 12 0
BBX 15 12 -1 -2
BITMAP
0300
0300
0300
1f70
0698
0718
0c30
1c30
3df0
6b70
19c0
0000
ENDCHAR
STARTCHAR 244e
ENCODING 9294
SWIDTH 960 0
DWIDTH 12 0
BBX 15 12 -1 -2
BITMAP
0000
01f0
0758
0d98
198c
1b0c
3318
3630
1ce0
0380
0000
0000
ENDCHAR
STARTCHAR 244f
ENCODING 9295
SWIDTH 960 0
DWIDTH 12 0
BBX 15 12 -1 -2
BITMAP
0000
0618
0c1e
0df0
1830
1830
3060
33e0
3670
3ad0
3380
0000
ENDCHAR
STARTCHAR 2450
ENCODING 9296
SWIDTH 960 0
DWIDTH 12 0
BBX 15 12 -1 -2
BITMAP
000d
061d
0c18
0df8
1830
1830
3060
33e0
3670
3ad0
3380
0000
ENDCHAR
STARTCHAR 2451
ENCODING 9297
SWIDTH 960 0
DWIDTH 12 0
BBX 15 12 -1 -2
BITMAP
000e
061b
0c1e
0df0
1830
1830
3060
33e0
3670
3ad0
3380
0000
ENDCHAR
STARTCHAR 2452
ENCODING 9298
SWIDTH 960 0
DWIDTH 12 0
BBX 15 12 -1 -2
BITMAP
0000
0060
03c0
0330
0630
0c38
0c68
1860
18c0
1980
0f00
0000
ENDCHAR
STARTCHAR 2453
ENCODING 9299
SWIDTH 960 0
DWIDTH 12 0
BBX 15 12 -1 -2
BITMAP
0000
00cd
078d
0660
0c60
1870
18d0
30c0
3180
3300
1e00
0000
ENDCHAR
STARTCHAR 2454
ENCODING 9300
SWIDTH 960 0
DWIDTH 12 0
BBX 15 12 -1 -2
BITMAP
000e
019b
0f0e
0660
0c60
1870
18d0
30c0
3180
3300
1e00
0000
ENDCHAR
STARTCHAR 2455
ENCODING 9301
SWIDTH 960 0
DWIDTH 12 0
BBX 15 12 -1 -2
BITMAP
0000
0180
00f0
0000
0180
01b0
0db0
0d98
3998
6980
0f00
0000
ENDCHAR
STARTCHAR 2456
ENCODING 9302
SWIDTH 960 0
DWIDTH 12 0
BBX 15 12 -1 -2
BITMAP
0000
019a
00fa
0000
0180
01b0
0db0
0d98
3998
6980
0f00
0000
ENDCHAR
STARTCHAR 2457
ENCODING 9303
SWIDTH 960 0
DWIDTH 12 0
BBX 15 12 -1 -2
BITMAP
0000
018e
00fb
000c
0180
01b0
0db0
0d98
3998
6980
0f00
0000
ENDCHAR
STARTCHAR 2458
ENCODING 9304
SWIDTH 960 0
DWIDTH 12 0
BBX 15 12 -1 -2
BITMAP
0000
0000
0000
0380
06c0
1c60
0060
0030
0018
0000
0000
0000
ENDCHAR
STARTCHAR 2459
ENCODING 9305
SWIDTH 960 0
DWIDTH 12 0
BBX 15 12 -1 -2
BITMAP
0000
001a
001a
0380
06c0
1c60
0060
0030
0018
0000
0000
0000
ENDCHAR
STARTCHAR 245a
ENCODING 9306
SWIDTH 960 0
DWIDTH 12 0
BBX 15 12 -1 -2
BITMAP
0000
001c
0036
0398
06c0
1c60
7060
0030
0018
0000
0000
0000
ENDCHAR
STARTCHAR 245b
ENCODING 9307
SWIDTH 960 0
DWIDTH 12 0
BBX 15 12 -1 -2
BITMAP
0000
06fe
0c18
0c30
19f8
1830
3060
33e0
3670
3ad0
3380
0000
ENDCHAR
STARTCHAR 245c
ENCODING 9308
SWIDTH 960 0
DWIDTH 12 0
BBX 15 12 -1 -2
BITMAP
000d
06fd
0c18
0c30
19f8
1830
3060
33e0
3670
3ad0
3380
0000
ENDCHAR
STARTCHAR 245d
ENCODING 9309
SWIDTH 960 0
DWIDTH 12 0
BBX 15 12 -1 -2
BITMAP
000e
06fb
0c1e
0c30
19f8
1830
3060
33e0
3670
3ad0
3380
0000
ENDCHAR
STARTCHAR 245e
ENCODING 9310
SWIDTH 960 0
DWIDTH 12 0
BBX 15 12 -1 -2
BITMAP
0060
0060
07fc
00c0
00f0
0fc0
0180
0f80
19c0
1b60
0e00
0000
ENDCHAR
STARTCHAR 245f
ENCODING 9311
SWIDTH 960 0
DWIDTH 12 0
BBX 15 12 -1 -2
BITMAP
0000
07c0
00c0
01b0
01b0
0ff0
1a70
3668
34c0
3980
0300
0000
ENDCHAR
STARTCHAR 2460
ENCODING 9312
SWIDTH 960 0
DWIDTH 12 0
BBX 15 12 -1 -2
BITMAP
0180
0180
0fd8
030c
0f00
1a00
3600
3430
1c30
0c60
07c0
0000
ENDCHAR
STARTCHAR 2461
ENCODING 9313
SWIDTH 960 0
DWIDTH 12 0
BBX 15 12 -1 -2
BITMAP
0000
0060
06f0
0d50
0ed8
0d98
1d18
3618
3430
38e0
0380
0000
ENDCHAR
STARTCHAR 2462
ENCODING 9314
SWIDTH 960 0
DWIDTH 12 0
BBX 15 12 -1 -2
BITMAP
0180
0180
07e0
0300
0660
1fc0
0c00
0c60
0cc0
0d80
0700
0000
ENDCHAR
STARTCHAR 2463
ENCODING 9315
SWIDTH 960 0
DWIDTH 12 0
BBX 15 12 -1 -2
BITMAP
0000
0000
0000
0000
0340
03f0
1f50
0630
06e0
0600
0600
0000
ENDCHAR
STARTCHAR 2464
ENCODING 9316
SWIDTH 960 0
DWIDTH 12 0
BBX 15 12 -1 -2
BITMAP
00c0
06c0
0670
06d8
0f4c
3a38
06e0
0600
0600
0600
0600
0000
ENDCHAR
STARTCHAR 2465
ENCODING 9317
SWIDTH 960 0
DWIDTH 12 0
BBX 15 12 -1 -2
BITMAP
0000
0000
0000
0000
00c0
06e0
0db0
0eb0
0de0
0300
0600
0000
ENDCHAR
STARTCHAR 2466
ENCODING 9318
SWIDTH 960 0
DWIDTH 12 0
BBX 15 12 -1 -2
BITMAP
0060
0060
0df0
1b58
1acc
1cd8
3ab0
33e0
3380
0600
0c00
0000
ENDCHAR
STARTCHAR 2467
ENCODING 9319
SWIDTH 960 0
DWIDTH 12 0
BBX 15 12 -1 -2
BITMAP
0000
0000
0000
0000
0180
01e0
0300
0300
1f80
36c0
1c00
0000
ENDCHAR
STARTCHAR 2468
ENCODING 9320
SWIDTH 960 0
DWIDTH 12 0
BBX 15 12 -1 -2
BITMAP
00c0
00c0
00c0
01f0
0180
0180
0300
1f00
33c0
3660
1c00
0000
ENDCHAR
STARTCHAR 2469
ENCODING 9321
SWIDTH 960 0
DWIDTH 12 0
BBX 15 12 -1 -2
BITMAP
0180
00e0
0000
0c00
0c00
0fc0
1c60
1860
00c0
0380
1e00
0000
ENDCHAR
STARTCHAR 246a
ENCODING 9322
SWIDTH 960 0
DWIDTH 12 0
BBX 15 12 -1 -2
BITMAP
0030
0198
0318
0330
0630
0630
0760
0660
00c0
0180
0700
0000
ENDCHAR
STARTCHAR 246b
ENCODING 9323
SWIDTH 960 0
DWIDTH 12 0
BBX 15 12 -1 -2
BITMAP
0000
03f0
00e0
0180
03e0
0f30
1830
3030
0ee0
1b80
0f00
0000
ENDCHAR
STARTCHAR 246c
ENCODING 9324
SWIDTH 960 0
DWIDTH 12 0
BBX 15 12 -1 -2
BITMAP
0300
0300
0360
06b0
1f30
0630
0c60
1c60
3c60
6830
1800
0000
ENDCHAR
STARTCHAR 246d
ENCODING 9325
SWIDTH 960 0
DWIDTH 12 0
BBX 15 12 -1 -2
BITMAP
0000
03f0
00e0
0180
03e0
0f30
1830
3030
0060
01c0
0f00
0000
ENDCHAR
STARTCHAR 246e
ENCODING 9326
SWIDTH 960 0
DWIDTH 12 0
BBX 15 12 -1 -2
BITMAP
0000
0000
0000
0000
0300
0780
06e0
0730
1e60
34c0
0d80
0000
ENDCHAR
STARTCHAR 246f
ENCODING 9327
SWIDTH 960 0
DWIDTH 12 0
BBX 15 12 -1 -2
BITMAP
0300
0300
0300
0770
1e98
0718
0c18
1c30
3460
19c0
1800
0000
ENDCHAR
STARTCHAR 2470
ENCODING 9328
SWIDTH 960 0
DWIDTH 12 0
BBX 15 12 -1 -2
BITMAP
0000
03e0
0060
00c0
03f0
0f18
1b18
3618
37b0
3ae0
03c0
0000
ENDCHAR
STARTCHAR 2471
ENCODING 9329
SWIDTH 960 0
DWIDTH 12 0
BBX 15 12 -1 -2
BITMAP
0000
03f8
0060
03f0
0618
0db0
06e0
0380
0000
36e0
63b0
0000
ENDCHAR
STARTCHAR 2472
ENCODING 9330
SWIDTH 960 0
DWIDTH 12 0
BBX 15 12 -1 -2
BITMAP
00c0
00c0
07f0
0300
0638
1f60
3380
0680
0d80
0c00
07c0
0000
ENDCHAR
STARTCHAR 2473
ENCODING 9331
SWIDTH 960 0
DWIDTH 12 0
BBX 15 12 -1 -2
BITMAP
0000
00c0
0180
0180
0300
0600
0f00
1980
31b8
31a0
60c0
0000
ENDCHAR
STARTCHAR 2521
ENCODING 9505
SWIDTH 960 0
DWIDTH 12 0
BBX 15 12 -1 -2
BITMAP
0000
0000
0000
0000
0000
0fe0
06c0
0780
0600
0c00
1800
0000
ENDCHAR
STARTCHAR 2522
ENCODING 9506
SWIDTH 960 0
DWIDTH 12 0
BBX 15 12 -1 -2
BITMAP
0000
0000
1ffc
0018
0330
0360
0780
0600
0c00
1800
3000
0000
ENDCHAR
STARTCHAR 2523
ENCODING 9507
SWIDTH 960 0
DWIDTH 12 0
BBX 15 12 -1 -2
BITMAP
0000
0000
0000
0000
00c0
0180
0180
0700
1d00
0600
0600
0000
ENDCHAR
STARTCHAR 2524
ENCODING 9508
SWIDTH 960 0
DWIDTH 12 0
BBX 15 12 -1 -2
BITMAP
0000
0018
0030
0060
00c0
07c0
1d80
0180
0180
0300
0300
0000
ENDCHAR
STARTCHAR 2525
ENCODING 9509
SWIDTH 960 0
DWIDTH 12 0
BBX 15 12 -1 -2
BITMAP
0000
0000
0000
0000
0300
0300
1fc0
1980
1b00
0600
1c00
0000
ENDCHAR
STARTCHAR 2526
ENCODING 9510
SWIDTH 960 0
DWIDTH 12 0
BBX 15 12 -1 -2
BITMAP
00c0
00c0
00c0
1ff8
1818
1830
3030
0060
01c0
0700
1c00
0000
ENDCHAR
STARTCHAR 2527
ENCODING 9511
SWIDTH 960 0
DWIDTH 12 0
BBX 15 12 -1 -2
BITMAP
0000
0000
0000
0000
0000
0000
0fc0
0300
0300
3fc0
0000
0000
ENDCHAR
STARTCHAR 2528
ENCODING 9512
SWIDTH 960 0
DWIDTH 12 0
BBX 15 12 -1 -2
BITMAP
0000
0000
0000
0ff8
0180
0180
0300
0300
0300
7ff0
0000
0000
ENDCHAR
STARTCHAR 2529
ENCODING 9513
SWIDTH 960 0
DWIDTH 12 0
BBX 15 12 -1 -2
BITMAP
0000
0000
0000
0000
00c0
00c0
1fe0
0380
0e80
3b00
0700
0000
ENDCHAR
STARTCHAR 252a
ENCODING 9514
SWIDTH 960 0
DWIDTH 12 0
BBX 15 12 -1 -2
BITMAP
0030
0030
0030
0ffc
00e0
01e0
0340
06c0
1cc0
0180
0380
0000
ENDCHAR
STARTCHAR 252b
ENCODING 9515
SWIDTH 960 0
DWIDTH 12 0
BBX 15 12 -1 -2
BITMAP
00c0
00c0
00c0
0ff8
0198
0318
0330
0630
0c30
1860
31c0
0000
ENDCHAR
STARTCHAR 252c
ENCODING 9516
SWIDTH 960 0
DWIDTH 12 0
BBX 15 12 -1 -2
BITMAP
00da
00da
00c0
0ff8
0198
0318
0330
0630
0c30
1860
31c0
0000
ENDCHAR
STARTCHAR 252d
ENCODING 9517
SWIDTH 960 0
DWIDTH 12 0
BBX 15 12 -1 -2
BITMAP
00c0
00c0
00f8
1f80
0180
01f8
3f80
0180
0180
0300
0300
0000
ENDCHAR
STARTCHAR 252e
ENCODING 9518
SWIDTH 960 0
DWIDTH 12 0
BBX 15 12 -1 -2
BITMAP
00da
00da
00f8
1f80
0180
01f8
3f80
0180
0180
0300
0300
0000
ENDCHAR
STARTCHAR 252f
ENCODING 9519
SWIDTH 960 0
DWIDTH 12 0
BBX 15 12 -1 -2
BITMAP
0000
00c0
00fc
0198
0318
0e30
1860
00c0
0380
0e00
3800
0000
ENDCHAR
STARTCHAR 2530
ENCODING 9520
SWIDTH 960 0
DWIDTH 12 0
BBX 15 12 -1 -2
BITMAP
000d
00cd
00fc
0198
0318
0e30
1860
00c0
0380
0e00
3800
0000
ENDCHAR
STARTCHAR 2531
ENCODING 9521
SWIDTH 960 0
DWIDTH 12 0
BBX 15 12 -1 -2
BITMAP
0000
0300
0300
07fc
0660
0c60
38c0
00c0
0180
0700
1c00
0000
ENDCHAR
STARTCHAR 2532
ENCODING 9522
SWIDTH 960 0
DWIDTH 12 0
BBX 15 12 -1 -2
BITMAP
0000
030d
030d
07f8
0660
0c60
38c0
00c0
0180
0700
1c00
0000
ENDCHAR
STARTCHAR 2533
ENCODING 9523
SWIDTH 960 0
DWIDTH 12 0
BBX 15 12 -1 -2
BITMAP
0000
0000
07fc
0018
0018
0018
0030
0030
1ff0
0060
0000
0000
ENDCHAR
STARTCHAR 2534
ENCODING 9524
SWIDTH 960 0
DWIDTH 12 0
BBX 15 12 -1 -2
BITMAP
0000
001a
001a
1ff0
0030
0030
0060
0060
0060
7fc0
00c0
0000
ENDCHAR
STARTCHAR 2535
ENCODING 9525
SWIDTH 960 0
DWIDTH 12 0
BBX 15 12 -1 -2
BITMAP
0000
0198
0198
0330
1ffc
0330
0660
0660
00c0
0380
0e00
0000
ENDCHAR
STARTCHAR 2536
ENCODING 9526
SWIDTH 960 0
DWIDTH 12 0
BBX 15 12 -1 -2
BITMAP
0000
0335
0335
0660
1ff8
0660
0cc0
0cc0
0180
0700
1c00
0000
ENDCHAR
STARTCHAR 2537
ENCODING 9527
SWIDTH 960 0
DWIDTH 12 0
BBX 15 12 -1 -2
BITMAP
0000
0700
0180
0018
1c18
0630
0060
00c0
0380
0e00
7800
0000
ENDCHAR
STARTCHAR 2538
ENCODING 9528
SWIDTH 960 0
DWIDTH 12 0
BBX 15 12 -1 -2
BITMAP
0000
071a
019a
0000
1c18
0630
0060
00c0
0380
0e00
7800
0000
ENDCHAR
STARTCHAR 2539
ENCODING 9529
SWIDTH 960 0
DWIDTH 12 0
BBX 15 12 -1 -2
BITMAP
0000
0000
07f8
0030
0030
0060
00c0
01a0
0730
1c30
7030
0000
ENDCHAR
STARTCHAR 253a
ENCODING 9530
SWIDTH 960 0
DWIDTH 12 0
BBX 15 12 -1 -2
BITMAP
0000
001a
07fa
0030
0030
0060
00c0
01a0
0730
1c30
7030
0000
ENDCHAR
STARTCHAR 253b
ENCODING 9531
SWIDTH 960 0
DWIDTH 12 0
BBX 15 12 -1 -2
BITMAP
0000
0300
0300
0678
07d0
3e60
0cc0
0d80
0c00
0c00
07c0
0000
ENDCHAR
STARTCHAR 253c
ENCODING 9532
SWIDTH 960 0
DWIDTH 12 0
BBX 15 12 -1 -2
BITMAP
0000
031a
031c
0674
07d8
3e70
0cc0
0d80
0c00
0c00
07c0
0000
ENDCHAR
STARTCHAR 253d
ENCODING 9533
SWIDTH 960 0
DWIDTH 12 0
BBX 15 12 -1 -2
BITMAP
0000
0000
060c
0618
0618
0030
0060
00c0
0380
0e00
3800
0000
ENDCHAR
STARTCHAR 253e
ENCODING 9534
SWIDTH 960 0
DWIDTH 12 0
BBX 15 12 -1 -2
BITMAP
0000
001a
061c
060c
0618
0030
0060
00c0
0380
0e00
3800
0000
ENDCHAR
STARTCHAR 253f
ENCODING 9535
SWIDTH 960 0
DWIDTH 12 0
BBX 15 12 -1 -2
BITMAP
0000
00c0
01fc
0318
0618
1db0
00e0
00c0
0380
0e00
3800
0000
ENDCHAR
STARTCHAR 2540
ENCODING 9536
SWIDTH 960 0
DWIDTH 12 0
BBX 15 12 -1 -2
BITMAP
0000
00cd
01fd
0318
0618
1db0
00e0
00c0
0380
0e00
3800
0000
ENDCHAR
STARTCHAR 2541
ENCODING 9537
SWIDTH 960 0
DWIDTH 12 0
BBX 15 12 -1 -2
BITMAP
0000
0038
07e0
00c0
00c0
1ffc
0180
0180
0300
0600
1c00
0000
ENDCHAR
STARTCHAR 2542
ENCODING 9538
SWIDTH 960 0
DWIDTH 12 0
BBX 15 12 -1 -2
BITMAP
0000
003d
07ed
00c0
00c0
1ffc
0180
0180
0300
0600
1c00
0000
ENDCHAR
STARTCHAR 2543
ENCODING 9539
SWIDTH 960 0
DWIDTH 12 0
BBX 15 12 -1 -2
BITMAP
0000
0000
0000
0000
0300
0d60
0d60
0cc0
0180
0700
1c00
0000
ENDCHAR
STARTCHAR 2544
ENCODING 9540
SWIDTH 960 0
DWIDTH 12 0
BBX 15 12 -1 -2
BITMAP
0000
0180
0d8c
0d98
0d98
0c30
0060
00c0
0380
0e00
3800
0000
ENDCHAR
STARTCHAR 2545
ENCODING 9541
SWIDTH 960 0
DWIDTH 12 0
BBX 15 12 -1 -2
BITMAP
001a
019a
0d80
0d98
0d98
0c30
0060
00c0
0380
0e00
3800
0000
ENDCHAR
STARTCHAR 2546
ENCODING 9542
SWIDTH 960 0
DWIDTH 12 0
BBX 15 12 -1 -2
BITMAP
0000
0000
03f8
0000
0000
1ffc
0180
0180
0300
0e00
3800
0000
ENDCHAR
STARTCHAR 2547
ENCODING 9543
SWIDTH 960 0
DWIDTH 12 0
BBX 15 12 -1 -2
BITMAP
0000
001a
03fa
0000
0000
1ffc
0180
0180
0300
0e00
3800
0000
ENDCHAR
STARTCHAR 2548
ENCODING 9544
SWIDTH 960 0
DWIDTH 12 0
BBX 15 12 -1 -2
BITMAP
0300
0300
0300
0600
0780
06c0
0c60
0c00
0c00
1800
1800
0000
ENDCHAR
STARTCHAR 2549
ENCODING 9545
SWIDTH 960 0
DWIDTH 12 0
BBX 15 12 -1 -2
BITMAP
0300
0334
0334
0600
0780
06c0
0c60
0c00
0c00
1800
1800
0000
ENDCHAR
STARTCHAR 254a
ENCODING 9546
SWIDTH 960 0
DWIDTH 12 0
BBX 15 12 -1 -2
BITMAP
0060
0060
0060
1ffc
00c0
0180
0180
0300
0600
0c00
3800
0000
ENDCHAR
STARTCHAR 254b
ENCODING 9547
SWIDTH 960 0
DWIDTH 12 0
BBX 15 12 -1 -2
BITMAP
0000
0000
0000
07f0
0000
0000
0000
0000
3ff8
0000
0000
0000
ENDCHAR
STARTCHAR 254c
ENCODING 9548
SWIDTH 960 0
DWIDTH 12 0
BBX 15 12 -1 -2
BITMAP
0000
0000
03fc
0018
0030
0360
01c0
01a0
0730
1c30
7000
0000
ENDCHAR
STARTCHAR 254d
ENCODING 9549
SWIDTH 960 0
DWIDTH 12 0
BBX 15 12 -1 -2
BITMAP
00c0
00c0
07f8
0030
0060
01c0
0f60
3b38
0300
0600
0600
0000
ENDCHAR
STARTCHAR 254e
ENCODING 9550
SWIDTH 960 0
DWIDTH 12 0
BBX 15 12 -1 -2
BITMAP
0000
0000
0018
0018
0030
0060
00c0
0180
0700
3c00
0000
0000
ENDCHAR
STARTCHAR 254f
ENCODING 9551
SWIDTH 960 0
DWIDTH 12 0
BBX 15 12 -1 -2
BITMAP
0000
0000
0000
0360
0330
0630
0630
0c30
1830
3030
6030
0000
ENDCHAR
STARTCHAR 2550
ENCODING 9552
SWIDTH 960 0
DWIDTH 12 0
BBX 15 12 -1 -2
BITMAP
0000
000d
000d
0360
0330
0630
0630
0c30
1830
3030
6030
0000
ENDCHAR
STARTCHAR 2551
ENCODING 9553
SWIDTH 960 0
DWIDTH 12 0
BBX 15 12 -1 -2
BITMAP
0000
000e
003b
036c
0330
0630
0630
0c30
1830
3030
6030
0000
ENDCHAR
STARTCHAR 2552
ENCODING 9554
SWIDTH 960 0
DWIDTH 12 0
BBX 15 12 -1 -2
BITMAP
0000
0600
0600
0c00
0c70
0fc0
1800
1800
1800
0fe0
0000
0000
ENDCHAR
STARTCHAR 2553
ENCODING 9555
SWIDTH 960 0
DWIDTH 12 0
BBX 15 12 -1 -2
BITMAP
0000
061a
061a
0c00
0cf0
0f80
1800
1800
1800
0fe0
0000
0000
ENDCHAR
STARTCHAR 2554
ENCODING 9556
SWIDTH 960 0
DWIDTH 12 0
BBX 15 12 -1 -2
BITMAP
0000
061c
0636
0c38
0cf0
0f80
1800
1800
1800
0fe0
0000
0000
ENDCHAR
STARTCHAR 2555
ENCODING 9557
SWIDTH 960 0
DWIDTH 12 0
BBX 15 12 -1 -2
BITMAP
0000
0000
0ffc
0018
0018
0030
0060
00c0
0380
0e00
3800
0000
ENDCHAR
STARTCHAR 2556
ENCODING 9558
SWIDTH 960 0
DWIDTH 12 0
BBX 15 12 -1 -2
BITMAP
0034
0034
0ff8
0030
0030
0060
00c0
0180
0700
1c00
7000
0000
ENDCHAR
STARTCHAR 2557
ENCODING 9559
SWIDTH 960 0
DWIDTH 12 0
BBX 15 12 -1 -2
BITMAP
001c
0036
0ffc
0030
0030
0060
00c0
0180
0700
1c00
7000
0000
ENDCHAR
STARTCHAR 2558
ENCODING 9560
SWIDTH 960 0
DWIDTH 12 0
BBX 15 12 -1 -2
BITMAP
0000
0000
0000
0380
06c0
1c60
3060
0030
0018
0000
0000
0000
ENDCHAR
STARTCHAR 2559
ENCODING 9561
SWIDTH 960 0
DWIDTH 12 0
BBX 15 12 -1 -2
BITMAP
0000
001a
001a
0380
06c0
1c60
3060
0030
0018
0000
0000
0000
ENDCHAR
STARTCHAR 255a
ENCODING 9562
SWIDTH 960 0
DWIDTH 12 0
BBX 15 12 -1 -2
BITMAP
0000
001c
0036
0398
06c0
1c60
3060
0030
0018
0000
0000
0000
ENDCHAR
STARTCHAR 255b
ENCODING 9563
SWIDTH 960 0
DWIDTH 12 0
BBX 15 12 -1 -2
BITMAP
00c0
00c0
00c0
1ff8
0180
0da0
0d60
1b30
3330
6600
0e00
0000
ENDCHAR
STARTCHAR 255c
ENCODING 9564
SWIDTH 960 0
DWIDTH 12 0
BBX 15 12 -1 -2
BITMAP
0180
01b4
01b8
3ff0
0300
1b40
1ac0
3660
6660
cc00
1c00
0000
ENDCHAR
STARTCHAR 255d
ENCODING 9565
SWIDTH 960 0
DWIDTH 12 0
BBX 15 12 -1 -2
BITMAP
0180
019c
01b6
3fd8
0300
1b40
1ac0
3660
6660
cc00
1c00
0000
ENDCHAR
STARTCHAR 255e
ENCODING 9566
SWIDTH 960 0
DWIDTH 12 0
BBX 15 12 -1 -2
BITMAP
0000
0000
0ffc
0018
0030
00e0
1d80
0700
0180
0180
0000
0000
ENDCHAR
STARTCHAR 255f
ENCODING 9567
SWIDTH 960 0
DWIDTH 12 0
BBX 15 12 -1 -2
BITMAP
0000
03c0
0060
0030
0000
0700
0180
0000
1e00
0300
01c0
0000
ENDCHAR
STARTCHAR 2560
ENCODING 9568
SWIDTH 960 0
DWIDTH 12 0
BBX 15 12 -1 -2
BITMAP
0000
00c0
0180
0180
0300
06c0
06c0
0c60
3be0
6c60
0060
0000
ENDCHAR
STARTCHAR 2561
ENCODING 9569
SWIDTH 960 0
DWIDTH 12 0
BBX 15 12 -1 -2
BITMAP
0000
000c
000c
0018
0398
00f0
0060
00d0
0398
0e00
3800
0000
ENDCHAR
STARTCHAR 2562
ENCODING 9570
SWIDTH 960 0
DWIDTH 12 0
BBX 15 12 -1 -2
BITMAP
0000
0000
07f8
0300
0300
1ffc
0600
0600
0600
03e0
0000
0000
ENDCHAR
STARTCHAR 2563
ENCODING 9571
SWIDTH 960 0
DWIDTH 12 0
BBX 15 12 -1 -2
BITMAP
0000
0000
0000
0000
0300
0300
06f0
1f60
0340
0600
0600
0000
ENDCHAR
STARTCHAR 2564
ENCODING 9572
SWIDTH 960 0
DWIDTH 12 0
BBX 15 12 -1 -2
BITMAP
0000
0300
0300
067c
07d8
3e70
06c0
0600
0600
0600
0600
0000
ENDCHAR
STARTCHAR 2565
ENCODING 9573
SWIDTH 960 0
DWIDTH 12 0
BBX 15 12 -1 -2
BITMAP
0000
0000
0000
0000
0000
0000
0f80
0180
0180
3fc0
0000
0000
ENDCHAR
STARTCHAR 2566
ENCODING 9574
SWIDTH 960 0
DWIDTH 12 0
BBX 15 12 -1 -2
BITMAP
0000
0000
0000
0ff0
0030
0060
0060
00c0
00c0
7ff0
0000
0000
ENDCHAR
STARTCHAR 2567
ENCODING 9575
SWIDTH 960 0
DWIDTH 12 0
BBX 15 12 -1 -2
BITMAP
0000
0000
0000
0000
0000
0fe0
00c0
0fc0
00c0
0180
3f80
0000
ENDCHAR
STARTCHAR 2568
ENCODING 9576
SWIDTH 960 0
DWIDTH 12 0
BBX 15 12 -1 -2
BITMAP
0000
0000
0ffc
0018
0018
0ff8
0030
0030
0030
7fe0
0060
0000
ENDCHAR
STARTCHAR 2569
ENCODING 9577
SWIDTH 960 0
DWIDTH 12 0
BBX 15 12 -1 -2
BITMAP
0000
07f8
0000
0000
1ff8
0018
0030
0060
01c0
0700
3c00
0000
ENDCHAR
STARTCHAR 256a
ENCODING 9578
SWIDTH 960 0
DWIDTH 12 0
BBX 15 12 -1 -2
BITMAP
0000
0318
0318
0630
0630
0660
0c60
00c0
0180
0300
0e00
0000
ENDCHAR
STARTCHAR 256b
ENCODING 9579
SWIDTH 960 0
DWIDTH 12 0
BBX 15 12 -1 -2
BITMAP
0000
0060
0360
06c0
06c0
06cc
0d98
0db0
19e0
3380
6000
0000
ENDCHAR
STARTCHAR 256c
ENCODING 9580
SWIDTH 960 0
DWIDTH 12 0
BBX 15 12 -1 -2
BITMAP
0000
0600
0600
0c00
0c00
0c00
1860
18c0
1b80
3600
3800
0000
ENDCHAR
STARTCHAR 256d
ENCODING 9581
SWIDTH 960 0
DWIDTH 12 0
BBX 15 12 -1 -2
BITMAP
0000
0000
07fc
0c18
0c18
0c18
1830
1830
1ff0
3060
0000
0000
ENDCHAR
STARTCHAR 256e
ENCODING 9582
SWIDTH 960 0
DWIDTH 12 0
BBX 15 12 -1 -2
BITMAP
0000
0000
0000
0000
0000
0fe0
18c0
18c0
0180
0700
1c00
0000
ENDCHAR
STARTCHAR 256f
ENCODING 9583
SWIDTH 960 0
DWIDTH 12 0
BBX 15 12 -1 -2
BITMAP
0000
0000
07fc
0c18
0c18
0c30
0030
0060
01c0
0700
1c00
0000
ENDCHAR
STARTCHAR 2570
ENCODING 9584
SWIDTH 960 0
DWIDTH 12 0
BBX 15 12 -1 -2
BITMAP
0030
0030
0030
1ff8
0660
0660
0cc0
3ff8
00c0
0180
0180
0000
ENDCHAR
STARTCHAR 2571
ENCODING 9585
SWIDTH 960 0
DWIDTH 12 0
BBX 15 12 -1 -2
BITMAP
0000
0000
07f8
0030
01a0
01c0
0300
0300
0300
7fe0
0000
0000
ENDCHAR
STARTCHAR 2572
ENCODING 9586
SWIDTH 960 0
DWIDTH 12 0
BBX 15 12 -1 -2
BITMAP
0000
0000
07fc
0018
0018
07f8
0060
0060
01c0
0700
3c00
0000
ENDCHAR
STARTCHAR 2573
ENCODING 9587
SWIDTH 960 0
DWIDTH 12 0
BBX 15 12 -1 -2
BITMAP
0000
0000
0c00
0618
0018
0030
0060
00c0
0380
0e00
7800
0000
ENDCHAR
STARTCHAR 2574
ENCODING 9588
SWIDTH 960 0
DWIDTH 12 0
BBX 15 12 -1 -2
BITMAP
00da
00da
00c0
1ff8
1818
1830
0030
0060
01c0
0700
1c00
0000
ENDCHAR
STARTCHAR 2575
ENCODING 9589
SWIDTH 960 0
DWIDTH 12 0
BBX 15 12 -1 -2
BITMAP
0000
0000
0000
0000
0300
0300
1fc0
06c0
0cc0
1980
3700
0000
ENDCHAR
STARTCHAR 2576
ENCODING 9590
SWIDTH 960 0
DWIDTH 12 0
BBX 15 12 -1 -2
BITMAP
0000
0000
0000
0000
0300
0300
07e0
1d80
0300
0600
1c00
0000
ENDCHAR
STARTCHAR 2621
ENCODING 9761
SWIDTH 960 0
DWIDTH 12 0
BBX 15 12 -1 -2
BITMAP
0000
00c0
00c0
01c0
0340
06c0
0cc0
0fc0
18c0
30c0
79e0
0000
ENDCHAR
STARTCHAR 2622
ENCODING 9762
SWIDTH 960 0
DWIDTH 12 0
BBX 15 12 -1 -2
BITMAP
0000
07e0
0330
0630
0660
0780
0cc0
0c60
0cc0
1980
3f00
0000
ENDCHAR
STARTCHAR 2623
ENCODING 9763
SWIDTH 960 0
DWIDTH 12 0
BBX 15 12 -1 -2
BITMAP
0000
07f0
0330
0630
0600
0600
0c00
0c00
0c00
1800
3c00
0000
ENDCHAR
STARTCHAR 2624
ENCODING 9764
SWIDTH 960 0
DWIDTH 12 0
BBX 15 12 -1 -2
BITMAP
0000
00c0
00c0
0180
0340
06c0
06c0
0cc0
18c0
30c0
7fe0
0000
ENDCHAR
STARTCHAR 2625
ENCODING 9765
SWIDTH 960 0
DWIDTH 12 0
BBX 15 12 -1 -2
BITMAP
0000
07f8
030c
0600
0660
07e0
0cc0
0c00
0c30
1860
3fc0
0000
ENDCHAR
STARTCHAR 2626
ENCODING 9766
SWIDTH 960 0
DWIDTH 12 0
BBX 15 12 -1 -2
BITMAP
0000
07fc
0c38
1860
00c0
0180
0300
0600
1c30
3060
7fe0
0000
ENDCHAR
STARTCHAR 2627
ENCODING 9767
SWIDTH 960 0
DWIDTH 12 0
BBX 15 12 -1 -2
BITMAP
0000
0f3c
0618
0c30
0c30
0ff0
1860
1860
1860
30c0
79e0
0000
ENDCHAR
STARTCHAR 2628
ENCODING 9768
SWIDTH 960 0
DWIDTH 12 0
BBX 15 12 -1 -2
BITMAP
0000
01e0
0730
0c30
1a68
1be8
34d0
3030
18e0
1980
0f00
0000
ENDCHAR
STARTCHAR 2629
ENCODING 9769
SWIDTH 960 0
DWIDTH 12 0
BBX 15 12 -1 -2
BITMAP
0000
01e0
00c0
0180
0180
0180
0300
0300
0300
0600
0f00
0000
ENDCHAR
STARTCHAR 262a
ENCODING 9770
SWIDTH 960 0
DWIDTH 12 0
BBX 15 12 -1 -2
BITMAP
0000
07b8
0370
06c0
0680
0700
0d00
0d80
0cc0
18c0
3de0
0000
ENDCHAR
STARTCHAR 262b
ENCODING 9771
SWIDTH 960 0
DWIDTH 12 0
BBX 15 12 -1 -2
BITMAP
0000
00c0
00c0
01c0
0340
06c0
0cc0
0cc0
18c0
30c0
79e0
0000
ENDCHAR
STARTCHAR 262c
ENCODING 9772
SWIDTH 960 0
DWIDTH 12 0
BBX 15 12 -1 -2
BITMAP
0000
1c0e
0c0c
1c38
1c38
1c68
34d0
36b0
3730
6360
f6f0
0000
ENDCHAR
STARTCHAR 262d
ENCODING 9773
SWIDTH 960 0
DWIDTH 12 0
BBX 15 12 -1 -2
BITMAP
0000
073c
0398
06b0
06b0
06b0
0da0
0ce0
0ce0
18c0
3cc0
0000
ENDCHAR
STARTCHAR 262e
ENCODING 9774
SWIDTH 960 0
DWIDTH 12 0
BBX 15 12 -1 -2
BITMAP
0000
07fc
060c
0000
0630
07f0
0c60
0000
0000
3060
3fe0
0000
ENDCHAR
STARTCHAR 262f
ENCODING 9775
SWIDTH 960 0
DWIDTH 12 0
BBX 15 12 -1 -2
BITMAP
0000
01e0
0730
0c30
1818
1818
3030
3030
1860
19c0
0f00
0000
ENDCHAR
STARTCHAR 2630
ENCODING 9776
SWIDTH 960 0
DWIDTH 12 0
BBX 15 12 -1 -2
BITMAP
0000
0ffc
0618
0c30
0c30
0c30
1860
1860
1860
30c0
79e0
0000
ENDCHAR
STARTCHAR 2631
ENCODING 9777
SWIDTH 960 0
DWIDTH 12 0
BBX 15 12 -1 -2
BITMAP
0000
07e0
0330
0630
0630
06e0
0f80
0c00
0c00
1800
3c00
0000
ENDCHAR
STARTCHAR 2632
ENCODING 9778
SWIDTH 960 0
DWIDTH 12 0
BBX 15 12 -1 -2
BITMAP
0000
0ff0
0630
0630
0300
0300
0300
0600
1c30
3060
7fc0
0000
ENDCHAR
STARTCHAR 2633
ENCODING 9779
SWIDTH 960 0
DWIDTH 12 0
BBX 15 12 -1 -2
BITMAP
0000
0ffc
0ccc
1998
0180
0180
0300
0300
0300
0600
0f00
0000
ENDCHAR
STARTCHAR 2634
ENCODING 9780
SWIDTH 960 0
DWIDTH 12 0
BBX 15 12 -1 -2
BITMAP
0000
0778
0d98
1998
0180
0180
0300
0300
0300
0600
0f00
0000
ENDCHAR
STARTCHAR 2635
ENCODING 9781
SWIDTH 960 0
DWIDTH 12 0
BBX 15 12 -1 -2
BITMAP
0000
01e0
00c0
07e0
0db0
0db0
0d60
07c0
0300
0600
0f00
0000
ENDCHAR
STARTCHAR 2636
ENCODING 9782
SWIDTH 960 0
DWIDTH 12 0
BBX 15 12 -1 -2
BITMAP
0000
0f3c
0638
0660
0340
0380
0300
0680
1cc0
30c0
79e0
0000
ENDCHAR
STARTCHAR 2637
ENCODING 9783
SWIDTH 960 0
DWIDTH 12 0
BBX 15 12 -1 -2
BITMAP
0000
01e0
0ccc
0d98
0db0
0da0
0d40
0780
0300
0600
0f00
0000
ENDCHAR
STARTCHAR 2638
ENCODING 9784
SWIDTH 960 0
DWIDTH 12 0
BBX 15 12 -1 -2
BITMAP
0000
01e0
0330
0630
0c30
0c30
0c60
0cc0
35b0
6d60
7de0
0000
ENDCHAR
STARTCHAR 2641
ENCODING 9793
SWIDTH 960 0
DWIDTH 12 0
BBX 15 12 -1 -2
BITMAP
0000
0000
0000
0000
03b0
06a0
0dc0
1980
1b00
1b00
0dc0
0000
ENDCHAR
STARTCHAR 2642
ENCODING 9794
SWIDTH 960 0
DWIDTH 12 0
BBX 15 12 -1 -2
BITMAP
0000
0060
00d0
01b0
0360
06c0
06c0
0cc0
1d80
3700
6000
6000
ENDCHAR
STARTCHAR 2643
ENCODING 9795
SWIDTH 960 0
DWIDTH 12 0
BBX 15 12 -1 -2
BITMAP
0000
0000
0000
0738
0da0
00c0
0180
0300
0600
0c00
1800
0000
ENDCHAR
STARTCHAR 2644
ENCODING 9796
SWIDTH 960 0
DWIDTH 12 0
BBX 15 12 -1 -2
BITMAP
0000
00e0
01b8
0180
00c0
03c0
06c0
0cc0
1980
1b00
0e00
0000
ENDCHAR
STARTCHAR 2645
ENCODING 9797
SWIDTH 960 0
DWIDTH 12 0
BBX 15 12 -1 -2
BITMAP
0000
0000
0000
03c0
0660
0600
0700
0c00
19c0
1b00
0e00
0000
ENDCHAR
STARTCHAR 2646
ENCODING 9798
SWIDTH 960 0
DWIDTH 12 0
BBX 15 12 -1 -2
BITMAP
0000
0180
01b8
01e0
0180
0300
0600
0c00
0c00
0600
3300
1e00
ENDCHAR
STARTCHAR 2647
ENCODING 9799
SWIDTH 960 0
DWIDTH 12 0
BBX 15 12 -1 -2
BITMAP
0000
0000
0000
0000
06c0
0ea0
0660
0cc0
1980
3180
0300
0300
ENDCHAR
STARTCHAR 2648
ENCODING 9800
SWIDTH 960 0
DWIDTH 12 0
BBX 15 12 -1 -2
BITMAP
0000
0060
01d0
0330
0630
07f0
0cc0
18c0
1980
1b00
0c00
0000
ENDCHAR
STARTCHAR 2649
ENCODING 9801
SWIDTH 960 0
DWIDTH 12 0
BBX 15 12 -1 -2
BITMAP
0000
0000
0000
00c0
0180
0300
0600
0c00
0ce0
0d80
0600
0000
ENDCHAR
STARTCHAR 264a
ENCODING 9802
SWIDTH 960 0
DWIDTH 12 0
BBX 15 12 -1 -2
BITMAP
0000
0000
0000
0630
0360
03c0
0700
0d00
1b60
3340
6180
0000
ENDCHAR
STARTCHAR 264b
ENCODING 9803
SWIDTH 960 0
DWIDTH 12 0
BBX 15 12 -1 -2
BITMAP
0000
0000
0180
00c0
00c0
00c0
0380
0680
0d80
1980
30e0
0000
ENDCHAR
STARTCHAR 264c
ENCODING 9804
SWIDTH 960 0
DWIDTH 12 0
BBX 15 12 -1 -2
BITMAP
0000
0000
0000
0330
0330
0660
0c60
18c0
35c0
36e0
6000
6000
ENDCHAR
STARTCHAR 264d
ENCODING 9805
SWIDTH 960 0
DWIDTH 12 0
BBX 15 12 -1 -2
BITMAP
0000
0000
0000
0000
0630
0660
0660
0cc0
0d80
1a00
3c00
0000
ENDCHAR
STARTCHAR 264e
ENCODING 9806
SWIDTH 960 0
DWIDTH 12 0
BBX 15 12 -1 -2
BITMAP
0000
00c0
00f8
0180
0300
03c0
0600
0c00
0700
0180
1980
0f00
ENDCHAR
STARTCHAR 264f
ENCODING 9807
SWIDTH 960 0
DWIDTH 12 0
BBX 15 12 -1 -2
BITMAP
0000
0000
0000
0000
0380
06c0
0cc0
18c0
1980
1b00
0e00
0000
ENDCHAR
STARTCHAR 2650
ENCODING 9808
SWIDTH 960 0
DWIDTH 12 0
BBX 15 12 -1 -2
BITMAP
0000
0000
0000
0018
07f0
0e60
06c0
0d80
1b00
3340
6180
0000
ENDCHAR
STARTCHAR 2651
ENCODING 9809
SWIDTH 960 0
DWIDTH 12 0
BBX 15 12 -1 -2
BITMAP
0000
0000
0000
01e0
0330
0630
0c60
0ec0
1b80
1800
3000
3000
ENDCHAR
STARTCHAR 2652
ENCODING 9810
SWIDTH 960 0
DWIDTH 12 0
BBX 15 12 -1 -2
BITMAP
0000
0000
0000
0018
01f0
0740
0cc0
18c0
1980
1b00
0e00
0000
ENDCHAR
STARTCHAR 2653
ENCODING 9811
SWIDTH 960 0
DWIDTH 12 0
BBX 15 12 -1 -2
BITMAP
0000
0000
0038
07e0
0d80
0300
0300
0600
0c00
0d00
0600
0000
ENDCHAR
STARTCHAR 2654
ENCODING 9812
SWIDTH 960 0
DWIDTH 12 0
BBX 15 12 -1 -2
BITMAP
0000
0000
0000
0000
0c60
1c60
0c60
0cc0
1980
1b00
0c00
0000
ENDCHAR
STARTCHAR 2655
ENCODING 9813
SWIDTH 960 0
DWIDTH 12 0
BBX 15 12 -1 -2
BITMAP
0000
0030
0060
00c0
03e0
06b0
0db0
1b30
1b60
0fc0
0c00
0c00
ENDCHAR
STARTCHAR 2656
ENCODING 9814
SWIDTH 960 0
DWIDTH 12 0
BBX 15 12 -1 -2
BITMAP
0000
0000
0018
0630
0d60
0dc0
0300
0700
0d00
1b40
3180
0000
ENDCHAR
STARTCHAR 2657
ENCODING 9815
SWIDTH 960 0
DWIDTH 12 0
BBX 15 12 -1 -2
BITMAP
0000
0030
0030
0c70
06d8
0cd8
0db0
1b60
0fc0
0c00
0c00
0c00
ENDCHAR
STARTCHAR 2658
ENCODING 9816
SWIDTH 960 0
DWIDTH 12 0
BBX 15 12 -1 -2
BITMAP
0000
0000
0000
0000
0630
0c30
1830
3330
3360
3540
1b80
0000
ENDCHAR
STARTCHAR 2721
ENCODING 10017
SWIDTH 960 0
DWIDTH 12 0
BBX 15 12 -1 -2
BITMAP
0000
00c0
00c0
01c0
0340
06c0
0cc0
0fc0
18c0
30c0
79e0
0000
ENDCHAR
STARTCHAR 2722
ENCODING 10018
SWIDTH 960 0
DWIDTH 12 0
BBX 15 12 -1 -2
BITMAP
0000
07f8
0318
0600
0600
0780
0cc0
0c60
0cc0
1980
3f00
0000
ENDCHAR
STARTCHAR 2723
ENCODING 10019
SWIDTH 960 0
DWIDTH 12 0
BBX 15 12 -1 -2
BITMAP
0000
07e0
0330
0630
0660
0780
0cc0
0c60
0cc0
1980
3f00
0000
ENDCHAR
STARTCHAR 2724
ENCODING 10020
SWIDTH 960 0
DWIDTH 12 0
BBX 15 12 -1 -2
BITMAP
0000
07f0
0330
0630
0600
0600
0c00
0c00
0c00
1800
3c00
0000
ENDCHAR
STARTCHAR 2725
ENCODING 10021
SWIDTH 960 0
DWIDTH 12 0
BBX 15 12 -1 -2
BITMAP
0000
03fc
01b0
0360
0360
0660
06c0
0cc0
18c0
3180
7fe0
6060
ENDCHAR
STARTCHAR 2726
ENCODING 10022
SWIDTH 960 0
DWIDTH 12 0
BBX 15 12 -1 -2
BITMAP
0000
07f8
030c
0600
0660
07e0
0cc0
0c00
0c30
1860
3fc0
0000
ENDCHAR
STARTCHAR 2727
ENCODING 10023
SWIDTH 960 0
DWIDTH 12 0
BBX 15 12 -1 -2
BITMAP
03b8
0000
07f0
0618
0600
0660
0fc0
0cc0
0c30
1860
3fc0
0000
ENDCHAR
STARTCHAR 2728
ENCODING 10024
SWIDTH 960 0
DWIDTH 12 0
BBX 15 12 -1 -2
BITMAP
0000
0dec
0cd8
0db0
06a0
07c0
0d40
1b40
1b40
36c0
7760
0000
ENDCHAR
STARTCHAR 2729
ENCODING 10025
SWIDTH 960 0
DWIDTH 12 0
BBX 15 12 -1 -2
BITMAP
0000
01c0
0760
0c60
0060
0180
00c0
0060
18c0
3980
3700
0000
ENDCHAR
STARTCHAR 272a
ENCODING 10026
SWIDTH 960 0
DWIDTH 12 0
BBX 15 12 -1 -2
BITMAP
0000
079c
0338
0670
06d0
06b0
0d60
0e60
0e60
18c0
3de0
0000
ENDCHAR
STARTCHAR 272b
ENCODING 10027
SWIDTH 960 0
DWIDTH 12 0
BBX 15 12 -1 -2
BITMAP
01b0
00e0
079c
0670
06d0
06b0
0d60
0e60
0e60
18c0
3de0
0000
ENDCHAR
STARTCHAR 272c
ENCODING 10028
SWIDTH 960 0
DWIDTH 12 0
BBX 15 12 -1 -2
BITMAP
0000
0798
0374
06c0
0680
0700
0d00
0d80
0cc0
18c0
3de0
0000
ENDCHAR
STARTCHAR 272d
ENCODING 10029
SWIDTH 960 0
DWIDTH 12 0
BBX 15 12 -1 -2
BITMAP
0000
03fc
00d8
01b0
01b0
0330
0360
0660
0c60
68c0
31e0
0000
ENDCHAR
STARTCHAR 272e
ENCODING 10030
SWIDTH 960 0
DWIDTH 12 0
BBX 15 12 -1 -2
BITMAP
0000
0e1c
0618
0e70
0e70
1ad0
1ab0
3330
3330
6660
f0f0
0000
ENDCHAR
STARTCHAR 272f
ENCODING 10031
SWIDTH 960 0
DWIDTH 12 0
BBX 15 12 -1 -2
BITMAP
0000
0f3c
0618
0c30
0c30
0ff0
1860
1860
1860
30c0
79e0
0000
ENDCHAR
STARTCHAR 2730
ENCODING 10032
SWIDTH 960 0
DWIDTH 12 0
BBX 15 12 -1 -2
BITMAP
0000
01e0
0730
0c30
1818
1818
3030
3030
1860
19c0
0f00
0000
ENDCHAR
STARTCHAR 2731
ENCODING 10033
SWIDTH 960 0
DWIDTH 12 0
BBX 15 12 -1 -2
BITMAP
0000
0ff8
0630
0c60
0c60
0c60
18c0
18c0
18c0
3180
7bc0
0000
ENDCHAR
STARTCHAR 2732
ENCODING 10034
SWIDTH 960 0
DWIDTH 12 0
BBX 15 12 -1 -2
BITMAP
0000
07e0
0330
0630
0630
06e0
0f80
0c00
0c00
1800
3c00
0000
ENDCHAR
STARTCHAR 2733
ENCODING 10035
SWIDTH 960 0
DWIDTH 12 0
BBX 15 12 -1 -2
BITMAP
0000
00f4
039c
0618
0c00
0c00
1800
1800
0c70
0cc0
0780
0000
ENDCHAR
STARTCHAR 2734
ENCODING 10036
SWIDTH 960 0
DWIDTH 12 0
BBX 15 12 -1 -2
BITMAP
0000
0ffc
0ccc
1998
0180
0180
0300
0300
0300
0600
0f00
0000
ENDCHAR
STARTCHAR 2735
ENCODING 10037
SWIDTH 960 0
DWIDTH 12 0
BBX 15 12 -1 -2
BITMAP
0000
0f3c
0618
0630
0660
06c0
0680
0300
0300
3600
1c00
0000
ENDCHAR
STARTCHAR 2736
ENCODING 10038
SWIDTH 960 0
DWIDTH 12 0
BBX 15 12 -1 -2
BITMAP
0000
01e0
00c0
07e0
0db0
19b0
1b30
1b60
0fc0
0600
0f00
0000
ENDCHAR
STARTCHAR 2737
ENCODING 10039
SWIDTH 960 0
DWIDTH 12 0
BBX 15 12 -1 -2
BITMAP
0000
0f3c
0638
0660
0340
0380
0300
0680
1cc0
30c0
79e0
0000
ENDCHAR
STARTCHAR 2738
ENCODING 10040
SWIDTH 960 0
DWIDTH 12 0
BBX 15 12 -1 -2
BITMAP
0000
0f78
0630
0c60
0c60
0c60
18c0
18c0
18c0
3180
7fe0
0060
ENDCHAR
STARTCHAR 2739
ENCODING 10041
SWIDTH 960 0
DWIDTH 12 0
BBX 15 12 -1 -2
BITMAP
0000
0f78
0630
0c60
0c60
0c60
0dc0
0740
00c0
0180
03c0
0000
ENDCHAR
STARTCHAR 273a
ENCODING 10042
SWIDTH 960 0
DWIDTH 12 0
BBX 15 12 -1 -2
BITMAP
0000
1eee
0ccc
1998
1998
1998
3330
3330
3330
6660
fff0
0000
ENDCHAR
STARTCHAR 273b
ENCODING 10043
SWIDTH 960 0
DWIDTH 12 0
BBX 15 12 -1 -2
BITMAP
0000
1eee
0ccc
1998
1998
1998
3330
3330
3330
6660
fff8
0018
ENDCHAR
STARTCHAR 273c
ENCODING 10044
SWIDTH 960 0
DWIDTH 12 0
BBX 15 12 -1 -2
BITMAP
0000
0780
0d80
0300
0300
03c0
0660
0630
0660
0cc0
1f80
0000
ENDCHAR
STARTCHAR 273d
ENCODING 10045
SWIDTH 960 0
DWIDTH 12 0
BBX 15 12 -1 -2
BITMAP
0000
0e3c
0618
0c30
0c30
0e30
1b60
19a0
1b60
36c0
7de0
0000
ENDCHAR
STARTCHAR 273e
ENCODING 10046
SWIDTH 960 0
DWIDTH 12 0
BBX 15 12 -1 -2
BITMAP
0000
0700
0300
0600
07c0
0660
0c60
0c60
0cc0
1980
1f00
0000
ENDCHAR
STARTCHAR 273f
ENCODING 10047
SWIDTH 960 0
DWIDTH 12 0
BBX 15 12 -1 -2
BITMAP
0000
06e0
0730
0c30
0030
07b0
0ce0
0060
18c0
1980
0f00
0000
ENDCHAR
STARTCHAR 2740
ENCODING 10048
SWIDTH 960 0
DWIDTH 12 0
BBX 15 12 -1 -2
BITMAP
0000
1e70
0cd8
1998
1b18
1f18
3630
3630
3660
66c0
f380
0000
ENDCHAR
STARTCHAR 2741
ENCODING 10049
SWIDTH 960 0
DWIDTH 12 0
BBX 15 12 -1 -2
BITMAP
0000
01fc
0718
0c30
0630
03f0
01a0
0360
0660
0cc0
79e0
0000
ENDCHAR
STARTCHAR 2751
ENCODING 10065
SWIDTH 960 0
DWIDTH 12 0
BBX 15 12 -1 -2
BITMAP
0000
0000
0000
0000
01c0
0360
03c0
06c0
0d80
0d00
06c0
0000
ENDCHAR
STARTCHAR 2752
ENCODING 10066
SWIDTH 960 0
DWIDTH 12 0
BBX 15 12 -1 -2
BITMAP
0000
0070
03c0
0600
0c00
0f00
1d80
18c0
1980
1b00
0e00
0000
ENDCHAR
STARTCHAR 2753
ENCODING 10067
SWIDTH 960 0
DWIDTH 12 0
BBX 15 12 -1 -2
BITMAP
0000
0000
0000
0000
0f80
06c0
0cc0
0f00
0d80
1980
3f00
0000
ENDCHAR
STARTCHAR 2754
ENCODING 10068
SWIDTH 960 0
DWIDTH 12 0
BBX 15 12 -1 -2
BITMAP
0000
0000
0000
0000
0fc0
0660
0c00
0c00
0c00
1800
3c00
0000
ENDCHAR
STARTCHAR 2755
ENCODING 10069
SWIDTH 960 0
DWIDTH 12 0
BBX 15 12 -1 -2
BITMAP
0000
0000
0000
0000
07f0
0360
06c0
06c0
0cc0
1980
7fc0
60c0
ENDCHAR
STARTCHAR 2756
ENCODING 10070
SWIDTH 960 0
DWIDTH 12 0
BBX 15 12 -1 -2
BITMAP
0000
0000
0000
0000
0380
06c0
0cc0
1fc0
1800
1980
0f00
0000
ENDCHAR
STARTCHAR 2757
ENCODING 10071
SWIDTH 960 0
DWIDTH 12 0
BBX 15 12 -1 -2
BITMAP
0000
0000
0360
0000
0380
06c0
0cc0
1fc0
1800
1980
0f00
0000
ENDCHAR
STARTCHAR 2758
ENCODING 10072
SWIDTH 960 0
DWIDTH 12 0
BBX 15 12 -1 -2
BITMAP
0000
0000
0000
0000
1bd8
0de0
0d40
0780
0d40
1ac0
7760
0000
ENDCHAR
STARTCHAR 2759
ENCODING 10073
SWIDTH 960 0
DWIDTH 12 0
BBX 15 12 -1 -2
BITMAP
0000
0000
0000
0000
01c0
0760
0060
0380
00c0
18c0
0f80
0000
ENDCHAR
STARTCHAR 275a
ENCODING 10074
SWIDTH 960 0
DWIDTH 12 0
BBX 15 12 -1 -2
BITMAP
0000
0000
0000
0000
0f78
06f0
0da0
0d60
0e60
18c0
3de0
0000
ENDCHAR
STARTCHAR 275b
ENCODING 10075
SWIDTH 960 0
DWIDTH 12 0
BBX 15 12 -1 -2
BITMAP
0000
01b0
00e0
0000
0f78
06f0
0da0
0d60
0e60
18c0
3de0
0000
ENDCHAR
STARTCHAR 275c
ENCODING 10076
SWIDTH 960 0
DWIDTH 12 0
BBX 15 12 -1 -2
BITMAP
0000
0000
0000
0000
0f60
06d0
0d00
0e00
0d00
1b00
3dc0
0000
ENDCHAR
STARTCHAR 275d
ENCODING 10077
SWIDTH 960 0
DWIDTH 12 0
BBX 15 12 -1 -2
BITMAP
0000
0000
0000
0000
07e0
0340
0680
0680
0d80
6b00
3780
0000
ENDCHAR
STARTCHAR 275e
ENCODING 10078
SWIDTH 960 0
DWIDTH 12 0
BBX 15 12 -1 -2
BITMAP
0000
0000
0000
0000
1c38
0e70
1ce0
1aa0
1b60
3340
7ae0
0000
ENDCHAR
STARTCHAR 275f
ENCODING 10079
SWIDTH 960 0
DWIDTH 12 0
BBX 15 12 -1 -2
BITMAP
0000
0000
0000
0000
0f70
0660
0cc0
0fc0
0cc0
1980
3dc0
0000
ENDCHAR
STARTCHAR 2760
ENCODING 10080
SWIDTH 960 0
DWIDTH 12 0
BBX 15 12 -1 -2
BITMAP
0000
0000
0000
0000
03c0
0660
0c60
1860
18c0
1980
0f00
0000
ENDCHAR
STARTCHAR 2761
ENCODING 10081
SWIDTH 960 0
DWIDTH 12 0
BBX 15 12 -1 -2
BITMAP
0000
0000
0000
0000
0ff0
0660
0cc0
0cc0
0cc0
1980
3dc0
0000
ENDCHAR
STARTCHAR 2762
ENCODING 10082
SWIDTH 960 0
DWIDTH 12 0
BBX 15 12 -1 -2
BITMAP
0000
0000
0000
0000
0ec0
0760
0c60
0c60
0ec0
1b00
1800
3c00
ENDCHAR
STARTCHAR 2763
ENCODING 10083
SWIDTH 960 0
DWIDTH 12 0
BBX 15 12 -1 -2
BITMAP
0000
0000
0000
0000
03c0
0660
0c00
1800
1800
1980
0f00
0000
ENDCHAR
STARTCHAR 2764
ENCODING 10084
SWIDTH 960 0
DWIDTH 12 0
BBX 15 12 -1 -2
BITMAP
0000
0000
0000
0000
0ff0
0db0
0300
0300
0300
0600
0f00
0000
ENDCHAR
STARTCHAR 2765
ENCODING 10085
SWIDTH 960 0
DWIDTH 12 0
BBX 15 12 -1 -2
BITMAP
0000
0000
0000
0f78
0630
0360
0360
01c0
0300
0300
3600
1c00
ENDCHAR
STARTCHAR 2766
ENCODING 10086
SWIDTH 960 0
DWIDTH 12 0
BBX 15 12 -1 -2
BITMAP
0000
01e0
00c0
06a0
0dd0
19b0
3330
3330
1ba0
1ec0
0600
0f00
ENDCHAR
STARTCHAR 2767
ENCODING 10087
SWIDTH 960 0
DWIDTH 12 0
BBX 15 12 -1 -2
BITMAP
0000
0000
0000
0000
0f70
06e0
0680
0300
0e80
1980
3dc0
0000
ENDCHAR
STARTCHAR 2768
ENCODING 10088
SWIDTH 960 0
DWIDTH 12 0
BBX 15 12 -1 -2
BITMAP
0000
0000
0000
0000
0f70
0660
0cc0
0cc0
0cc0
1980
3fc0
00c0
ENDCHAR
STARTCHAR 2769
ENCODING 10089
SWIDTH 960 0
DWIDTH 12 0
BBX 15 12 -1 -2
BITMAP
0000
0000
0000
0000
0f70
0660
06c0
03c0
00c0
0180
03c0
0000
ENDCHAR
STARTCHAR 276a
ENCODING 10090
SWIDTH 960 0
DWIDTH 12 0
BBX 15 12 -1 -2
BITMAP
0000
0000
0000
0000
0db0
0db0
1b60
1b60
1b60
36c0
3fc0
0000
ENDCHAR
STARTCHAR 276b
ENCODING 10091
SWIDTH 960 0
DWIDTH 12 0
BBX 15 12 -1 -2
BITMAP
0000
0000
0000
0000
1b60
1b60
36c0
36c0
36c0
6d80
7fe0
0060
ENDCHAR
STARTCHAR 276c
ENCODING 10092
SWIDTH 960 0
DWIDTH 12 0
BBX 15 12 -1 -2
BITMAP
0000
0000
0000
0000
0e00
1a00
0f80
0cc0
0cc0
1980
3f00
0000
ENDCHAR
STARTCHAR 276d
ENCODING 10093
SWIDTH 960 0
DWIDTH 12 0
BBX 15 12 -1 -2
BITMAP
0000
0000
0000
0000
1ef0
0c60
18c0
1cc0
1ac0
3680
7dc0
0000
ENDCHAR
STARTCHAR 276e
ENCODING 10094
SWIDTH 960 0
DWIDTH 12 0
BBX 15 12 -1 -2
BITMAP
0000
0000
0000
0000
0f00
0600
0f80
0cc0
0cc0
1980
3f00
0000
ENDCHAR
STARTCHAR 276f
ENCODING 10095
SWIDTH 960 0
DWIDTH 12 0
BBX 15 12 -1 -2
BITMAP
0000
0000
0000
0000
07c0
0c60
06c0
0d40
00c0
3180
1f00
0000
ENDCHAR
STARTCHAR 2770
ENCODING 10096
SWIDTH 960 0
DWIDTH 12 0
BBX 15 12 -1 -2
BITMAP
0000
0000
0000
0000
1ee0
0db0
1b30
1e30
1a60
36c0
7b80
0000
ENDCHAR
STARTCHAR 2771
ENCODING 10097
SWIDTH 960 0
DWIDTH 12 0
BBX 15 12 -1 -2
BITMAP
0000
0000
0000
0000
03f0
0660
06c0
07c0
0cc0
1980
3dc0
0000
ENDCHAR
STARTCHAR 2821
ENCODING 10273
SWIDTH 960 0
DWIDTH 12 0
BBX 15 12 -1 -2
BITMAP
0000
0000
0000
0000
0000
3ffe
0000
0000
0000
0000
0000
0000
ENDCHAR
STARTCHAR 2822
ENCODING 10274
SWIDTH 960 0
DWIDTH 12 0
BBX 15 12 -1 -2
BITMAP
00c0
00c0
00c0
0180
0180
0180
0300
0300
0300
0600
0600
0600
ENDCHAR
STARTCHAR 2823
ENCODING 10275
SWIDTH 960 0
DWIDTH 12 0
BBX 15 12 -1 -2
BITMAP
0000
0000
0000
0000
0000
01fe
0300
0300
0300
0600
0600
0600
ENDCHAR
STARTCHAR 2824
ENCODING 10276
SWIDTH 960 0
DWIDTH 12 0
BBX 15 12 -1 -2
BITMAP
0000
0000
0000
0000
0000
3f80
0300
0300
0300
0600
0600
0600
ENDCHAR
STARTCHAR 2825
ENCODING 10277
SWIDTH 960 0
DWIDTH 12 0
BBX 15 12 -1 -2
BITMAP
00c0
00c0
00c0
0180
0180
3f80
0000
0000
0000
0000
0000
0000
ENDCHAR
STARTCHAR 2826
ENCODING 10278
SWIDTH 960 0
DWIDTH 12 0
BBX 15 12 -1 -2
BITMAP
00c0
00c0
00c0
0180
0180
01fe
0000
0000
0000
0000
0000
0000
ENDCHAR
STARTCHAR 2827
ENCODING 10279
SWIDTH 960 0
DWIDTH 12 0
BBX 15 12 -1 -2
BITMAP
00c0
00c0
00c0
0180
0180
01fe
0300
0300
0300
0600
0600
0600
ENDCHAR
STARTCHAR 2828
ENCODING 10280
SWIDTH 960 0
DWIDTH 12 0
BBX 15 12 -1 -2
BITMAP
0000
0000
0000
0000
0000
3ffe
0300
0300
0300
0600
0600
0600
ENDCHAR
STARTCHAR 2829
ENCODING 10281
SWIDTH 960 0
DWIDTH 12 0
BBX 15 12 -1 -2
BITMAP
00c0
00c0
00c0
0180
0180
3f80
0300
0300
0300
0600
0600
0600
ENDCHAR
STARTCHAR 282a
ENCODING 10282
SWIDTH 960 0
DWIDTH 12 0
BBX 15 12 -1 -2
BITMAP
00c0
00c0
00c0
0180
0180
3ffe
0000
0000
0000
0000
0000
0000
ENDCHAR
STARTCHAR 282b
ENCODING 10283
SWIDTH 960 0
DWIDTH 12 0
BBX 15 12 -1 -2
BITMAP
00c0
00c0
00c0
0180
0180
3ffe
0300
0300
0300
0600
0600
0600
ENDCHAR
STARTCHAR 282c
ENCODING 10284
SWIDTH 960 0
DWIDTH 12 0
BBX 15 12 -1 -2
BITMAP
0000
0000
0000
0000
0000
3ffe
7ffc
0000
0000
0000
0000
0000
ENDCHAR
STARTCHAR 282d
ENCODING 10285
SWIDTH 960 0
DWIDTH 12 0
BBX 15 12 -1 -2
BITMAP
00e0
00e0
00e0
01c0
01c0
01c0
0380
0380
0380
0700
0700
0700
ENDCHAR
STARTCHAR 282e
ENCODING 10286
SWIDTH 960 0
DWIDTH 12 0
BBX 15 12 -1 -2
BITMAP
0000
0000
0000
0000
0000
01fe
03fc
0380
0380
0700
0700
0700
ENDCHAR
STARTCHAR 282f
ENCODING 10287
SWIDTH 960 0
DWIDTH 12 0
BBX 15 12 -1 -2
BITMAP
0000
0000
0000
0000
0000
3fc0
7f80
0380
0380
0700
0700
0700
ENDCHAR
STARTCHAR 2830
ENCODING 10288
SWIDTH 960 0
DWIDTH 12 0
BBX 15 12 -1 -2
BITMAP
00e0
00e0
00e0
01c0
01c0
3fc0
7f80
0000
0000
0000
0000
0000
ENDCHAR
STARTCHAR 2831
ENCODING 10289
SWIDTH 960 0
DWIDTH 12 0
BBX 15 12 -1 -2
BITMAP
00e0
00e0
00e0
01c0
01c0
01fe
03fc
0000
0000
0000
0000
0000
ENDCHAR
STARTCHAR 2832
ENCODING 10290
SWIDTH 960 0
DWIDTH 12 0
BBX 15 12 -1 -2
BITMAP
00e0
00e0
00e0
01c0
01c0
01fe
03fc
0380
0380
0700
0700
0700
ENDCHAR
STARTCHAR 2833
ENCODING 10291
SWIDTH 960 0
DWIDTH 12 0
BBX 15 12 -1 -2
BITMAP
0000
0000
0000
0000
0000
3ffe
7ffc
0380
0380
0700
0700
0700
ENDCHAR
STARTCHAR 2834
ENCODING 10292
SWIDTH 960 0
DWIDTH 12 0
BBX 15 12 -1 -2
BITMAP
00e0
00e0
00e0
01c0
01c0
3fc0
7f80
0380
0380
0700
0700
0700
ENDCHAR
STARTCHAR 2835
ENCODING 10293
SWIDTH 960 0
DWIDTH 12 0
BBX 15 12 -1 -2
BITMAP
00e0
00e0
00e0
01c0
01c0
3ffe
7ffc
0000
0000
0000
0000
0000
ENDCHAR
STARTCHAR 2836
ENCODING 10294
SWIDTH 960 0
DWIDTH 12 0
BBX 15 12 -1 -2
BITMAP
00e0
00e0
00e0
01c0
01c0
3ffe
7ffc
0380
0380
0700
0700
0700
ENDCHAR
STARTCHAR 2837
ENCODING 10295
SWIDTH 960 0
DWIDTH 12 0
BBX 15 12 -1 -2
BITMAP
00e0
00e0
00e0
01c0
01c0
01fe
0380
0380
0380
0700
0700
0700
ENDCHAR
STARTCHAR 2838
ENCODING 10296
SWIDTH 960 0
DWIDTH 12 0
BBX 15 12 -1 -2
BITMAP
0000
0000
0000
0000
0000
3ffe
7ffc
0300
0300
0600
0600
0600
ENDCHAR
STARTCHAR 2839
ENCODING 10297
SWIDTH 960 0
DWIDTH 12 0
BBX 15 12 -1 -2
BITMAP
00e0
00e0
00e0
01c0
01c0
3fc0
0380
0380
0380
0700
0700
0700
ENDCHAR
STARTCHAR 283a
ENCODING 10298
SWIDTH 960 0
DWIDTH 12 0
BBX 15 12 -1 -2
BITMAP
00c0
00c0
00c0
0180
0180
3ffe
7ffc
0000
0000
0000
0000
0000
ENDCHAR
STARTCHAR 283b
ENCODING 10299
SWIDTH 960 0
DWIDTH 12 0
BBX 15 12 -1 -2
BITMAP
00c0
00c0
00c0
0180
0180
3ffe
7ffc
0300
0300
0600
0600
0600
ENDCHAR
STARTCHAR 283c
ENCODING 10300
SWIDTH 960 0
DWIDTH 12 0
BBX 15 12 -1 -2
BITMAP
00c0
00c0
00c0
0180
0180
01fe
03fc
0300
0300
0600
0600
0600
ENDCHAR
STARTCHAR 283d
ENCODING 10301
SWIDTH 960 0
DWIDTH 12 0
BBX 15 12 -1 -2
BITMAP
0000
0000
0000
0000
0000
3ffe
0380
0380
0380
0700
0700
0700
ENDCHAR
STARTCHAR 283e
ENCODING 10302
SWIDTH 960 0
DWIDTH 12 0
BBX 15 12 -1 -2
BITMAP
00c0
00c0
00c0
0180
0180
3f80
7f00
0300
0300
0600
0600
0600
ENDCHAR
STARTCHAR 283f
ENCODING 10303
SWIDTH 960 0
DWIDTH 12 0
BBX 15 12 -1 -2
BITMAP
00e0
00e0
00e0
01c0
01c0
3ffe
0000
0000
0000
0000
0000
0000
ENDCHAR
STARTCHAR 2840
ENCODING 10304
SWIDTH 960 0
DWIDTH 12 0
BBX 15 12 -1 -2
BITMAP
00e0
00e0
00e0
01c0
01c0
3ffe
0380
0380
0380
0700
0700
0700
ENDCHAR
STARTCHAR 3021
ENCODING 12321
SWIDTH 960 0
DWIDTH 12 0
BBX 15 12 -1 -2
BITMAP
0000
0ffe
01b0
0360
0ff8
0d68
1ad0
1ad0
1ff0
0d80
0d80
7ff0
ENDCHAR
STARTCHAR 3022
ENCODING 12322
SWIDTH 960 0
DWIDTH 12 0
BBX 15 12 -1 -2
BITMAP
0000
03fe
1e68
34d0
35fc
3554
6aa8
6aa8
6bf8
f340
0340
1ff0
ENDCHAR
STARTCHAR 3023
ENCODING 12323
SWIDTH 960 0
DWIDTH 12 0
BBX 15 12 -1 -2
BITMAP
0c30
0c30
0dfc
3f60
1a60
1bfc
34c0
6cc0
7df0
3680
6180
cff0
ENDCHAR
STARTCHAR 3024
ENCODING 12324
SWIDTH 960 0
DWIDTH 12 0
BBX 15 12 -1 -2
BITMAP
0000
1ffe
1a0c
35e8
3b68
3b68
6ad0
6bd0
7630
c060
c060
c0e0
ENDCHAR
STARTCHAR 3025
ENCODING 12325
SWIDTH 960 0
DWIDTH 12 0
BBX 15 12 -1 -2
BITMAP
00c0
1ffe
0000
0ff0
0c30
0c30
1fe0
0630
3d60
eb00
1ec0
7870
ENDCHAR
STARTCHAR 3026
ENCODING 12326
SWIDTH 960 0
DWIDTH 12 0
BBX 15 12 -1 -2
BITMAP
003c
0fe8
0350
3ffc
3358
3570
0de8
37d8
3d80
0f00
1d80
f0f0
ENDCHAR
STARTCHAR 3027
ENCODING 12327
SWIDTH 960 0
DWIDTH 12 0
BBX 15 12 -1 -2
BITMAP
0660
0668
06dc
3ef4
0d0c
0ff8
1cc0
7bf8
19c0
3340
3660
7438
ENDCHAR
STARTCHAR 3028
ENCODING 12328
SWIDTH 960 0
DWIDTH 12 0
BBX 15 12 -1 -2
BITMAP
0c30
0c30
0d70
3f50
1a98
3774
6c00
75f0
3d30
3660
6660
c7e0
ENDCHAR
STARTCHAR 3029
ENCODING 12329
SWIDTH 960 0
DWIDTH 12 0
BBX 15 12 -1 -2
BITMAP
0060
0c7c
06b8
00e0
03b8
3ffc
1980
1bf0
1980
1fe0
6d00
c7f8
ENDCHAR
STARTCHAR 302a
ENCODING 12330
SWIDTH 960 0
DWIDTH 12 0
BBX 15 12 -1 -2
BITMAP
0330
1ffe
0330
07e0
1b68
1e3c
1bf0
731c
1ff0
0700
1dc0
7070
ENDCHAR
STARTCHAR 302b
ENCODING 12331
SWIDTH 960 0
DWIDTH 12 0
BBX 15 12 -1 -2
BITMAP
0330
1ffe
0330
3ffc
0340
1ff8
36b0
36b0
34f0
7860
6060
7fe0
ENDCHAR
STARTCHAR 302c
ENCODING 12332
SWIDTH 960 0
DWIDTH 12 0
BBX 15 12 -1 -2
BITMAP
03a0
1e7c
06d8
0df8
3fa8
0df8
3d50
3bf8
6ad8
d7f0
3198
30f8
ENDCHAR
STARTCHAR 302d
ENCODING 12333
SWIDTH 960 0
DWIDTH 12 0
BBX 15 12 -1 -2
BITMAP
0000
1ffe
01a0
1ff8
1b58
1ff8
0680
7ff8
3500
6b60
d8d0
0fc0
ENDCHAR
STARTCHAR 302e
ENCODING 12334
SWIDTH 960 0
DWIDTH 12 0
BBX 15 12 -1 -2
BITMAP
0c00
0dfc
0d0c
3ff8
1a00
1bfc
3db0
77e8
34c0
6be0
7180
eff0
ENDCHAR
STARTCHAR 302f
ENCODING 12335
SWIDTH 960 0
DWIDTH 12 0
BBX 15 12 -1 -2
BITMAP
1800
0dfc
030c
37f8
1a00
07fc
0db0
1de8
34c0
6be0
d980
d7f0
ENDCHAR
STARTCHAR 3030
ENCODING 12336
SWIDTH 960 0
DWIDTH 12 0
BBX 15 12 -1 -2
BITMAP
0600
067e
0666
3f4c
0d7c
0d4c
1a98
1a98
3698
35f0
6c18
c7f8
ENDCHAR
STARTCHAR 3031
ENCODING 12337
SWIDTH 960 0
DWIDTH 12 0
BBX 15 12 -1 -2
BITMAP
0330
1ffe
0350
1ff0
0330
3ffc
0c60
0fe0
1ff0
3600
fff0
0600
ENDCHAR
STARTCHAR 3032
ENCODING 12338
SWIDTH 960 0
DWIDTH 12 0
BBX 15 12 -1 -2
BITMAP
0330
1ffe
0330
1ff8
0000
0ff8
1830
1ff0
3000
3000
6000
c000
ENDCHAR
STARTCHAR 3033
ENCODING 12339
SWIDTH 960 0
DWIDTH 12 0
BBX 15 12 -1 -2
BITMAP
0630
0fac
1bfa
3f60
35fc
3f70
6ab0
7f68
1dcc
7460
69c0
c700
ENDCHAR
STARTCHAR 3034
ENCODING 12340
SWIDTH 960 0
DWIDTH 12 0
BBX 15 12 -1 -2
BITMAP
0630
0630
07fe
3e98
0cd0
1ffc
3cc0
38c0
6bf8
d180
3180
3180
ENDCHAR
STARTCHAR 3035
ENCODING 12341
SWIDTH 960 0
DWIDTH 12 0
BBX 15 12 -1 -2
BITMAP
0000
07fe
0600
0cc0
0cc0
0ff8
1980
1980
3180
3300
6ff0
c000
ENDCHAR
STARTCHAR 3036
ENCODING 12342
SWIDTH 960 0
DWIDTH 12 0
BBX 15 12 -1 -2
BITMAP
0630
1fb0
0668
3fa8
3334
3f30
6760
7ea0
19f8
ff40
30c0
30c0
ENDCHAR
STARTCHAR 3037
ENCODING 12343
SWIDTH 960 0
DWIDTH 12 0
BBX 15 12 -1 -2
BITMAP
0600
06fc
0668
3f50
0cdc
0cd8
1dd8
7b50
1af0
36a0
3530
7a18
ENDCHAR
STARTCHAR 3038
ENCODING 12344
SWIDTH 960 0
DWIDTH 12 0
BBX 15 12 -1 -2
BITMAP
00c0
1ffe
180c
340c
0f78
1b58
36b0
6ab0
1de0
1b30
3330
61f0
ENDCHAR
STARTCHAR 3039
ENCODING 12345
SWIDTH 960 0
DWIDTH 12 0
BBX 15 12 -1 -2
BITMAP
0c00
0cfc
0d4c
3f98
1af8
1a98
3530
6df0
7d30
3660
6660
cff0
ENDCHAR
STARTCHAR 303a
ENCODING 12346
SWIDTH 960 0
DWIDTH 12 0
BBX 15 12 -1 -2
BITMAP
0618
0618
1f98
35fc
3540
3f40
1980
1d80
1d80
3e80
e6f0
0600
ENDCHAR
STARTCHAR 303b
ENCODING 12347
SWIDTH 960 0
DWIDTH 12 0
BBX 15 12 -1 -2
BITMAP
0630
0730
1db0
36b0
1b58
1f78
3798
3ef0
35b0
6d60
6b60
f3e0
ENDCHAR
STARTCHAR 303c
ENCODING 12348
SWIDTH 960 0
DWIDTH 12 0
BBX 15 12 -1 -2
BITMAP
0630
0c30
1b7e
1d8c
1af4
3ed4
1ae8
6da8
6da8
d5d0
d030
30e0
ENDCHAR
STARTCHAR 303d
ENCODING 12349
SWIDTH 960 0
DWIDTH 12 0
BBX 15 12 -1 -2
BITMAP
0630
0cfc
1b30
1dfc
1ad0
3fd8
1b78
6db0
6fa0
d580
d340
3670
ENDCHAR
STARTCHAR 303e
ENCODING 12350
SWIDTH 960 0
DWIDTH 12 0
BBX 15 12 -1 -2
BITMAP
0630
07b0
0d30
1f7c
3560
3f60
6af0
7eb0
1db0
7560
6b60
c3e0
ENDCHAR
STARTCHAR 303f
ENCODING 12351
SWIDTH 960 0
DWIDTH 12 0
BBX 15 12 -1 -2
BITMAP
0068
006c
1ffe
00c0
1f58
1b50
36d0
3ee0
01e0
1d70
f630
1c30
ENDCHAR
STARTCHAR 3040
ENCODING 12352
SWIDTH 960 0
DWIDTH 12 0
BBX 15 12 -1 -2
BITMAP
1ffe
01a0
0ffc
1b58
1ff8
1d78
0d40
7ff8
0f80
3ac0
e670
0600
ENDCHAR
STARTCHAR 3041
ENCODING 12353
SWIDTH 960 0
DWIDTH 12 0
BBX 15 12 -1 -2
BITMAP
0630
0630
1fb0
06d0
0d98
0f74
3c00
6bf0
1b30
3660
3660
37e0
ENDCHAR
STARTCHAR 3042
ENCODING 12354
SWIDTH 960 0
DWIDTH 12 0
BBX 15 12 -1 -2
BITMAP
00c0
1ffe
1986
330c
0300
3ffc
0cc0
0cc0
1f80
0700
1dc0
7060
ENDCHAR
STARTCHAR 3043
ENCODING 12355
SWIDTH 960 0
DWIDTH 12 0
BBX 15 12 -1 -2
BITMAP
0060
0ffe
0c60
1ffc
1b50
1bf0
3db8
37f0
6db0
6fe0
c330
c1f0
ENDCHAR
STARTCHAR 3044
ENCODING 12356
SWIDTH 960 0
DWIDTH 12 0
BBX 15 12 -1 -2
BITMAP
0630
06fe
0686
3f4c
0cc0
0ffe
1db0
79b0
1ba0
31c0
3360
7630
ENDCHAR
STARTCHAR 3045
ENCODING 12357
SWIDTH 960 0
DWIDTH 12 0
BBX 15 12 -1 -2
BITMAP
0030
1ffe
1b5c
36b0
37fc
3e00
6df0
6d30
6df0
fa60
0660
07e0
ENDCHAR
STARTCHAR 3046
ENCODING 12358
SWIDTH 960 0
DWIDTH 12 0
BBX 15 12 -1 -2
BITMAP
00c0
1ffe
1986
37f4
0660
07c0
1d60
7ff8
0f80
3ac0
e670
0600
ENDCHAR
STARTCHAR 3047
ENCODING 12359
SWIDTH 960 0
DWIDTH 12 0
BBX 15 12 -1 -2
BITMAP
1fbe
19a6
1fbe
3f7c
318c
37f4
6698
7ff8
6cd8
dfb0
d9b0
dfb0
ENDCHAR
STARTCHAR 3048
ENCODING 12360
SWIDTH 960 0
DWIDTH 12 0
BBX 15 12 -1 -2
BITMAP
0d30
1ffe
0da6
1ec0
0dfe
3f58
6ab0
7eb0
1ba0
fdc0
3360
3630
ENDCHAR
STARTCHAR 3049
ENCODING 12361
SWIDTH 960 0
DWIDTH 12 0
BBX 15 12 -1 -2
BITMAP
00c0
00c0
1ffe
03c0
06a0
1db0
7338
1fe0
1860
30c0
30c0
3fc0
ENDCHAR
STARTCHAR 304a
ENCODING 12362
SWIDTH 960 0
DWIDTH 12 0
BBX 15 12 -1 -2
BITMAP
060c
060c
068c
0d98
0d98
0cd8
1830
1a30
3c70
60d0
c398
0e00
ENDCHAR
STARTCHAR 304b
ENCODING 12363
SWIDTH 960 0
DWIDTH 12 0
BBX 15 12 -1 -2
BITMAP
0300
03fc
066c
0cd8
1ffc
34d8
19b0
1bf0
1980
3300
3600
3400
ENDCHAR
STARTCHAR 304c
ENCODING 12364
SWIDTH 960 0
DWIDTH 12 0
BBX 15 12 -1 -2
BITMAP
0330
0330
0330
07fc
0c18
3d18
6b30
1b30
1b60
36c0
3180
3ff0
ENDCHAR
STARTCHAR 304d
ENCODING 12365
SWIDTH 960 0
DWIDTH 12 0
BBX 15 12 -1 -2
BITMAP
0330
0330
03fe
0660
0ccc
3dd8
6b60
1d40
1b40
36c0
37a0
3630
ENDCHAR
STARTCHAR 304e
ENCODING 12366
SWIDTH 960 0
DWIDTH 12 0
BBX 15 12 -1 -2
BITMAP
0360
037c
036c
07fe
0d98
3df8
68c0
1bf0
1ac0
3ff0
3180
3180
ENDCHAR
STARTCHAR 304f
ENCODING 12367
SWIDTH 960 0
DWIDTH 12 0
BBX 15 12 -1 -2
BITMAP
0000
0ffe
0db6
1b6c
1ffc
1b6c
36d8
3ff8
36d8
6db0
6830
7ff0
ENDCHAR
STARTCHAR 3050
ENCODING 12368
SWIDTH 960 0
DWIDTH 12 0
BBX 15 12 -1 -2
BITMAP
00c0
1ffe
00c0
1ff0
01b0
1ff0
3300
3ff8
0eb0
19a0
30c0
e070
ENDCHAR
STARTCHAR 3051
ENCODING 12369
SWIDTH 960 0
DWIDTH 12 0
BBX 15 12 -1 -2
BITMAP
0038
07e0
00c0
3ffc
03c0
1db0
7638
3ff0
0dc0
3f00
0ec0
7860
ENDCHAR
STARTCHAR 3052
ENCODING 12370
SWIDTH 960 0
DWIDTH 12 0
BBX 15 12 -1 -2
BITMAP
0034
0c36
0fff
1860
1fac
1aa8
3fa8
3570
6d6c
6ee8
cdb8
db18
ENDCHAR
STARTCHAR 3053
ENCODING 12371
SWIDTH 960 0
DWIDTH 12 0
BBX 15 12 -1 -2
BITMAP
000c
0fcc
0ccc
1ffc
1818
1fa8
30d0
3f50
3630
7560
d560
1ce0
ENDCHAR
STARTCHAR 3054
ENCODING 12372
SWIDTH 960 0
DWIDTH 12 0
BBX 15 12 -1 -2
BITMAP
06cc
06d8
06fe
1db0
1eb0
36fc
6b60
1b60
1bf8
36c0
36c0
37f0
ENDCHAR
STARTCHAR 3055
ENCODING 12373
SWIDTH 960 0
DWIDTH 12 0
BBX 15 12 -1 -2
BITMAP
00c0
0ffc
0330
3ffc
0c30
0ff0
1860
1fe0
3b00
6b60
d8d0
0fc0
ENDCHAR
STARTCHAR 3056
ENCODING 12374
SWIDTH 960 0
DWIDTH 12 0
BBX 15 12 -1 -2
BITMAP
0fcc
0ccc
0ffe
18d8
1fa8
1b18
3ab0
6ab0
1d00
6b60
d8d0
0fc0
ENDCHAR
STARTCHAR 3057
ENCODING 12375
SWIDTH 960 0
DWIDTH 12 0
BBX 15 12 -1 -2
BITMAP
0000
03fc
030c
07f8
0618
07f8
0600
0ff8
3b68
0db0
3b30
0ee0
ENDCHAR
STARTCHAR 3058
ENCODING 12376
SWIDTH 960 0
DWIDTH 12 0
BBX 15 12 -1 -2
BITMAP
0630
06fe
0670
3ed0
0d98
1ffc
3c30
3bd0
6b50
d7a0
3060
30e0
ENDCHAR
STARTCHAR 3059
ENCODING 12377
SWIDTH 960 0
DWIDTH 12 0
BBX 15 12 -1 -2
BITMAP
0660
0360
00c0
1fe0
0360
07f8
0c30
1ff8
7018
dab0
3550
60e0
ENDCHAR
STARTCHAR 305a
ENCODING 12378
SWIDTH 960 0
DWIDTH 12 0
BBX 15 12 -1 -2
BITMAP
0000
07fc
06cc
0ff8
0d98
0ff8
0000
7ff8
1b30
3360
3ec0
f070
ENDCHAR
STARTCHAR 305b
ENCODING 12379
SWIDTH 960 0
DWIDTH 12 0
BBX 15 12 -1 -2
BITMAP
0000
0ffc
0ccc
1ff8
1998
1ff8
0cc0
3ff0
0cc0
fff0
31c0
e060
ENDCHAR
STARTCHAR 305c
ENCODING 12380
SWIDTH 960 0
DWIDTH 12 0
BBX 15 12 -1 -2
BITMAP
03a0
1e7c
06d8
3f50
0c60
1ed0
3b78
3998
6b70
d0c0
3380
3600
ENDCHAR
STARTCHAR 305d
ENCODING 12381
SWIDTH 960 0
DWIDTH 12 0
BBX 15 12 -1 -2
BITMAP
066c
0668
1efe
1bb0
0db0
3af8
6f60
1b60
6df0
d6c0
d6c0
37f0
ENDCHAR
STARTCHAR 305e
ENCODING 12382
SWIDTH 960 0
DWIDTH 12 0
BBX 15 12 -1 -2
BITMAP
0630
06fe
1e36
1afe
0ccc
3afc
6e60
19f8
6aa0
d7f8
d0c0
30c0
ENDCHAR
STARTCHAR 305f
ENCODING 12383
SWIDTH 960 0
DWIDTH 12 0
BBX 15 12 -1 -2
BITMAP
0000
0ffc
0ccc
1ff8
1998
1ff8
1860
1fe0
1860
3fc0
30c0
31c0
ENDCHAR
STARTCHAR 3060
ENCODING 12384
SWIDTH 960 0
DWIDTH 12 0
BBX 15 12 -1 -2
BITMAP
0330
1ffe
0330
1ff8
0180
3ffc
1d60
7338
3ff0
1980
0f80
7ce0
ENDCHAR
STARTCHAR 3061
ENCODING 12385
SWIDTH 960 0
DWIDTH 12 0
BBX 15 12 -1 -2
BITMAP
00c0
00c0
1ffe
0300
0398
06b0
1da0
7580
0cc0
18c0
1e60
7830
ENDCHAR
STARTCHAR 3062
ENCODING 12386
SWIDTH 960 0
DWIDTH 12 0
BBX 15 12 -1 -2
BITMAP
0f00
01fe
1fb6
03fc
3f6c
07fc
7d30
03f0
7d30
dbe0
da60
fae0
ENDCHAR
STARTCHAR 3063
ENCODING 12387
SWIDTH 960 0
DWIDTH 12 0
BBX 15 12 -1 -2
BITMAP
0060
0dfc
066c
03fc
0198
3df8
18c0
1bf0
1ac0
3ff0
6980
cff8
ENDCHAR
STARTCHAR 3064
ENCODING 12388
SWIDTH 960 0
DWIDTH 12 0
BBX 15 12 -1 -2
BITMAP
0060
0dfc
06ac
07fc
0000
3df8
1a30
1bf0
1a30
1fe0
6e70
cff8
ENDCHAR
STARTCHAR 3065
ENCODING 12389
SWIDTH 960 0
DWIDTH 12 0
BBX 15 12 -1 -2
BITMAP
0000
0ffe
0d80
1bf0
1ac0
1cc0
37f0
3180
3740
6cc0
6800
7ff0
ENDCHAR
STARTCHAR 3066
ENCODING 12390
SWIDTH 960 0
DWIDTH 12 0
BBX 15 12 -1 -2
BITMAP
0198
0198
0198
1ffc
0330
0330
0660
3ff8
0660
0cc0
18c0
30c0
ENDCHAR
STARTCHAR 3067
ENCODING 12391
SWIDTH 960 0
DWIDTH 12 0
BBX 15 12 -1 -2
BITMAP
00c0
1ffe
0300
0340
1ec0
0680
0760
0ec0
3b80
0e80
38c0
e060
ENDCHAR
STARTCHAR 3068
ENCODING 12392
SWIDTH 960 0
DWIDTH 12 0
BBX 15 12 -1 -2
BITMAP
0038
0c34
0dfe
1860
3fac
1aa8
3568
3770
3ba0
ee70
39b0
0330
ENDCHAR
STARTCHAR 3069
ENCODING 12393
SWIDTH 960 0
DWIDTH 12 0
BBX 15 12 -1 -2
BITMAP
00c0
1ffe
03b0
06f0
1f98
0ff0
1860
1fe0
1860
3fc0
30c0
31c0
ENDCHAR
STARTCHAR 306a
ENCODING 12394
SWIDTH 960 0
DWIDTH 12 0
BBX 15 12 -1 -2
BITMAP
0300
033e
1ff4
0c68
0fb0
1db8
3f58
6b58
1f50
36e0
3680
3680
ENDCHAR
STARTCHAR 306b
ENCODING 12395
SWIDTH 960 0
DWIDTH 12 0
BBX 15 12 -1 -2
BITMAP
00cc
1faa
06fc
0dac
1bfc
1e74
77fc
3568
3770
6dd0
7b70
0e30
ENDCHAR
STARTCHAR 306c
ENCODING 12396
SWIDTH 960 0
DWIDTH 12 0
BBX 15 12 -1 -2
BITMAP
0000
0000
0000
0000
0000
1ffc
0000
0000
0000
0000
0000
0000
ENDCHAR
STARTCHAR 306d
ENCODING 12397
SWIDTH 960 0
DWIDTH 12 0
BBX 15 12 -1 -2
BITMAP
00c0
07f8
00c0
3ffc
0000
3ffc
6c18
6c18
0fc0
1800
1860
0fe0
ENDCHAR
STARTCHAR 306e
ENCODING 12398
SWIDTH 960 0
DWIDTH 12 0
BBX 15 12 -1 -2
BITMAP
0d98
06d8
00f0
37dc
1b30
0630
0c30
1ff8
3550
6aa0
daa0
dff0
ENDCHAR
STARTCHAR 306f
ENCODING 12399
SWIDTH 960 0
DWIDTH 12 0
BBX 15 12 -1 -2
BITMAP
0060
0c7c
06d8
01fc
036c
3dfc
19c0
19c0
1b58
1e70
6c00
c7f8
ENDCHAR
STARTCHAR 3070
ENCODING 12400
SWIDTH 960 0
DWIDTH 12 0
BBX 15 12 -1 -2
BITMAP
039e
1efa
066c
3f58
0cd0
1efc
3b58
3b58
6b78
d6b0
36b0
36f0
ENDCHAR
STARTCHAR 3071
ENCODING 12401
SWIDTH 960 0
DWIDTH 12 0
BBX 15 12 -1 -2
BITMAP
0330
1ffe
0330
06a0
19fc
1b68
1b50
06c0
1dc0
3340
ee60
3830
ENDCHAR
STARTCHAR 3072
ENCODING 12402
SWIDTH 960 0
DWIDTH 12 0
BBX 15 12 -1 -2
BITMAP
0330
1ffe
0330
0ff0
0180
0180
7ff8
0300
0300
0600
0600
0e00
ENDCHAR
STARTCHAR 3073
ENCODING 12403
SWIDTH 960 0
DWIDTH 12 0
BBX 15 12 -1 -2
BITMAP
0600
07fe
0d36
1f7c
35b0
3ffc
6ad8
7f68
1dd8
76d0
69b0
c760
ENDCHAR
STARTCHAR 3074
ENCODING 12404
SWIDTH 960 0
DWIDTH 12 0
BBX 15 12 -1 -2
BITMAP
0180
0180
0360
0e38
1fec
0340
0680
0680
0d80
1b30
3330
61f0
ENDCHAR
STARTCHAR 3075
ENCODING 12405
SWIDTH 960 0
DWIDTH 12 0
BBX 15 12 -1 -2
BITMAP
0180
0f7e
0c66
18cc
1f4c
18cc
3198
3198
3eb0
6300
0300
0300
ENDCHAR
STARTCHAR 3076
ENCODING 12406
SWIDTH 960 0
DWIDTH 12 0
BBX 15 12 -1 -2
BITMAP
0000
01fe
1eb6
356c
35fc
356c
6ad8
6ae8
6ab8
f570
0e30
0ff0
ENDCHAR
STARTCHAR 3077
ENCODING 12407
SWIDTH 960 0
DWIDTH 12 0
BBX 15 12 -1 -2
BITMAP
03f8
0318
03f8
07f8
0c18
0ff8
1830
1ff0
1830
3fe0
1dc0
7070
ENDCHAR
STARTCHAR 3078
ENCODING 12408
SWIDTH 960 0
DWIDTH 12 0
BBX 15 12 -1 -2
BITMAP
0000
0ffe
0cc6
198c
1ff4
198c
3318
3698
3cd8
70d0
6030
7ff0
ENDCHAR
STARTCHAR 3079
ENCODING 12409
SWIDTH 960 0
DWIDTH 12 0
BBX 15 12 -1 -2
BITMAP
0c00
0cfe
0d56
3fac
1afc
1aac
3558
6d68
7db8
36b0
6730
c7f0
ENDCHAR
STARTCHAR 307a
ENCODING 12410
SWIDTH 960 0
DWIDTH 12 0
BBX 15 12 -1 -2
BITMAP
000c
0fcc
00cc
0198
1f98
1818
3f30
0330
0330
0660
0660
3c60
ENDCHAR
STARTCHAR 307b
ENCODING 12411
SWIDTH 960 0
DWIDTH 12 0
BBX 15 12 -1 -2
BITMAP
0630
0730
1dd0
367e
1b54
1fb4
3760
3e60
34e0
6da0
6b30
f618
ENDCHAR
STARTCHAR 307c
ENCODING 12412
SWIDTH 960 0
DWIDTH 12 0
BBX 15 12 -1 -2
BITMAP
0c1e
06f0
036c
3358
1b30
0dfc
0180
1980
37f0
6300
c300
dff0
ENDCHAR
STARTCHAR 307d
ENCODING 12413
SWIDTH 960 0
DWIDTH 12 0
BBX 15 12 -1 -2
BITMAP
0ccc
0db4
0d6c
1b98
1b68
1ff8
34d0
37d0
34d0
6fa8
69a8
dbb8
ENDCHAR
STARTCHAR 307e
ENCODING 12414
SWIDTH 960 0
DWIDTH 12 0
BBX 15 12 -1 -2
BITMAP
0330
1ffe
0730
3ce0
35f0
3b18
6df8
6860
7ff8
e6c0
c6e0
cf60
ENDCHAR
STARTCHAR 3121
ENCODING 12577
SWIDTH 960 0
DWIDTH 12 0
BBX 15 12 -1 -2
BITMAP
1e30
1bfe
1f06
3bf4
3400
37fc
69a0
69a0
7360
c6d0
ccd0
d870
ENDCHAR
STARTCHAR 3122
ENCODING 12578
SWIDTH 960 0
DWIDTH 12 0
BBX 15 12 -1 -2
BITMAP
0060
1e70
1ad8
3578
3a0c
3df8
68c0
6ff8
73c0
e6e0
dfa0
c060
ENDCHAR
STARTCHAR 3123
ENCODING 12579
SWIDTH 960 0
DWIDTH 12 0
BBX 15 12 -1 -2
BITMAP
1e7c
1bec
1eb8
3be8
3818
3bf8
6830
6ff0
7350
daf0
d630
d3f0
ENDCHAR
STARTCHAR 3124
ENCODING 12580
SWIDTH 960 0
DWIDTH 12 0
BBX 15 12 -1 -2
BITMAP
067c
1fac
0e6c
1afc
3f4c
00fc
3e98
36f8
3e98
6df0
7da0
0730
ENDCHAR
STARTCHAR 3125
ENCODING 12581
SWIDTH 960 0
DWIDTH 12 0
BBX 15 12 -1 -2
BITMAP
0018
0018
1f18
37fc
3630
36b0
6da0
6da0
6c60
f8c0
00c0
01c0
ENDCHAR
STARTCHAR 3126
ENCODING 12582
SWIDTH 960 0
DWIDTH 12 0
BBX 15 12 -1 -2
BITMAP
0180
0180
0180
3ffc
0300
0600
0c00
0ff0
3c30
6860
d860
1fe0
ENDCHAR
STARTCHAR 3127
ENCODING 12583
SWIDTH 960 0
DWIDTH 12 0
BBX 15 12 -1 -2
BITMAP
00c0
1ffe
1806
37f4
0180
0180
3ff0
0300
0300
0600
0600
0e00
ENDCHAR
STARTCHAR 3128
ENCODING 12584
SWIDTH 960 0
DWIDTH 12 0
BBX 15 12 -1 -2
BITMAP
0180
07f8
0618
0ff0
0c00
0ffc
1800
1ff8
00d8
6ad0
6d30
c0e0
ENDCHAR
STARTCHAR 3129
ENCODING 12585
SWIDTH 960 0
DWIDTH 12 0
BBX 15 12 -1 -2
BITMAP
0000
1ffe
0186
1b4c
0d6c
030c
0e38
1a68
76d8
0c30
0c30
1c70
ENDCHAR
STARTCHAR 312a
ENCODING 12586
SWIDTH 960 0
DWIDTH 12 0
BBX 15 12 -1 -2
BITMAP
0000
0dfc
0630
0060
07fc
3c60
18c0
18c0
18c0
1b80
6c00
c7f8
ENDCHAR
STARTCHAR 312b
ENCODING 12587
SWIDTH 960 0
DWIDTH 12 0
BBX 15 12 -1 -2
BITMAP
0000
0ffe
00c0
0180
1ffc
1dac
3568
3318
3b58
6ad0
6630
6670
ENDCHAR
STARTCHAR 312c
ENCODING 12588
SWIDTH 960 0
DWIDTH 12 0
BBX 15 12 -1 -2
BITMAP
01c0
0f3e
0c36
1b6c
1b6c
1b6c
36d8
36d8
7af0
0d80
1980
3180
ENDCHAR
STARTCHAR 312d
ENCODING 12589
SWIDTH 960 0
DWIDTH 12 0
BBX 15 12 -1 -2
BITMAP
0db0
077c
1f6c
0d78
3f58
34fc
7e80
1af8
3ad8
7d70
d630
30e0
ENDCHAR
STARTCHAR 312e
ENCODING 12590
SWIDTH 960 0
DWIDTH 12 0
BBX 15 12 -1 -2
BITMAP
00c0
1ffe
1bcc
0ef8
0c00
1f78
19b0
7ff0
1db0
35e0
6350
cef0
ENDCHAR
STARTCHAR 312f
ENCODING 12591
SWIDTH 960 0
DWIDTH 12 0
BBX 15 12 -1 -2
BITMAP
0000
07f8
00d8
01b0
01b0
1ffc
0360
0660
0660
0cc0
0cc0
7ff0
ENDCHAR
STARTCHAR 3130
ENCODING 12592
SWIDTH 960 0
DWIDTH 12 0
BBX 15 12 -1 -2
BITMAP
006c
1f58
06fe
0db0
1ab0
1efc
7560
3560
35f8
6ac0
7ac0
07f0
ENDCHAR
STARTCHAR 3131
ENCODING 12593
SWIDTH 960 0
DWIDTH 12 0
BBX 15 12 -1 -2
BITMAP
00c0
0180
077c
0c18
0c18
0c18
1ef0
1830
1830
3060
3fe0
0000
ENDCHAR
STARTCHAR 3132
ENCODING 12594
SWIDTH 960 0
DWIDTH 12 0
BBX 15 12 -1 -2
BITMAP
0c00
06fc
018c
3378
1b58
07f8
0c18
1de8
3568
6bd0
d830
d870
ENDCHAR
STARTCHAR 3133
ENCODING 12595
SWIDTH 960 0
DWIDTH 12 0
BBX 15 12 -1 -2
BITMAP
0060
007c
1e60
35fc
3540
35fc
6ab0
6af0
6ab8
f760
1b40
37f0
ENDCHAR
STARTCHAR 3134
ENCODING 12596
SWIDTH 960 0
DWIDTH 12 0
BBX 15 12 -1 -2
BITMAP
0000
00fc
1f4c
3698
36f8
3698
6df0
6d30
6d30
fbe0
0360
0e30
ENDCHAR
STARTCHAR 3135
ENCODING 12597
SWIDTH 960 0
DWIDTH 12 0
BBX 15 12 -1 -2
BITMAP
06d8
1fbe
1f5c
3554
1ff8
1b58
3ff0
3660
3ff8
6b40
6cc0
fac0
ENDCHAR
STARTCHAR 3136
ENCODING 12598
SWIDTH 960 0
DWIDTH 12 0
BBX 15 12 -1 -2
BITMAP
0330
1ffe
0330
1f98
1998
1ffc
3030
3f50
36d0
7660
d560
3560
ENDCHAR
STARTCHAR 3137
ENCODING 12599
SWIDTH 960 0
DWIDTH 12 0
BBX 15 12 -1 -2
BITMAP
067c
0fac
1b7c
3f58
35fc
3f54
6bf8
7eb0
1da0
75c0
6b60
c630
ENDCHAR
STARTCHAR 3138
ENCODING 12600
SWIDTH 960 0
DWIDTH 12 0
BBX 15 12 -1 -2
BITMAP
0c30
0c30
0dfe
3f68
1a70
1bfc
34c0
6d80
7df0
3700
6330
c1f0
ENDCHAR
STARTCHAR 3139
ENCODING 12601
SWIDTH 960 0
DWIDTH 12 0
BBX 15 12 -1 -2
BITMAP
0ffe
0c00
0dde
1aa8
1ba8
1afc
3760
34e0
36e0
6b40
dd50
3a70
ENDCHAR
STARTCHAR 313a
ENCODING 12602
SWIDTH 960 0
DWIDTH 12 0
BBX 15 12 -1 -2
BITMAP
0c36
0633
01fe
3060
1bfc
036c
07f8
1ad8
37f8
6db0
cdb0
cdb0
ENDCHAR
STARTCHAR 313b
ENCODING 12603
SWIDTH 960 0
DWIDTH 12 0
BBX 15 12 -1 -2
BITMAP
001c
07f0
06d0
0da0
0da0
0da0
1b60
1ba0
3360
67a0
7da0
c030
ENDCHAR
STARTCHAR 313c
ENCODING 12604
SWIDTH 960 0
DWIDTH 12 0
BBX 15 12 -1 -2
BITMAP
1fbe
19a6
1fbe
334c
3f7c
300c
6fe8
6318
6fd8
c630
dfd0
c070
ENDCHAR
STARTCHAR 313d
ENCODING 12605
SWIDTH 960 0
DWIDTH 12 0
BBX 15 12 -1 -2
BITMAP
0198
03fe
1ed0
37f8
36a8
3778
6ff0
6860
6ff8
f4c0
06c0
01c0
ENDCHAR
STARTCHAR 313e
ENCODING 12606
SWIDTH 960 0
DWIDTH 12 0
BBX 15 12 -1 -2
BITMAP
0000
07f8
0000
0000
3ffc
0300
0300
06c0
0cc0
1be0
7e60
0060
ENDCHAR
STARTCHAR 313f
ENCODING 12607
SWIDTH 960 0
DWIDTH 12 0
BBX 15 12 -1 -2
BITMAP
03fe
0d36
07fe
0368
03f8
3d68
1bf0
18c0
1ff8
3180
6d80
c7f8
ENDCHAR
STARTCHAR 3140
ENCODING 12608
SWIDTH 960 0
DWIDTH 12 0
BBX 15 12 -1 -2
BITMAP
0ffc
00c0
1ffe
318c
36b4
0180
1fe0
0000
7ff8
0d80
1bc0
7e60
ENDCHAR
STARTCHAR 3141
ENCODING 12609
SWIDTH 960 0
DWIDTH 12 0
BBX 15 12 -1 -2
BITMAP
0330
1ffe
0330
0638
06e0
0c60
18c0
3ff8
68c0
3180
37e0
3000
ENDCHAR
STARTCHAR 3142
ENCODING 12610
SWIDTH 960 0
DWIDTH 12 0
BBX 15 12 -1 -2
BITMAP
0600
077e
1dac
36f8
1b58
1f58
36f0
3eb0
35b0
6df0
6b60
f060
ENDCHAR
STARTCHAR 3143
ENCODING 12611
SWIDTH 960 0
DWIDTH 12 0
BBX 15 12 -1 -2
BITMAP
0780
067e
1fcc
35ac
1e68
33b0
1830
3e60
7760
7da0
6d30
7e18
ENDCHAR
STARTCHAR 3144
ENCODING 12612
SWIDTH 960 0
DWIDTH 12 0
BBX 15 12 -1 -2
BITMAP
0698
0350
1ffe
300c
37ec
0c60
1fc0
0600
3fe0
60c0
60c0
7fc0
ENDCHAR
STARTCHAR 3145
ENCODING 12613
SWIDTH 960 0
DWIDTH 12 0
BBX 15 12 -1 -2
BITMAP
1fbe
19a6
1fbe
334c
3f7c
1ae8
3698
7ff8
0d80
3580
0f00
79e0
ENDCHAR
STARTCHAR 3146
ENCODING 12614
SWIDTH 960 0
DWIDTH 12 0
BBX 15 12 -1 -2
BITMAP
0fd8
0cd8
0fd0
19e8
1f98
0630
7fa0
3358
3f30
6a60
db40
3980
ENDCHAR
STARTCHAR 3147
ENCODING 12615
SWIDTH 960 0
DWIDTH 12 0
BBX 15 12 -1 -2
BITMAP
0060
1e60
1afc
3558
3558
3d58
6ff8
69c0
6b40
f6c0
0c60
3830
ENDCHAR
STARTCHAR 3148
ENCODING 12616
SWIDTH 960 0
DWIDTH 12 0
BBX 15 12 -1 -2
BITMAP
0180
0180
0ff8
1b30
1ff0
1b30
3ff0
0660
07c0
1d30
f1d0
0070
ENDCHAR
STARTCHAR 3149
ENCODING 12617
SWIDTH 960 0
DWIDTH 12 0
BBX 15 12 -1 -2
BITMAP
0d8c
06d8
06f0
3fdc
318c
3198
1ff0
0780
1d40
36c0
e670
0600
ENDCHAR
STARTCHAR 314a
ENCODING 12618
SWIDTH 960 0
DWIDTH 12 0
BBX 15 12 -1 -2
BITMAP
01c0
0060
0000
0798
01d0
3fe0
0d40
0d60
3b30
e630
0600
0e00
ENDCHAR
STARTCHAR 314b
ENCODING 12619
SWIDTH 960 0
DWIDTH 12 0
BBX 15 12 -1 -2
BITMAP
0c70
0618
0000
31ec
1878
07b0
0360
1b50
36d8
6d98
c180
c380
ENDCHAR
STARTCHAR 314c
ENCODING 12620
SWIDTH 960 0
DWIDTH 12 0
BBX 15 12 -1 -2
BITMAP
0c60
0660
07fc
36d8
1bf8
06d8
0ff0
1980
31e0
6180
c750
dc70
ENDCHAR
STARTCHAR 314d
ENCODING 12621
SWIDTH 960 0
DWIDTH 12 0
BBX 15 12 -1 -2
BITMAP
00d8
1ffe
0cd8
19b0
1bf8
3f68
36d0
37f8
3dc0
e340
0660
1c30
ENDCHAR
STARTCHAR 314e
ENCODING 12622
SWIDTH 960 0
DWIDTH 12 0
BBX 15 12 -1 -2
BITMAP
0000
0ff0
0330
07f8
0d58
1d98
36b0
60e0
7fe0
6d60
6d60
fff0
ENDCHAR
STARTCHAR 314f
ENCODING 12623
SWIDTH 960 0
DWIDTH 12 0
BBX 15 12 -1 -2
BITMAP
1800
1f7e
1830
0f7c
00cc
1f7c
1998
7ef8
1998
7bf0
d560
3630
ENDCHAR
STARTCHAR 3150
ENCODING 12624
SWIDTH 960 0
DWIDTH 12 0
BBX 15 12 -1 -2
BITMAP
1800
1fbe
1830
0f7c
00cc
1f7c
0198
7ef8
1998
d5f0
d5a0
3730
ENDCHAR
STARTCHAR 3151
ENCODING 12625
SWIDTH 960 0
DWIDTH 12 0
BBX 15 12 -1 -2
BITMAP
0330
0ffc
0350
0180
0ff0
0db0
1b60
7ff8
0700
0d00
39c0
e070
ENDCHAR
STARTCHAR 3152
ENCODING 12626
SWIDTH 960 0
DWIDTH 12 0
BBX 15 12 -1 -2
BITMAP
0680
07ee
1da0
37e0
0efe
1bd8
7330
37b0
3530
7fa0
6660
66e0
ENDCHAR
STARTCHAR 3153
ENCODING 12627
SWIDTH 960 0
DWIDTH 12 0
BBX 15 12 -1 -2
BITMAP
0f70
0018
1f70
006c
1e78
07f0
3de0
01d0
7d50
deb0
d980
fb80
ENDCHAR
STARTCHAR 3154
ENCODING 12628
SWIDTH 960 0
DWIDTH 12 0
BBX 15 12 -1 -2
BITMAP
06cc
076c
0db8
39e8
1f98
0d98
7ff0
19a0
6ea0
7b40
3ed0
ec70
ENDCHAR
STARTCHAR 3155
ENCODING 12629
SWIDTH 960 0
DWIDTH 12 0
BBX 15 12 -1 -2
BITMAP
0c30
06fe
01b0
31bc
1b6c
0378
0e98
3ad0
6760
6da0
cd30
ce30
ENDCHAR
STARTCHAR 3156
ENCODING 12630
SWIDTH 960 0
DWIDTH 12 0
BBX 15 12 -1 -2
BITMAP
0060
07fe
1af8
1db0
0db4
0f1c
3de0
6860
3340
3380
66c0
dc70
ENDCHAR
STARTCHAR 3157
ENCODING 12631
SWIDTH 960 0
DWIDTH 12 0
BBX 15 12 -1 -2
BITMAP
0618
0318
01b0
3ffc
0660
0c60
1860
3ff0
6aa8
3540
3540
fff0
ENDCHAR
STARTCHAR 3158
ENCODING 12632
SWIDTH 960 0
DWIDTH 12 0
BBX 15 12 -1 -2
BITMAP
0000
1fbe
1a66
3ecc
34fc
3ed0
69a0
7ea0
06a0
d560
cd30
3a18
ENDCHAR
STARTCHAR 3159
ENCODING 12633
SWIDTH 960 0
DWIDTH 12 0
BBX 15 12 -1 -2
BITMAP
06cc
0668
06f8
1e98
1d98
3598
6bf0
19a0
1b60
36d0
34d0
3870
ENDCHAR
STARTCHAR 315a
ENCODING 12634
SWIDTH 960 0
DWIDTH 12 0
BBX 15 12 -1 -2
BITMAP
0f7c
00cc
1ffc
0198
1ef8
0180
3df8
0368
7fd8
dd50
dbd0
f8e0
ENDCHAR
STARTCHAR 315b
ENCODING 12635
SWIDTH 960 0
DWIDTH 12 0
BBX 15 12 -1 -2
BITMAP
0318
031a
0fbe
06d0
3fd4
06d8
37b0
35b8
6dd8
6c30
c600
c3f8
ENDCHAR
STARTCHAR 315c
ENCODING 12636
SWIDTH 960 0
DWIDTH 12 0
BBX 15 12 -1 -2
BITMAP
1fbe
19a6
1fbe
334c
3f7c
334c
67d8
6cd8
6fd8
cd30
dbd0
d070
ENDCHAR
STARTCHAR 315d
ENCODING 12637
SWIDTH 960 0
DWIDTH 12 0
BBX 15 12 -1 -2
BITMAP
06fe
0630
06fe
3e8c
0dfc
0d8c
3df8
39f0
6ba0
d5c0
31a0
3738
ENDCHAR
STARTCHAR 315e
ENCODING 12638
SWIDTH 960 0
DWIDTH 12 0
BBX 15 12 -1 -2
BITMAP
0000
0ffe
0d5c
1bb4
1830
1bfc
3560
3760
6d60
6ea0
daa0
db30
ENDCHAR
STARTCHAR 315f
ENCODING 12639
SWIDTH 960 0
DWIDTH 12 0
BBX 15 12 -1 -2
BITMAP
0000
0ffc
0ccc
1998
1998
1ff8
3030
3030
3030
6060
6060
60e0
ENDCHAR
STARTCHAR 3160
ENCODING 12640
SWIDTH 960 0
DWIDTH 12 0
BBX 15 12 -1 -2
BITMAP
0000
0ffe
0cc6
1bf4
198c
1ffc
3468
37e8
37d8
7ab0
66d0
7ff0
ENDCHAR
STARTCHAR 3161
ENCODING 12641
SWIDTH 960 0
DWIDTH 12 0
BBX 15 12 -1 -2
BITMAP
0600
06fe
06ac
0d78
3f58
0d78
1ac0
1bf8
3eb0
edc0
0f60
0ff0
ENDCHAR
STARTCHAR 3162
ENCODING 12642
SWIDTH 960 0
DWIDTH 12 0
BBX 15 12 -1 -2
BITMAP
00c0
00c0
1ffe
06a0
0db0
3ffc
1b60
1fe0
1b60
3fc0
0630
03f0
ENDCHAR
STARTCHAR 3163
ENCODING 12643
SWIDTH 960 0
DWIDTH 12 0
BBX 15 12 -1 -2
BITMAP
00c0
1ffe
1bf6
366c
07e0
0660
0fc0
0600
7ff8
3980
0f00
79c0
ENDCHAR
STARTCHAR 3164
ENCODING 12644
SWIDTH 960 0
DWIDTH 12 0
BBX 15 12 -1 -2
BITMAP
000e
1f78
0630
0c60
19bc
1ea0
0d40
3540
3b40
3ff0
6e00
c3f8
ENDCHAR
STARTCHAR 3165
ENCODING 12645
SWIDTH 960 0
DWIDTH 12 0
BBX 15 12 -1 -2
BITMAP
0600
07bc
1dac
3558
06d8
1ccc
7078
0300
3530
6b30
d8d0
0fc0
ENDCHAR
STARTCHAR 3166
ENCODING 12646
SWIDTH 960 0
DWIDTH 12 0
BBX 15 12 -1 -2
BITMAP
0630
0630
07ff
3ea8
0d6c
0ffa
1d50
7bf0
1b50
37e0
3198
70f8
ENDCHAR
STARTCHAR 3167
ENCODING 12647
SWIDTH 960 0
DWIDTH 12 0
BBX 15 12 -1 -2
BITMAP
061e
06f4
07e8
3eb0
0df8
0d80
1ff8
7b00
1bf0
3560
39c0
7770
ENDCHAR
STARTCHAR 3168
ENCODING 12648
SWIDTH 960 0
DWIDTH 12 0
BBX 15 12 -1 -2
BITMAP
0cd0
06d0
01b0
01b0
3330
1e18
1be8
1a60
3660
6cc0
ccc0
cfc0
ENDCHAR
STARTCHAR 3169
ENCODING 12649
SWIDTH 960 0
DWIDTH 12 0
BBX 15 12 -1 -2
BITMAP
1860
0ffe
060c
03f8
30c0
1bf8
0db0
1ff0
35b0
6fe0
cc60
d830
ENDCHAR
STARTCHAR 316a
ENCODING 12650
SWIDTH 960 0
DWIDTH 12 0
BBX 15 12 -1 -2
BITMAP
00c0
034c
06d8
01c0
0770
1b18
0d00
0d30
1be0
0d80
38c0
e070
ENDCHAR
STARTCHAR 316b
ENCODING 12651
SWIDTH 960 0
DWIDTH 12 0
BBX 15 12 -1 -2
BITMAP
0618
061e
0674
1d18
3630
35bc
1b58
1b58
3578
6eb0
c6b0
06f0
ENDCHAR
STARTCHAR 316c
ENCODING 12652
SWIDTH 960 0
DWIDTH 12 0
BBX 15 12 -1 -2
BITMAP
0600
06fe
0668
1dfc
3754
3554
1bf8
18c0
35f0
6e80
c180
0ff0
ENDCHAR
STARTCHAR 316d
ENCODING 12653
SWIDTH 960 0
DWIDTH 12 0
BBX 15 12 -1 -2
BITMAP
01a0
1ffe
01a0
0dd0
0c3c
3dd0
1aa8
7ba8
1878
3560
6db0
cdb0
ENDCHAR
STARTCHAR 316e
ENCODING 12654
SWIDTH 960 0
DWIDTH 12 0
BBX 15 12 -1 -2
BITMAP
1b30
0efe
1c30
37fe
0df8
0db0
3bf8
69d8
1b50
3ed0
36a0
ef30
ENDCHAR
STARTCHAR 316f
ENCODING 12655
SWIDTH 960 0
DWIDTH 12 0
BBX 15 12 -1 -2
BITMAP
06f8
0618
1ef8
1a30
0dfc
3ae8
6f50
19a0
6f70
d550
d6c0
31c0
ENDCHAR
STARTCHAR 3170
ENCODING 12656
SWIDTH 960 0
DWIDTH 12 0
BBX 15 12 -1 -2
BITMAP
0698
1fee
1ab4
3ffc
3554
3fd4
3ef8
3680
3e80
6b30
3f30
f1f0
ENDCHAR
STARTCHAR 3171
ENCODING 12657
SWIDTH 960 0
DWIDTH 12 0
BBX 15 12 -1 -2
BITMAP
0330
1ffe
0330
0600
0f78
1b58
36b0
3ab0
6ee0
1b30
3330
61f0
ENDCHAR
STARTCHAR 3172
ENCODING 12658
SWIDTH 960 0
DWIDTH 12 0
BBX 15 12 -1 -2
BITMAP
0330
1ffe
0330
1ffc
1bec
1ffc
3468
37e8
36d8
7db0
6ed0
7ff0
ENDCHAR
STARTCHAR 3173
ENCODING 12659
SWIDTH 960 0
DWIDTH 12 0
BBX 15 12 -1 -2
BITMAP
0060
0dfc
0660
03fc
03f8
3d18
1bf0
1bd0
1ea0
3b30
6d80
c7f8
ENDCHAR
STARTCHAR 3174
ENCODING 12660
SWIDTH 960 0
DWIDTH 12 0
BBX 15 12 -1 -2
BITMAP
0668
0668
0d58
1b98
3f18
0c1c
7ff0
1b30
6d30
7660
3e60
f7e0
ENDCHAR
STARTCHAR 3175
ENCODING 12661
SWIDTH 960 0
DWIDTH 12 0
BBX 15 12 -1 -2
BITMAP
03de
06d6
1bb6
0f30
3dbc
0ff0
1860
1ff0
1800
3ff0
6ab0
d6e0
ENDCHAR
STARTCHAR 3176
ENCODING 12662
SWIDTH 960 0
DWIDTH 12 0
BBX 15 12 -1 -2
BITMAP
06c0
06fe
0780
3ef8
0d98
0df8
1800
3ff8
76a8
0d50
0d50
3ff8
ENDCHAR
STARTCHAR 3177
ENCODING 12663
SWIDTH 960 0
DWIDTH 12 0
BBX 15 12 -1 -2
BITMAP
0630
0630
1fb0
0cd0
0d98
0f6c
1a60
1a80
36c0
6cc0
cc60
3860
ENDCHAR
STARTCHAR 3178
ENCODING 12664
SWIDTH 960 0
DWIDTH 12 0
BBX 15 12 -1 -2
BITMAP
0c00
06fc
0060
30c0
1bfc
0300
03f0
1a30
3630
6060
c060
c1c0
ENDCHAR
STARTCHAR 3179
ENCODING 12665
SWIDTH 960 0
DWIDTH 12 0
BBX 15 12 -1 -2
BITMAP
0300
0d7e
0d56
1ffc
36ac
07fc
3ec0
0df8
0cd8
3db0
e330
0ee0
ENDCHAR
STARTCHAR 317a
ENCODING 12666
SWIDTH 960 0
DWIDTH 12 0
BBX 15 12 -1 -2
BITMAP
0000
1f3e
1b36
366c
366c
366c
6fd8
6018
6018
c030
fff0
0000
ENDCHAR
STARTCHAR 317b
ENCODING 12667
SWIDTH 960 0
DWIDTH 12 0
BBX 15 12 -1 -2
BITMAP
00c0
00c0
07f8
0db0
0db0
0db0
7ff8
0700
0d80
1980
30c0
e070
ENDCHAR
STARTCHAR 317c
ENCODING 12668
SWIDTH 960 0
DWIDTH 12 0
BBX 15 12 -1 -2
BITMAP
0180
0300
0ffc
1aa8
1bd8
1ff8
3550
3b70
7ff8
0d00
39c0
e070
ENDCHAR
STARTCHAR 317d
ENCODING 12669
SWIDTH 960 0
DWIDTH 12 0
BBX 15 12 -1 -2
BITMAP
0660
0630
0ffe
1a60
3660
0c60
1bf0
38c0
68c0
3180
3180
37f0
ENDCHAR
STARTCHAR 317e
ENCODING 12670
SWIDTH 960 0
DWIDTH 12 0
BBX 15 12 -1 -2
BITMAP
00c0
00c0
0ffe
18c0
1860
19a0
3530
3518
3b18
6ac0
d6c0
03c0
ENDCHAR
STARTCHAR 3221
ENCODING 12833
SWIDTH 960 0
DWIDTH 12 0
BBX 15 12 -1 -2
BITMAP
0600
06fe
06b6
3f6c
0dfc
0d6c
1ed8
7bf8
18c0
3180
3180
7180
ENDCHAR
STARTCHAR 3222
ENCODING 12834
SWIDTH 960 0
DWIDTH 12 0
BBX 15 12 -1 -2
BITMAP
0000
1ffe
1b30
3660
3660
3e60
6ff0
6cc0
6cc0
f980
0180
1ff0
ENDCHAR
STARTCHAR 3223
ENCODING 12835
SWIDTH 960 0
DWIDTH 12 0
BBX 15 12 -1 -2
BITMAP
066c
06fe
1f6c
0dfe
0c60
1dfc
3d58
3bf8
6b58
d7f0
3360
3630
ENDCHAR
STARTCHAR 3224
ENCODING 12836
SWIDTH 960 0
DWIDTH 12 0
BBX 15 12 -1 -2
BITMAP
0060
1fa0
1860
3b7c
3554
3738
6d60
6a60
76e0
c1a0
fd60
0e30
ENDCHAR
STARTCHAR 3225
ENCODING 12837
SWIDTH 960 0
DWIDTH 12 0
BBX 15 12 -1 -2
BITMAP
0078
1fa8
1868
3b5c
359c
36f8
6c30
6ab0
76e0
c0c0
fda0
0e30
ENDCHAR
STARTCHAR 3226
ENCODING 12838
SWIDTH 960 0
DWIDTH 12 0
BBX 15 12 -1 -2
BITMAP
0000
0ffc
00c0
0180
0180
0180
1fe0
0300
0300
0600
0600
fff0
ENDCHAR
STARTCHAR 3227
ENCODING 12839
SWIDTH 960 0
DWIDTH 12 0
BBX 15 12 -1 -2
BITMAP
01b0
0358
0e8c
3b66
0ff0
0018
7ff8
36d8
3668
3cf0
edb0
1c70
ENDCHAR
STARTCHAR 3228
ENCODING 12840
SWIDTH 960 0
DWIDTH 12 0
BBX 15 12 -1 -2
BITMAP
0630
06fe
1eee
06b4
06fc
0df4
3bb8
6d68
1a60
33f8
31a0
3738
ENDCHAR
STARTCHAR 3229
ENCODING 12841
SWIDTH 960 0
DWIDTH 12 0
BBX 15 12 -1 -2
BITMAP
0698
0350
1ffe
330c
0fe0
0c60
1ff8
1800
1ff0
1aa0
6d60
c1c0
ENDCHAR
STARTCHAR 322a
ENCODING 12842
SWIDTH 960 0
DWIDTH 12 0
BBX 15 12 -1 -2
BITMAP
0030
1fbc
186c
3378
3b58
36fc
6d80
6af8
76d8
c370
fe30
c0e0
ENDCHAR
STARTCHAR 322b
ENCODING 12843
SWIDTH 960 0
DWIDTH 12 0
BBX 15 12 -1 -2
BITMAP
0330
0ffc
0330
3ffc
0180
0ff0
1b60
1fe0
1b60
3fc0
19c0
f070
ENDCHAR
STARTCHAR 322c
ENCODING 12844
SWIDTH 960 0
DWIDTH 12 0
BBX 15 12 -1 -2
BITMAP
0000
1ffe
1b36
336c
334c
3ffc
6318
6b68
6b68
dfd0
c030
c070
ENDCHAR
STARTCHAR 322d
ENCODING 12845
SWIDTH 960 0
DWIDTH 12 0
BBX 15 12 -1 -2
BITMAP
0c30
0630
01fe
336c
1b6c
036c
07f8
18c0
30c0
6180
c180
c180
ENDCHAR
STARTCHAR 322e
ENCODING 12846
SWIDTH 960 0
DWIDTH 12 0
BBX 15 12 -1 -2
BITMAP
0330
1ffe
0330
0660
3468
39b0
6b60
1d40
75c0
db40
1a60
7430
ENDCHAR
STARTCHAR 322f
ENCODING 12847
SWIDTH 960 0
DWIDTH 12 0
BBX 15 12 -1 -2
BITMAP
0630
06fc
0cd8
0ffc
1b18
1bf8
7630
37f0
3780
6aa0
76d0
63c0
ENDCHAR
STARTCHAR 3230
ENCODING 12848
SWIDTH 960 0
DWIDTH 12 0
BBX 15 12 -1 -2
BITMAP
07fc
060c
07fc
0c00
0ffc
0da0
1a70
1fd8
3180
6fe0
c300
7ff0
ENDCHAR
STARTCHAR 3231
ENCODING 12849
SWIDTH 960 0
DWIDTH 12 0
BBX 15 12 -1 -2
BITMAP
0660
06fc
06d8
0ffc
1d18
3df8
6a30
1bf0
1b40
36e0
3ad0
33d0
ENDCHAR
STARTCHAR 3232
ENCODING 12850
SWIDTH 960 0
DWIDTH 12 0
BBX 15 12 -1 -2
BITMAP
0030
1efc
1ad8
37fc
3d18
35f8
6a30
7bf0
6b40
d6e0
dad0
d3d0
ENDCHAR
STARTCHAR 3233
ENCODING 12851
SWIDTH 960 0
DWIDTH 12 0
BBX 15 12 -1 -2
BITMAP
06fc
06d8
0670
3ffc
0d6c
1d6c
3ff8
3ad8
6bf8
d5b0
35b0
35b0
ENDCHAR
STARTCHAR 3234
ENCODING 12852
SWIDTH 960 0
DWIDTH 12 0
BBX 15 12 -1 -2
BITMAP
0330
0d30
0d30
1f60
36fc
0660
0ec0
7cc0
0cc0
1980
1980
1ff8
ENDCHAR
STARTCHAR 3235
ENCODING 12853
SWIDTH 960 0
DWIDTH 12 0
BBX 15 12 -1 -2
BITMAP
0000
07f8
0030
0060
00c0
0380
0600
0c00
1800
3030
6030
3ff0
ENDCHAR
STARTCHAR 3236
ENCODING 12854
SWIDTH 960 0
DWIDTH 12 0
BBX 15 12 -1 -2
BITMAP
0660
0660
0ffe
19a0
3b58
1ff4
3aa0
37e0
36a0
6fc0
6330
61f0
ENDCHAR
STARTCHAR 3237
ENCODING 12855
SWIDTH 960 0
DWIDTH 12 0
BBX 15 12 -1 -2
BITMAP
0600
07de
0e36
3a6c
1fec
066c
3758
34d8
34f0
6e80
f180
0180
ENDCHAR
STARTCHAR 3238
ENCODING 12856
SWIDTH 960 0
DWIDTH 12 0
BBX 15 12 -1 -2
BITMAP
0000
0ffc
0ccc
1ff8
1b58
1e78
3ff0
0d00
3530
6b30
d8d0
0fc0
ENDCHAR
STARTCHAR 3239
ENCODING 12857
SWIDTH 960 0
DWIDTH 12 0
BBX 15 12 -1 -2
BITMAP
0c00
06f8
0198
33f0
1b30
03f0
0000
1ff0
3550
6aa0
daa0
dff0
ENDCHAR
STARTCHAR 323a
ENCODING 12858
SWIDTH 960 0
DWIDTH 12 0
BBX 15 12 -1 -2
BITMAP
073e
1eec
06a8
0db0
3ff8
0c18
3df0
3830
6bf0
d5a0
3550
35f0
ENDCHAR
STARTCHAR 323b
ENCODING 12859
SWIDTH 960 0
DWIDTH 12 0
BBX 15 12 -1 -2
BITMAP
00c0
0ffc
0370
0340
3ffc
0000
0fe0
0c60
0fe0
18c0
18c0
1fc0
ENDCHAR
STARTCHAR 323c
ENCODING 12860
SWIDTH 960 0
DWIDTH 12 0
BBX 15 12 -1 -2
BITMAP
0000
1ffe
00c0
0180
01e0
01b0
0330
0300
0300
0600
0600
0600
ENDCHAR
STARTCHAR 323d
ENCODING 12861
SWIDTH 960 0
DWIDTH 12 0
BBX 15 12 -1 -2
BITMAP
0360
0360
066c
06d8
0cd0
3ce0
6980
1980
1980
3330
3330
31f0
ENDCHAR
STARTCHAR 323e
ENCODING 12862
SWIDTH 960 0
DWIDTH 12 0
BBX 15 12 -1 -2
BITMAP
0300
037e
06c0
0680
0df8
3dd0
6b50
1b60
1a60
35c0
3b60
3630
ENDCHAR
STARTCHAR 323f
ENCODING 12863
SWIDTH 960 0
DWIDTH 12 0
BBX 15 12 -1 -2
BITMAP
0300
03ff
060c
0618
0de8
3d68
6ad0
1ad0
1bd0
3060
3060
30e0
ENDCHAR
STARTCHAR 3240
ENCODING 12864
SWIDTH 960 0
DWIDTH 12 0
BBX 15 12 -1 -2
BITMAP
0680
0680
069e
0fd4
1b54
3b54
36a8
36a8
35a8
6b50
7370
6e00
ENDCHAR
STARTCHAR 3241
ENCODING 12865
SWIDTH 960 0
DWIDTH 12 0
BBX 15 12 -1 -2
BITMAP
0300
03fe
0668
06d0
0dfc
3d54
6aa8
1aa8
1aa8
3550
37f0
3400
ENDCHAR
STARTCHAR 3242
ENCODING 12866
SWIDTH 960 0
DWIDTH 12 0
BBX 15 12 -1 -2
BITMAP
0660
0660
07fc
0cc0
18c0
3bfc
3180
3180
37f0
6300
6300
7ff0
ENDCHAR
STARTCHAR 3243
ENCODING 12867
SWIDTH 960 0
DWIDTH 12 0
BBX 15 12 -1 -2
BITMAP
0600
0600
063e
3fac
0dac
0dac
1b58
1b58
3358
36b0
66f0
dc00
ENDCHAR
STARTCHAR 3244
ENCODING 12868
SWIDTH 960 0
DWIDTH 12 0
BBX 15 12 -1 -2
BITMAP
0000
1ffe
0018
0fd0
0cd0
0cd0
19a0
1fa0
1860
00c0
00c0
01c0
ENDCHAR
STARTCHAR 3245
ENCODING 12869
SWIDTH 960 0
DWIDTH 12 0
BBX 15 12 -1 -2
BITMAP
00c0
1ffe
00c0
0ff0
0c30
1ff8
06c0
7ff8
0c00
fdf0
3530
edf0
ENDCHAR
STARTCHAR 3246
ENCODING 12870
SWIDTH 960 0
DWIDTH 12 0
BBX 15 12 -1 -2
BITMAP
0000
1ffe
0180
0ff0
0c30
0ff0
1860
1fe0
0fc0
7980
0f00
f9f0
ENDCHAR
STARTCHAR 3247
ENCODING 12871
SWIDTH 960 0
DWIDTH 12 0
BBX 15 12 -1 -2
BITMAP
0c30
0dfe
0d8c
3ef8
1a60
1bec
35b0
6f60
7db0
36d0
60c0
c380
ENDCHAR
STARTCHAR 3248
ENCODING 12872
SWIDTH 960 0
DWIDTH 12 0
BBX 15 12 -1 -2
BITMAP
00c0
1ffe
1806
37f4
0300
0eb0
3ad0
0da0
36a0
1b60
7330
0e00
ENDCHAR
STARTCHAR 3249
ENCODING 12873
SWIDTH 960 0
DWIDTH 12 0
BBX 15 12 -1 -2
BITMAP
00c0
1ffe
1986
33ec
0660
07e0
0cc0
7ff8
3a70
efd8
0cc0
3b80
ENDCHAR
STARTCHAR 324a
ENCODING 12874
SWIDTH 960 0
DWIDTH 12 0
BBX 15 12 -1 -2
BITMAP
038c
1e6c
0634
0c18
3f58
0e68
3a30
387c
6bd0
3060
3060
3060
ENDCHAR
STARTCHAR 324b
ENCODING 12875
SWIDTH 960 0
DWIDTH 12 0
BBX 15 12 -1 -2
BITMAP
01ee
1ea6
1aa6
35dc
3500
3d7c
6b98
6a68
6a70
f760
0cd0
0d98
ENDCHAR
STARTCHAR 324c
ENCODING 12876
SWIDTH 960 0
DWIDTH 12 0
BBX 15 12 -1 -2
BITMAP
0000
07fc
06cc
0ff8
0d98
0ff8
0300
3ff8
0f80
3ac0
e670
0600
ENDCHAR
STARTCHAR 324d
ENCODING 12877
SWIDTH 960 0
DWIDTH 12 0
BBX 15 12 -1 -2
BITMAP
0600
1fbc
06ac
0d58
1b58
36f8
0300
7ff8
0f80
3ac0
e670
0600
ENDCHAR
STARTCHAR 324e
ENCODING 12878
SWIDTH 960 0
DWIDTH 12 0
BBX 15 12 -1 -2
BITMAP
0030
1fd0
1ebe
3574
3d58
03b0
7e60
06e0
7aa0
d560
f630
1c18
ENDCHAR
STARTCHAR 324f
ENCODING 12879
SWIDTH 960 0
DWIDTH 12 0
BBX 15 12 -1 -2
BITMAP
0c00
06fe
000c
3018
1be8
0368
06d0
1bd0
3030
6060
c060
c0e0
ENDCHAR
STARTCHAR 3250
ENCODING 12880
SWIDTH 960 0
DWIDTH 12 0
BBX 15 12 -1 -2
BITMAP
00c0
00c0
00cc
0d98
0db0
19a0
3300
0380
0680
0d80
38c0
e070
ENDCHAR
STARTCHAR 3251
ENCODING 12881
SWIDTH 960 0
DWIDTH 12 0
BBX 15 12 -1 -2
BITMAP
0000
01fe
1f0c
0de8
0da8
0da8
7d50
1bd0
1830
3860
e060
00e0
ENDCHAR
STARTCHAR 3252
ENCODING 12882
SWIDTH 960 0
DWIDTH 12 0
BBX 15 12 -1 -2
BITMAP
06fc
06cc
1edc
06a8
0da8
0df8
3e18
6ae8
1aa8
3550
35d0
3470
ENDCHAR
STARTCHAR 3253
ENCODING 12883
SWIDTH 960 0
DWIDTH 12 0
BBX 15 12 -1 -2
BITMAP
0038
0fe0
00c0
0180
3ffc
0180
0780
0d40
3b60
e630
0600
0600
ENDCHAR
STARTCHAR 3254
ENCODING 12884
SWIDTH 960 0
DWIDTH 12 0
BBX 15 12 -1 -2
BITMAP
0730
1efe
068c
0df8
3f40
0edc
3b50
6de0
6f50
39b0
3180
3700
ENDCHAR
STARTCHAR 3255
ENCODING 12885
SWIDTH 960 0
DWIDTH 12 0
BBX 15 12 -1 -2
BITMAP
0630
0fbe
1b58
1ffc
198c
1bf4
3318
37e8
3468
6fd0
6030
7ff0
ENDCHAR
STARTCHAR 3256
ENCODING 12886
SWIDTH 960 0
DWIDTH 12 0
BBX 15 12 -1 -2
BITMAP
0330
0330
1ffe
0760
0340
06dc
1db0
35c0
6d80
1b30
1b30
19f0
ENDCHAR
STARTCHAR 3257
ENCODING 12887
SWIDTH 960 0
DWIDTH 12 0
BBX 15 12 -1 -2
BITMAP
0330
1ffe
0330
0000
3ffc
0030
1fa0
19a0
19a0
3f40
00c0
01c0
ENDCHAR
STARTCHAR 3258
ENCODING 12888
SWIDTH 960 0
DWIDTH 12 0
BBX 15 12 -1 -2
BITMAP
0330
1ffe
0330
0660
0c7c
3fac
1b58
1b58
3358
36b0
66f0
dc00
ENDCHAR
STARTCHAR 3259
ENCODING 12889
SWIDTH 960 0
DWIDTH 12 0
BBX 15 12 -1 -2
BITMAP
0330
1ffe
01b0
0c00
0ffc
1830
37a0
75a0
35a0
6f40
60c0
61c0
ENDCHAR
STARTCHAR 325a
ENCODING 12890
SWIDTH 960 0
DWIDTH 12 0
BBX 15 12 -1 -2
BITMAP
0330
1ffe
0330
1ff8
0db0
3ffc
1b60
3ff0
0300
fff0
0600
0600
ENDCHAR
STARTCHAR 325b
ENCODING 12891
SWIDTH 960 0
DWIDTH 12 0
BBX 15 12 -1 -2
BITMAP
0330
1ffe
0330
07f0
0db0
0ff0
1b60
7ff8
0f80
3ac0
e670
0600
ENDCHAR
STARTCHAR 325c
ENCODING 12892
SWIDTH 960 0
DWIDTH 12 0
BBX 15 12 -1 -2
BITMAP
0600
06fe
06d6
3fec
3580
35bc
7fd8
1b68
1d70
37a0
3ed0
e6b0
ENDCHAR
STARTCHAR 325d
ENCODING 12893
SWIDTH 960 0
DWIDTH 12 0
BBX 15 12 -1 -2
BITMAP
0f7e
00d6
1f7e
01ac
1eac
01fc
3cc0
07f8
7de0
daa0
ddb0
f980
ENDCHAR
STARTCHAR 325e
ENCODING 12894
SWIDTH 960 0
DWIDTH 12 0
BBX 15 12 -1 -2
BITMAP
0198
07fe
1e98
37f8
3550
37fc
6aa0
6ff0
7980
3ff0
0300
0300
ENDCHAR
STARTCHAR 325f
ENCODING 12895
SWIDTH 960 0
DWIDTH 12 0
BBX 15 12 -1 -2
BITMAP
01ae
0778
1b66
0ffc
0c30
0ff0
1860
1fe0
1860
3fc0
39c0
e060
ENDCHAR
STARTCHAR 3260
ENCODING 12896
SWIDTH 960 0
DWIDTH 12 0
BBX 15 12 -1 -2
BITMAP
0180
0d9e
07ea
0354
0354
3d54
1aa8
1aa8
1eb8
3b00
6c00
c7f8
ENDCHAR
STARTCHAR 3261
ENCODING 12897
SWIDTH 960 0
DWIDTH 12 0
BBX 15 12 -1 -2
BITMAP
00fc
0ccc
06dc
01a8
03fc
3d0c
1ae8
1aa8
1ae8
1c70
6c00
c7f8
ENDCHAR
STARTCHAR 3262
ENCODING 12898
SWIDTH 960 0
DWIDTH 12 0
BBX 15 12 -1 -2
BITMAP
0ffc
00c0
1ffe
318c
36b4
0000
3ef0
3630
3ef0
61a0
7cc0
63b0
ENDCHAR
STARTCHAR 3263
ENCODING 12899
SWIDTH 960 0
DWIDTH 12 0
BBX 15 12 -1 -2
BITMAP
0630
0630
06fe
3f58
3558
3550
7ee0
1cc0
1ac0
3d40
e660
0c30
ENDCHAR
STARTCHAR 3264
ENCODING 12900
SWIDTH 960 0
DWIDTH 12 0
BBX 15 12 -1 -2
BITMAP
06d0
07b4
06b6
0d60
1ffc
1b60
7750
36d0
3e60
75b0
6d30
6c30
ENDCHAR
STARTCHAR 3265
ENCODING 12901
SWIDTH 960 0
DWIDTH 12 0
BBX 15 12 -1 -2
BITMAP
0068
06dc
06da
0db0
0dfc
35b0
6ba8
6b68
6b30
fee0
06b0
0e30
ENDCHAR
STARTCHAR 3266
ENCODING 12902
SWIDTH 960 0
DWIDTH 12 0
BBX 15 12 -1 -2
BITMAP
01a0
0f68
036c
06c0
3ffc
06d8
0db0
0f50
7de0
1b70
1a30
3830
ENDCHAR
STARTCHAR 3267
ENCODING 12903
SWIDTH 960 0
DWIDTH 12 0
BBX 15 12 -1 -2
BITMAP
0000
03fc
0330
0660
0660
3ffc
01c0
0340
0ec0
3980
e180
0380
ENDCHAR
STARTCHAR 3268
ENCODING 12904
SWIDTH 960 0
DWIDTH 12 0
BBX 15 12 -1 -2
BITMAP
0000
1ffe
00c0
0ff0
35b4
35b4
6fe8
6b68
6b68
dfd0
c030
fff0
ENDCHAR
STARTCHAR 3269
ENCODING 12905
SWIDTH 960 0
DWIDTH 12 0
BBX 15 12 -1 -2
BITMAP
0018
1fd8
1b18
3630
3fb0
31b0
7f60
6cd0
6cd0
d9b0
ff30
0618
ENDCHAR
STARTCHAR 326a
ENCODING 12906
SWIDTH 960 0
DWIDTH 12 0
BBX 15 12 -1 -2
BITMAP
0330
1ffe
0330
1ffc
0c60
0c60
7ff8
0340
0ec0
3980
e180
0380
ENDCHAR
STARTCHAR 326b
ENCODING 12907
SWIDTH 960 0
DWIDTH 12 0
BBX 15 12 -1 -2
BITMAP
0068
06dc
06da
3fb0
35fc
35b0
7fa8
1b68
1f30
3ae0
e6b0
0e30
ENDCHAR
STARTCHAR 326c
ENCODING 12908
SWIDTH 960 0
DWIDTH 12 0
BBX 15 12 -1 -2
BITMAP
0600
1fbe
0ea6
1b4c
377c
0ff0
1860
1fe0
1860
3fc0
1980
f0e0
ENDCHAR
STARTCHAR 326d
ENCODING 12909
SWIDTH 960 0
DWIDTH 12 0
BBX 15 12 -1 -2
BITMAP
006c
1fa8
0dfe
1ab0
3fb0
06f8
1d60
1d60
35f0
eac0
1ac0
3bf0
ENDCHAR
STARTCHAR 326e
ENCODING 12910
SWIDTH 960 0
DWIDTH 12 0
BBX 15 12 -1 -2
BITMAP
0668
075c
0dda
3eb0
1bfc
1eb0
35a8
3f68
3330
6ae0
6eb0
f630
ENDCHAR
STARTCHAR 326f
ENCODING 12911
SWIDTH 960 0
DWIDTH 12 0
BBX 15 12 -1 -2
BITMAP
0600
1fbe
0ea6
1b7c
3700
0ff8
1b00
1fe0
1b00
3ff0
6d50
d8e0
ENDCHAR
STARTCHAR 3270
ENCODING 12912
SWIDTH 960 0
DWIDTH 12 0
BBX 15 12 -1 -2
BITMAP
00c0
00c0
01a0
0760
0c30
3c6c
0cc0
0cc0
18c0
1980
3180
6180
ENDCHAR
STARTCHAR 3271
ENCODING 12913
SWIDTH 960 0
DWIDTH 12 0
BBX 15 12 -1 -2
BITMAP
00c0
00c0
01a0
0760
0ff0
381c
0000
3ff0
0e80
1b80
7ec0
00c0
ENDCHAR
STARTCHAR 3272
ENCODING 12914
SWIDTH 960 0
DWIDTH 12 0
BBX 15 12 -1 -2
BITMAP
0600
07fe
0db6
3acc
1fb8
1afc
3fa0
3560
3ffc
66c0
66c0
cec0
ENDCHAR
STARTCHAR 3273
ENCODING 12915
SWIDTH 960 0
DWIDTH 12 0
BBX 15 12 -1 -2
BITMAP
0000
0ffe
0c06
180c
1bec
1b6c
36d8
37d8
3018
6030
7ff0
0000
ENDCHAR
STARTCHAR 3274
ENCODING 12916
SWIDTH 960 0
DWIDTH 12 0
BBX 15 12 -1 -2
BITMAP
0630
0660
06fc
3f68
0df8
0d68
1bf0
19d0
3fe8
e6f0
0db0
38f0
ENDCHAR
STARTCHAR 3275
ENCODING 12917
SWIDTH 960 0
DWIDTH 12 0
BBX 15 12 -1 -2
BITMAP
0030
06fe
0630
0dfc
3f54
0dfc
18c0
1ffc
3f50
eac0
37a0
0e30
ENDCHAR
STARTCHAR 3276
ENCODING 12918
SWIDTH 960 0
DWIDTH 12 0
BBX 15 12 -1 -2
BITMAP
0000
1efe
0686
0d74
1b54
3b54
1ae8
6a18
3bf8
1800
6c00
c7f0
ENDCHAR
STARTCHAR 3277
ENCODING 12919
SWIDTH 960 0
DWIDTH 12 0
BBX 15 12 -1 -2
BITMAP
0660
0660
06fc
0cd8
1ed8
3dfc
6980
19c0
1bc0
36c0
3460
3830
ENDCHAR
STARTCHAR 3278
ENCODING 12920
SWIDTH 960 0
DWIDTH 12 0
BBX 15 12 -1 -2
BITMAP
06fc
06cc
0678
0c60
1ed0
3d9c
68c0
18c0
1bf0
3180
3180
3ff0
ENDCHAR
STARTCHAR 3279
ENCODING 12921
SWIDTH 960 0
DWIDTH 12 0
BBX 15 12 -1 -2
BITMAP
0660
067e
06c0
0df8
1da8
3f68
6bf8
1ad0
1ad0
37f0
3060
31c0
ENDCHAR
STARTCHAR 327a
ENCODING 12922
SWIDTH 960 0
DWIDTH 12 0
BBX 15 12 -1 -2
BITMAP
0600
06fe
06d8
0db4
1db4
1ef8
3ba0
6b60
1ae0
36a0
3b60
3c30
ENDCHAR
STARTCHAR 327b
ENCODING 12923
SWIDTH 960 0
DWIDTH 12 0
BBX 15 12 -1 -2
BITMAP
0630
06fe
0630
0ffc
1d54
3dfc
68c0
1ffc
1b70
36c0
3ba0
3630
ENDCHAR
STARTCHAR 327c
ENCODING 12924
SWIDTH 960 0
DWIDTH 12 0
BBX 15 12 -1 -2
BITMAP
0068
006c
1ffe
00c0
0d58
0d50
7f50
1ae0
36c0
6d50
ce70
0c30
ENDCHAR
STARTCHAR 327d
ENCODING 12925
SWIDTH 960 0
DWIDTH 12 0
BBX 15 12 -1 -2
BITMAP
0600
06fe
06c6
3e8c
0dfc
0c00
1ff8
78d8
1998
3330
3630
74e0
ENDCHAR
STARTCHAR 327e
ENCODING 12926
SWIDTH 960 0
DWIDTH 12 0
BBX 15 12 -1 -2
BITMAP
0060
1fa0
01be
0358
3f98
31b0
66a0
60c0
66c0
3d40
0660
1c30
ENDCHAR
STARTCHAR 3321
ENCODING 13089
SWIDTH 960 0
DWIDTH 12 0
BBX 15 12 -1 -2
BITMAP
060c
0c0c
1fb4
3558
3f68
3558
7d38
1df0
1eb0
3f30
69b0
cff0
ENDCHAR
STARTCHAR 3322
ENCODING 13090
SWIDTH 960 0
DWIDTH 12 0
BBX 15 12 -1 -2
BITMAP
00c0
1efe
1ac0
35f8
36a8
3da8
6ff8
6ad0
6ad0
f7f0
0060
01c0
ENDCHAR
STARTCHAR 3323
ENCODING 13091
SWIDTH 960 0
DWIDTH 12 0
BBX 15 12 -1 -2
BITMAP
060e
060d
07ff
3e18
0da8
1ea8
3bf4
3b54
6ad0
d4f8
38d8
3198
ENDCHAR
STARTCHAR 3324
ENCODING 13092
SWIDTH 960 0
DWIDTH 12 0
BBX 15 12 -1 -2
BITMAP
0cc0
06fe
00c0
33f8
1aa8
0368
03f8
1ad0
36d0
6ff0
c060
c1c0
ENDCHAR
STARTCHAR 3325
ENCODING 13093
SWIDTH 960 0
DWIDTH 12 0
BBX 15 12 -1 -2
BITMAP
0000
07fe
0660
0cd8
0d58
0ed8
1da0
1980
3380
6680
ccc0
3870
ENDCHAR
STARTCHAR 3326
ENCODING 13094
SWIDTH 960 0
DWIDTH 12 0
BBX 15 12 -1 -2
BITMAP
0000
07fc
06cc
0ff8
0d98
0ff8
0680
18e0
74d8
0d80
1980
3180
ENDCHAR
STARTCHAR 3327
ENCODING 13095
SWIDTH 960 0
DWIDTH 12 0
BBX 15 12 -1 -2
BITMAP
0c60
0c6e
0fb8
18c0
1b4c
3dbc
0600
1fe0
1860
3fc0
30c0
3fc0
ENDCHAR
STARTCHAR 3328
ENCODING 13096
SWIDTH 960 0
DWIDTH 12 0
BBX 15 12 -1 -2
BITMAP
0630
0630
1e68
1ad8
0d74
3a00
6ff8
1980
6d60
d6c0
d7a0
3060
ENDCHAR
STARTCHAR 3329
ENCODING 13097
SWIDTH 960 0
DWIDTH 12 0
BBX 15 12 -1 -2
BITMAP
0318
1ffe
0330
03a0
0340
0ec0
1ae0
76d8
0cc0
0d80
1980
3180
ENDCHAR
STARTCHAR 332a
ENCODING 13098
SWIDTH 960 0
DWIDTH 12 0
BBX 15 12 -1 -2
BITMAP
07be
1d1a
0ff4
1adc
1fb0
31fc
6760
1fe0
1b60
3fc0
06e0
ffb0
ENDCHAR
STARTCHAR 332b
ENCODING 13099
SWIDTH 960 0
DWIDTH 12 0
BBX 15 12 -1 -2
BITMAP
1fbe
19a6
1fbe
334c
3f7c
300c
6fe8
6698
6fe8
db30
d330
c370
ENDCHAR
STARTCHAR 332c
ENCODING 13100
SWIDTH 960 0
DWIDTH 12 0
BBX 15 12 -1 -2
BITMAP
01b0
1eb6
1afc
3560
3b6c
3bbc
6d80
6bf0
7a30
cfe0
cc60
cfe0
ENDCHAR
STARTCHAR 332d
ENCODING 13101
SWIDTH 960 0
DWIDTH 12 0
BBX 15 12 -1 -2
BITMAP
0000
07f8
0618
0c30
0ff0
0c30
1fe0
1860
1860
3fc0
1d80
70e0
ENDCHAR
STARTCHAR 332e
ENCODING 13102
SWIDTH 960 0
DWIDTH 12 0
BBX 15 12 -1 -2
BITMAP
0600
1abc
1fac
00d8
3f58
00d8
7eb0
66b0
7eb0
6b60
7e60
ec78
ENDCHAR
STARTCHAR 332f
ENCODING 13103
SWIDTH 960 0
DWIDTH 12 0
BBX 15 12 -1 -2
BITMAP
0330
0330
1fd0
0dfc
1a6c
3e6c
1ad8
36d8
6d98
3530
6630
cce0
ENDCHAR
STARTCHAR 3330
ENCODING 13104
SWIDTH 960 0
DWIDTH 12 0
BBX 15 12 -1 -2
BITMAP
0630
0630
07d0
0da0
19a0
3d70
6d50
06d8
0cc0
1980
3180
6180
ENDCHAR
STARTCHAR 3331
ENCODING 13105
SWIDTH 960 0
DWIDTH 12 0
BBX 15 12 -1 -2
BITMAP
0030
0030
1ffe
3660
36d8
36f0
6cc0
6db0
6e60
fbc0
0760
1c30
ENDCHAR
STARTCHAR 3332
ENCODING 13106
SWIDTH 960 0
DWIDTH 12 0
BBX 15 12 -1 -2
BITMAP
00c0
1ffe
18c6
37f4
0180
0ff0
0300
3ff0
0000
3fc0
30c0
3fc0
ENDCHAR
STARTCHAR 3333
ENCODING 13107
SWIDTH 960 0
DWIDTH 12 0
BBX 15 12 -1 -2
BITMAP
0ccc
0ffc
0000
1ffc
18c0
1bf8
3180
3ff8
3180
6fe0
c300
3ff0
ENDCHAR
STARTCHAR 3334
ENCODING 13108
SWIDTH 960 0
DWIDTH 12 0
BBX 15 12 -1 -2
BITMAP
0600
06ee
06aa
0dd4
1f54
3d7e
6bb0
1b30
1ab0
3768
3da8
3338
ENDCHAR
STARTCHAR 3335
ENCODING 13109
SWIDTH 960 0
DWIDTH 12 0
BBX 15 12 -1 -2
BITMAP
0600
06ee
06aa
3fd4
0d54
1d7e
3fb0
3b30
6ab0
d768
35a8
3338
ENDCHAR
STARTCHAR 3336
ENCODING 13110
SWIDTH 960 0
DWIDTH 12 0
BBX 15 12 -1 -2
BITMAP
0c00
07fe
0330
36f8
1a60
07fc
0cc0
1cc0
35f0
6980
d980
d7f0
ENDCHAR
STARTCHAR 3337
ENCODING 13111
SWIDTH 960 0
DWIDTH 12 0
BBX 15 12 -1 -2
BITMAP
0000
1f7c
06cc
0df8
1998
1ffc
7430
37f8
35b0
69a0
7860
00e0
ENDCHAR
STARTCHAR 3338
ENCODING 13112
SWIDTH 960 0
DWIDTH 12 0
BBX 15 12 -1 -2
BITMAP
0330
1ffe
0330
0180
1ff8
0180
7ff8
0c60
3ff0
3550
3540
fff0
ENDCHAR
STARTCHAR 3339
ENCODING 13113
SWIDTH 960 0
DWIDTH 12 0
BBX 15 12 -1 -2
BITMAP
06c0
06de
1de0
35bc
0d98
1be8
3330
77d0
3330
67a0
6c60
60e0
ENDCHAR
STARTCHAR 333a
ENCODING 13114
SWIDTH 960 0
DWIDTH 12 0
BBX 15 12 -1 -2
BITMAP
0798
0018
1ffe
0060
1e68
01d0
3d60
00d8
3fb0
6ec0
6da0
7f30
ENDCHAR
STARTCHAR 333b
ENCODING 13115
SWIDTH 960 0
DWIDTH 12 0
BBX 15 12 -1 -2
BITMAP
06d4
0754
0dfc
3b00
3ffc
0c00
3ff0
1b30
6ff0
7a60
3d40
e7f0
ENDCHAR
STARTCHAR 333c
ENCODING 13116
SWIDTH 960 0
DWIDTH 12 0
BBX 15 12 -1 -2
BITMAP
0f98
0d98
0ffe
1da0
31a0
3f58
3760
3ed8
37b0
7ec0
6da0
6f30
ENDCHAR
STARTCHAR 333d
ENCODING 13117
SWIDTH 960 0
DWIDTH 12 0
BBX 15 12 -1 -2
BITMAP
0c00
07fc
036c
37f8
1ad8
06d8
0ff0
1980
37f0
6300
c300
dff0
ENDCHAR
STARTCHAR 333e
ENCODING 13118
SWIDTH 960 0
DWIDTH 12 0
BBX 15 12 -1 -2
BITMAP
0fdc
0334
1ff6
1ab8
1fa8
37f0
6358
7ff8
0d60
3fe0
e8d0
1fc0
ENDCHAR
STARTCHAR 333f
ENCODING 13119
SWIDTH 960 0
DWIDTH 12 0
BBX 15 12 -1 -2
BITMAP
0630
0630
06fc
3f60
3560
35fc
7ec0
18c0
1ff0
3580
3d80
e7f0
ENDCHAR
STARTCHAR 3340
ENCODING 13120
SWIDTH 960 0
DWIDTH 12 0
BBX 15 12 -1 -2
BITMAP
01fe
0600
06fc
0d98
3f98
0df8
1b30
1b30
1df0
f000
0000
1ff0
ENDCHAR
STARTCHAR 3341
ENCODING 13121
SWIDTH 960 0
DWIDTH 12 0
BBX 15 12 -1 -2
BITMAP
0630
0630
07fe
3e60
0dfc
1dac
3d58
3b58
6b58
d6b0
3180
3180
ENDCHAR
STARTCHAR 3342
ENCODING 13122
SWIDTH 960 0
DWIDTH 12 0
BBX 15 12 -1 -2
BITMAP
0600
067e
0660
3f7c
3550
3550
7eb8
1da8
1bd8
3eb0
ed30
06e0
ENDCHAR
STARTCHAR 3343
ENCODING 13123
SWIDTH 960 0
DWIDTH 12 0
BBX 15 12 -1 -2
BITMAP
0630
0630
0d7e
1b4c
3f6c
0dac
7ed8
19a8
6de8
74d0
3830
e0e0
ENDCHAR
STARTCHAR 3344
ENCODING 13124
SWIDTH 960 0
DWIDTH 12 0
BBX 15 12 -1 -2
BITMAP
0306
0fd6
0356
3fec
06ac
3fec
3558
3f58
3558
7e30
1f30
f070
ENDCHAR
STARTCHAR 3345
ENCODING 13125
SWIDTH 960 0
DWIDTH 12 0
BBX 15 12 -1 -2
BITMAP
00cc
1ecc
1aee
3598
37fe
35a8
6b58
6bf8
7df8
daa8
36a8
0760
ENDCHAR
STARTCHAR 3346
ENCODING 13126
SWIDTH 960 0
DWIDTH 12 0
BBX 15 12 -1 -2
BITMAP
0180
01f8
0730
0d60
19c0
0760
0c60
1ff0
7468
18c0
18c0
1fc0
ENDCHAR
STARTCHAR 3347
ENCODING 13127
SWIDTH 960 0
DWIDTH 12 0
BBX 15 12 -1 -2
BITMAP
00c0
0ffe
0d80
1ffc
1ba8
1ab0
3760
3f58
36d8
7fb0
cde0
1d80
ENDCHAR
STARTCHAR 3348
ENCODING 13128
SWIDTH 960 0
DWIDTH 12 0
BBX 15 12 -1 -2
BITMAP
0630
0630
06fe
3f00
0d60
0d60
1ec0
7aa0
1ab0
3770
3bb0
7030
ENDCHAR
STARTCHAR 3349
ENCODING 13129
SWIDTH 960 0
DWIDTH 12 0
BBX 15 12 -1 -2
BITMAP
06a6
06d4
06fc
3f0c
0df8
0d98
1df0
7b30
1bf0
3340
36d0
7470
ENDCHAR
STARTCHAR 334a
ENCODING 13130
SWIDTH 960 0
DWIDTH 12 0
BBX 15 12 -1 -2
BITMAP
0660
067c
066c
3ea8
0d70
1cd8
3d98
3bf4
69b0
d360
3360
33e0
ENDCHAR
STARTCHAR 334b
ENCODING 13131
SWIDTH 960 0
DWIDTH 12 0
BBX 15 12 -1 -2
BITMAP
0630
0630
07fe
3ec0
0cd0
1ee0
3b40
39b0
6b60
d1c0
3360
3630
ENDCHAR
STARTCHAR 334c
ENCODING 13132
SWIDTH 960 0
DWIDTH 12 0
BBX 15 12 -1 -2
BITMAP
0678
1fa8
0668
1f5c
018c
3f00
66f0
3c60
35c0
6d80
6b40
ce60
ENDCHAR
STARTCHAR 334d
ENCODING 13133
SWIDTH 960 0
DWIDTH 12 0
BBX 15 12 -1 -2
BITMAP
1b58
0ffe
1cd0
35b0
0dfc
0f60
3bf8
6ac0
37f8
36c0
e380
6ef0
ENDCHAR
STARTCHAR 334e
ENCODING 13134
SWIDTH 960 0
DWIDTH 12 0
BBX 15 12 -1 -2
BITMAP
0030
1ffe
06a6
0cd0
19fc
1fb0
75f0
3560
35f0
6ac0
7ac0
07f0
ENDCHAR
STARTCHAR 334f
ENCODING 13135
SWIDTH 960 0
DWIDTH 12 0
BBX 15 12 -1 -2
BITMAP
0768
1efe
0678
3ee0
0dfc
1fa0
3df0
3b40
6bf8
d6c0
3380
36f0
ENDCHAR
STARTCHAR 3350
ENCODING 13136
SWIDTH 960 0
DWIDTH 12 0
BBX 15 12 -1 -2
BITMAP
0698
0350
1ffe
3434
37f4
0c30
1fe0
1860
1fe0
0d00
3b30
e1f0
ENDCHAR
STARTCHAR 3351
ENCODING 13137
SWIDTH 960 0
DWIDTH 12 0
BBX 15 12 -1 -2
BITMAP
0180
03f0
0660
3ff8
0d98
0ff8
1b30
1ff0
1830
3060
3060
60e0
ENDCHAR
STARTCHAR 3352
ENCODING 13138
SWIDTH 960 0
DWIDTH 12 0
BBX 15 12 -1 -2
BITMAP
0330
0330
0ffc
0660
3ffc
0ed0
1aa0
3bb0
76a8
3540
6ec0
6ec0
ENDCHAR
STARTCHAR 3353
ENCODING 13139
SWIDTH 960 0
DWIDTH 12 0
BBX 15 12 -1 -2
BITMAP
0630
1f30
06fe
3f50
3598
3f34
6b60
7ea0
19c0
fd40
3660
3430
ENDCHAR
STARTCHAR 3354
ENCODING 13140
SWIDTH 960 0
DWIDTH 12 0
BBX 15 12 -1 -2
BITMAP
0300
1ffc
0fd4
19a8
1fb0
0068
3f58
06d8
7f50
19e0
1980
3980
ENDCHAR
STARTCHAR 3355
ENCODING 13141
SWIDTH 960 0
DWIDTH 12 0
BBX 15 12 -1 -2
BITMAP
1fbe
19a6
1fbe
334c
3ffc
36cc
6b18
6d98
7fd8
eb50
df30
c070
ENDCHAR
STARTCHAR 3356
ENCODING 13142
SWIDTH 960 0
DWIDTH 12 0
BBX 15 12 -1 -2
BITMAP
1efe
1a00
1dfc
3b18
35f8
3400
6bf8
6aa8
7b78
cdd0
cdb0
cdb0
ENDCHAR
STARTCHAR 3357
ENCODING 13143
SWIDTH 960 0
DWIDTH 12 0
BBX 15 12 -1 -2
BITMAP
0330
1ffe
0330
07e0
0180
1ff8
3330
3ff0
0300
fff0
0600
0600
ENDCHAR
STARTCHAR 3358
ENCODING 13144
SWIDTH 960 0
DWIDTH 12 0
BBX 15 12 -1 -2
BITMAP
06cc
0368
1ffe
300c
37ec
01c0
0300
3ff8
0300
0600
0600
0e00
ENDCHAR
STARTCHAR 3359
ENCODING 13145
SWIDTH 960 0
DWIDTH 12 0
BBX 15 12 -1 -2
BITMAP
0038
07e0
0600
0ff8
0c60
0c60
7ff8
0300
3330
6660
6660
7fe0
ENDCHAR
STARTCHAR 335a
ENCODING 13146
SWIDTH 960 0
DWIDTH 12 0
BBX 15 12 -1 -2
BITMAP
0180
1bf6
0d34
07e0
0e78
3bec
0300
7ff8
0f80
3ac0
e670
0600
ENDCHAR
STARTCHAR 335b
ENCODING 13147
SWIDTH 960 0
DWIDTH 12 0
BBX 15 12 -1 -2
BITMAP
0300
1ffe
19d0
1f7c
1b4c
3afc
6d98
36f8
7f98
6df0
6da0
7d30
ENDCHAR
STARTCHAR 335c
ENCODING 13148
SWIDTH 960 0
DWIDTH 12 0
BBX 15 12 -1 -2
BITMAP
0000
1ffe
1ab0
3f7c
00cc
1f7c
0198
7ff8
1998
7df0
0db0
3b18
ENDCHAR
STARTCHAR 335d
ENCODING 13149
SWIDTH 960 0
DWIDTH 12 0
BBX 15 12 -1 -2
BITMAP
066c
066c
07f4
3ed8
0df8
0cdc
1db4
7bd4
19b0
33a0
3660
7060
ENDCHAR
STARTCHAR 335e
ENCODING 13150
SWIDTH 960 0
DWIDTH 12 0
BBX 15 12 -1 -2
BITMAP
0c60
0c60
0ffe
1ab0
3360
0180
7ff8
00c0
18c0
1980
1b00
fff0
ENDCHAR
STARTCHAR 335f
ENCODING 13151
SWIDTH 960 0
DWIDTH 12 0
BBX 15 12 -1 -2
BITMAP
06fe
06aa
06fc
3f6c
0de8
1d78
3fd8
38c0
6bf0
d180
3180
37f0
ENDCHAR
STARTCHAR 3360
ENCODING 13152
SWIDTH 960 0
DWIDTH 12 0
BBX 15 12 -1 -2
BITMAP
0600
06fe
06d4
3ef8
0da8
1ff8
3a00
3bf8
6ad0
d7e0
36a0
37f0
ENDCHAR
STARTCHAR 3361
ENCODING 13153
SWIDTH 960 0
DWIDTH 12 0
BBX 15 12 -1 -2
BITMAP
0600
06fe
06c6
3efc
0d80
1dfc
3d60
3bf8
6a60
37e8
34d8
3478
ENDCHAR
STARTCHAR 3362
ENCODING 13154
SWIDTH 960 0
DWIDTH 12 0
BBX 15 12 -1 -2
BITMAP
063c
07ec
0d6c
1f5a
35ec
3f7c
6bd0
7eb0
1db0
7550
6bb0
cd18
ENDCHAR
STARTCHAR 3363
ENCODING 13155
SWIDTH 960 0
DWIDTH 12 0
BBX 15 12 -1 -2
BITMAP
0c60
06dc
018c
03d8
3318
1bf8
0300
1bf8
3618
6ab0
c6d0
c0e0
ENDCHAR
STARTCHAR 3364
ENCODING 13156
SWIDTH 960 0
DWIDTH 12 0
BBX 15 12 -1 -2
BITMAP
0306
1ff6
1b76
0fac
066c
1fac
0cd8
7fd8
00d8
7e30
6630
7e70
ENDCHAR
STARTCHAR 3365
ENCODING 13157
SWIDTH 960 0
DWIDTH 12 0
BBX 15 12 -1 -2
BITMAP
01fc
1e8c
1afc
3518
35f8
3500
6bf8
7ad8
1f98
34d0
07d0
00e0
ENDCHAR
STARTCHAR 3366
ENCODING 13158
SWIDTH 960 0
DWIDTH 12 0
BBX 15 12 -1 -2
BITMAP
0630
0630
0670
0cd0
1e98
3f74
6c00
1bf0
1b30
3660
3660
37e0
ENDCHAR
STARTCHAR 3367
ENCODING 13159
SWIDTH 960 0
DWIDTH 12 0
BBX 15 12 -1 -2
BITMAP
061c
06f0
0630
3e60
0dfc
0c60
1cc0
7bf0
1b30
3660
3660
77e0
ENDCHAR
STARTCHAR 3368
ENCODING 13160
SWIDTH 960 0
DWIDTH 12 0
BBX 15 12 -1 -2
BITMAP
0c1c
06f0
0060
30c0
1bfc
00c0
0180
1bf0
3630
6c60
cc60
cfe0
ENDCHAR
STARTCHAR 3369
ENCODING 13161
SWIDTH 960 0
DWIDTH 12 0
BBX 15 12 -1 -2
BITMAP
0dfc
068c
01fc
3318
1bf8
0180
07f8
1d68
3398
66d0
c3d0
c0e0
ENDCHAR
STARTCHAR 336a
ENCODING 13162
SWIDTH 960 0
DWIDTH 12 0
BBX 15 12 -1 -2
BITMAP
0cfc
06cc
00dc
31a8
1bfe
069a
0df4
1b30
33f0
6660
c660
c6e0
ENDCHAR
STARTCHAR 336b
ENCODING 13163
SWIDTH 960 0
DWIDTH 12 0
BBX 15 12 -1 -2
BITMAP
0330
1ffe
0330
07f0
0c30
0ff0
1860
1ff8
3dd8
eed0
0fd0
00e0
ENDCHAR
STARTCHAR 336c
ENCODING 13164
SWIDTH 960 0
DWIDTH 12 0
BBX 15 12 -1 -2
BITMAP
06fc
06cc
1efc
0698
0df8
0f40
3df8
6b68
1d98
36d0
33d0
30e0
ENDCHAR
STARTCHAR 336d
ENCODING 13165
SWIDTH 960 0
DWIDTH 12 0
BBX 15 12 -1 -2
BITMAP
0630
1ffe
06b4
3ff8
3560
3ff8
6ac0
7ff8
1800
ffe0
3660
37e0
ENDCHAR
STARTCHAR 336e
ENCODING 13166
SWIDTH 960 0
DWIDTH 12 0
BBX 15 12 -1 -2
BITMAP
0000
03f8
0318
0630
07f0
0630
0c60
0fe0
0c60
18c0
18c0
7ff0
ENDCHAR
STARTCHAR 336f
ENCODING 13167
SWIDTH 960 0
DWIDTH 12 0
BBX 15 12 -1 -2
BITMAP
0600
077e
0d5a
1ff4
35e8
3fb4
6bcc
7e60
1df8
74c0
68c0
c7f8
ENDCHAR
STARTCHAR 3370
ENCODING 13168
SWIDTH 960 0
DWIDTH 12 0
BBX 15 12 -1 -2
BITMAP
0030
0030
1f30
3660
37fc
3660
6cc0
6cc0
6cc0
f980
0180
0180
ENDCHAR
STARTCHAR 3371
ENCODING 13169
SWIDTH 960 0
DWIDTH 12 0
BBX 15 12 -1 -2
BITMAP
06d8
07fe
06d8
3ec0
0ce0
1dac
3b70
3d40
6b40
d680
36b0
36f0
ENDCHAR
STARTCHAR 3372
ENCODING 13170
SWIDTH 960 0
DWIDTH 12 0
BBX 15 12 -1 -2
BITMAP
06d8
06fe
06d8
3ffc
0da8
1ffc
3d50
3bf8
68c0
d7f0
3180
3180
ENDCHAR
STARTCHAR 3373
ENCODING 13171
SWIDTH 960 0
DWIDTH 12 0
BBX 15 12 -1 -2
BITMAP
0d60
1fa0
0d7e
1e8c
0d74
3f34
6a68
7ee8
19b0
fd00
3330
31f0
ENDCHAR
STARTCHAR 3374
ENCODING 13172
SWIDTH 960 0
DWIDTH 12 0
BBX 15 12 -1 -2
BITMAP
0630
06d0
06fc
3fa0
0d60
1ffc
3cc0
3ae0
6be0
d6a0
35b0
3180
ENDCHAR
STARTCHAR 3375
ENCODING 13173
SWIDTH 960 0
DWIDTH 12 0
BBX 15 12 -1 -2
BITMAP
0340
0efc
0dac
1bd8
1b58
1f78
37b0
0000
0e80
1b30
3330
e1f0
ENDCHAR
STARTCHAR 3376
ENCODING 13174
SWIDTH 960 0
DWIDTH 12 0
BBX 15 12 -1 -2
BITMAP
00c0
1ffe
1b54
0dd8
0180
1ff8
1b60
3ff0
3330
7fe0
0630
03f0
ENDCHAR
STARTCHAR 3377
ENCODING 13175
SWIDTH 960 0
DWIDTH 12 0
BBX 15 12 -1 -2
BITMAP
0330
1ffe
0368
19f8
0cc0
33f8
36b0
07f0
1ab0
37e0
6d60
cd60
ENDCHAR
STARTCHAR 3378
ENCODING 13176
SWIDTH 960 0
DWIDTH 12 0
BBX 15 12 -1 -2
BITMAP
01a0
0330
0ea8
398c
0760
3c3c
1fe0
0300
3ff0
36c0
1a80
fff0
ENDCHAR
STARTCHAR 3379
ENCODING 13177
SWIDTH 960 0
DWIDTH 12 0
BBX 15 12 -1 -2
BITMAP
0668
06fe
0d68
1bfc
3f54
0dfc
7ea8
1bf8
6da0
7760
3d50
e340
ENDCHAR
STARTCHAR 337a
ENCODING 13178
SWIDTH 960 0
DWIDTH 12 0
BBX 15 12 -1 -2
BITMAP
0030
00de
1ed0
37fe
356c
35bc
6ae8
6bf8
7ad8
cdd0
0eb0
0ff0
ENDCHAR
STARTCHAR 337b
ENCODING 13179
SWIDTH 960 0
DWIDTH 12 0
BBX 15 12 -1 -2
BITMAP
0030
1fbc
1aac
3578
3f40
357c
6a80
7ef8
1818
36b0
36b0
34e0
ENDCHAR
STARTCHAR 337c
ENCODING 13180
SWIDTH 960 0
DWIDTH 12 0
BBX 15 12 -1 -2
BITMAP
0600
06fe
0670
3ec0
0df8
1d98
3d30
3bf0
6b30
d660
3660
37e0
ENDCHAR
STARTCHAR 337d
ENCODING 13181
SWIDTH 960 0
DWIDTH 12 0
BBX 15 12 -1 -2
BITMAP
0330
1ffe
0330
1ff0
0660
0340
7ff8
0730
1d60
3600
e600
0e00
ENDCHAR
STARTCHAR 337e
ENCODING 13182
SWIDTH 960 0
DWIDTH 12 0
BBX 15 12 -1 -2
BITMAP
0330
1ffe
0350
3ffc
300c
1ff8
1860
1fe0
1860
3fc0
0000
fff0
ENDCHAR
STARTCHAR 3421
ENCODING 13345
SWIDTH 960 0
DWIDTH 12 0
BBX 15 12 -1 -2
BITMAP
00c0
1f5e
06e6
0dcc
3ffc
31b0
7bb8
1b98
1d58
3630
3630
e6e0
ENDCHAR
STARTCHAR 3422
ENCODING 13346
SWIDTH 960 0
DWIDTH 12 0
BBX 15 12 -1 -2
BITMAP
0006
00d6
01b6
01ac
3b6c
0e6c
0cd8
0ed8
1ad8
3630
6030
c070
ENDCHAR
STARTCHAR 3423
ENCODING 13347
SWIDTH 960 0
DWIDTH 12 0
BBX 15 12 -1 -2
BITMAP
0330
1ffe
0330
0318
0358
36d8
1ab0
0db0
1db0
3560
6c60
c0e0
ENDCHAR
STARTCHAR 3424
ENCODING 13348
SWIDTH 960 0
DWIDTH 12 0
BBX 15 12 -1 -2
BITMAP
0000
1ffc
0300
0600
07e0
0660
0ec0
0d40
18d8
37b0
3db0
e0f0
ENDCHAR
STARTCHAR 3425
ENCODING 13349
SWIDTH 960 0
DWIDTH 12 0
BBX 15 12 -1 -2
BITMAP
0660
1fa0
06fe
3f80
3378
3f30
6660
7ec0
1b80
fe30
3630
33f0
ENDCHAR
STARTCHAR 3426
ENCODING 13350
SWIDTH 960 0
DWIDTH 12 0
BBX 15 12 -1 -2
BITMAP
0300
03fc
038c
0718
0d18
3df8
6800
1aa0
1aa0
3550
3b50
3070
ENDCHAR
STARTCHAR 3427
ENCODING 13351
SWIDTH 960 0
DWIDTH 12 0
BBX 15 12 -1 -2
BITMAP
0000
1ffe
181a
3fb4
00fc
3fb0
1aa0
1aa0
3660
35d0
6c30
c7f0
ENDCHAR
STARTCHAR 3428
ENCODING 13352
SWIDTH 960 0
DWIDTH 12 0
BBX 15 12 -1 -2
BITMAP
00c0
1ffe
1b66
3ff4
06c0
1ff0
0d80
7ff0
3ac0
66c0
dc70
0700
ENDCHAR
STARTCHAR 3429
ENCODING 13353
SWIDTH 960 0
DWIDTH 12 0
BBX 15 12 -1 -2
BITMAP
0006
0fd6
0336
066c
066c
3fac
0cd8
0cd8
0cd8
1830
1830
1870
ENDCHAR
STARTCHAR 342a
ENCODING 13354
SWIDTH 960 0
DWIDTH 12 0
BBX 15 12 -1 -2
BITMAP
0db0
1fd0
0db0
1ffc
1b6c
1f6c
36d8
7f58
7ad8
eeb0
c330
7ee0
ENDCHAR
STARTCHAR 342b
ENCODING 13355
SWIDTH 960 0
DWIDTH 12 0
BBX 15 12 -1 -2
BITMAP
0c30
0fd0
0db0
1ffc
366c
1fac
74d8
3f58
34d8
7eb0
6b30
7ee0
ENDCHAR
STARTCHAR 342c
ENCODING 13356
SWIDTH 960 0
DWIDTH 12 0
BBX 15 12 -1 -2
BITMAP
00c0
06d8
0350
1ff8
0340
3ffc
0cc0
1fe0
70d8
1f80
1860
0fe0
ENDCHAR
STARTCHAR 342d
ENCODING 13357
SWIDTH 960 0
DWIDTH 12 0
BBX 15 12 -1 -2
BITMAP
0060
007c
1ed8
35fc
3554
35b4
6b78
6ad8
7ffc
0340
0670
1c18
ENDCHAR
STARTCHAR 342e
ENCODING 13358
SWIDTH 960 0
DWIDTH 12 0
BBX 15 12 -1 -2
BITMAP
00cc
06fe
06cc
0df8
3e98
0df8
1b30
1ff8
36a0
ef60
0c00
07f0
ENDCHAR
STARTCHAR 342f
ENCODING 13359
SWIDTH 960 0
DWIDTH 12 0
BBX 15 12 -1 -2
BITMAP
00c0
0ffc
01b0
06a0
01c0
0f70
0c60
7ff8
1cd0
75a0
39c0
ef70
ENDCHAR
STARTCHAR 3430
ENCODING 13360
SWIDTH 960 0
DWIDTH 12 0
BBX 15 12 -1 -2
BITMAP
00c0
1ffe
1806
37ec
0000
0000
7ff8
0680
0d80
1b30
3330
e1f0
ENDCHAR
STARTCHAR 3431
ENCODING 13361
SWIDTH 960 0
DWIDTH 12 0
BBX 15 12 -1 -2
BITMAP
00c0
1ffe
1806
37ec
0660
0660
0fc0
0c00
0fe0
18c0
18c0
1fc0
ENDCHAR
STARTCHAR 3432
ENCODING 13362
SWIDTH 960 0
DWIDTH 12 0
BBX 15 12 -1 -2
BITMAP
00c0
1ffe
1b34
0ff8
0660
0fe0
1860
1fe0
1860
3fc0
1d30
f1f0
ENDCHAR
STARTCHAR 3433
ENCODING 13363
SWIDTH 960 0
DWIDTH 12 0
BBX 15 12 -1 -2
BITMAP
0000
0ffc
00c0
0180
0180
3ffc
0300
0300
0300
0600
0600
0600
ENDCHAR
STARTCHAR 3434
ENCODING 13364
SWIDTH 960 0
DWIDTH 12 0
BBX 15 12 -1 -2
BITMAP
0618
1f98
0634
3f6c
33fa
3f30
6660
7ff8
1860
fcc0
30c0
30c0
ENDCHAR
STARTCHAR 3435
ENCODING 13365
SWIDTH 960 0
DWIDTH 12 0
BBX 15 12 -1 -2
BITMAP
00c0
07f8
06d8
0ff0
0180
1ff8
3330
3ff0
0300
6b60
d8d0
0fc0
ENDCHAR
STARTCHAR 3436
ENCODING 13366
SWIDTH 960 0
DWIDTH 12 0
BBX 15 12 -1 -2
BITMAP
006c
0ffe
0ce0
1fa8
1868
3fb4
6b58
1f98
0300
6b60
d8d0
0fc0
ENDCHAR
STARTCHAR 3437
ENCODING 13367
SWIDTH 960 0
DWIDTH 12 0
BBX 15 12 -1 -2
BITMAP
067e
066a
07fe
1ea8
1df8
35f8
6b18
1bf8
1b18
37f0
3360
3630
ENDCHAR
STARTCHAR 3438
ENCODING 13368
SWIDTH 960 0
DWIDTH 12 0
BBX 15 12 -1 -2
BITMAP
0c1a
0dfe
0e98
1bf4
3bd8
3b78
77d8
3998
3340
6ad0
7630
63f0
ENDCHAR
STARTCHAR 3439
ENCODING 13369
SWIDTH 960 0
DWIDTH 12 0
BBX 15 12 -1 -2
BITMAP
0660
067c
06d8
3ffc
0d54
0db4
1f78
7ad8
1ffc
31c0
3360
7638
ENDCHAR
STARTCHAR 343a
ENCODING 13370
SWIDTH 960 0
DWIDTH 12 0
BBX 15 12 -1 -2
BITMAP
0030
0fd0
037e
3fd8
1b58
1f98
36d0
3ed0
3760
7dc0
ed60
0e30
ENDCHAR
STARTCHAR 343b
ENCODING 13371
SWIDTH 960 0
DWIDTH 12 0
BBX 15 12 -1 -2
BITMAP
06cc
06cc
07fe
3e98
0d98
1d98
3df0
3b30
6b30
d660
3660
37e0
ENDCHAR
STARTCHAR 343c
ENCODING 13372
SWIDTH 960 0
DWIDTH 12 0
BBX 15 12 -1 -2
BITMAP
0600
06fe
0600
3ef8
0d98
1d98
3df0
3b30
6b30
d7e0
3000
37f0
ENDCHAR
STARTCHAR 343d
ENCODING 13373
SWIDTH 960 0
DWIDTH 12 0
BBX 15 12 -1 -2
BITMAP
0630
06fe
0686
3ffc
0d98
1d98
3df0
3b00
6bf8
d630
3630
37f0
ENDCHAR
STARTCHAR 343e
ENCODING 13374
SWIDTH 960 0
DWIDTH 12 0
BBX 15 12 -1 -2
BITMAP
0660
1fa0
0660
1f7c
01ac
1ea8
00c0
7ec0
1dc0
d540
d660
7430
ENDCHAR
STARTCHAR 343f
ENCODING 13375
SWIDTH 960 0
DWIDTH 12 0
BBX 15 12 -1 -2
BITMAP
0c30
0fd0
0d30
1fbc
3554
3fb8
3460
7f60
34e0
7ea0
6b60
7e30
ENDCHAR
STARTCHAR 3440
ENCODING 13376
SWIDTH 960 0
DWIDTH 12 0
BBX 15 12 -1 -2
BITMAP
0c00
07fc
0060
30c0
18c0
0ffc
0180
1980
3180
6300
c300
c300
ENDCHAR
STARTCHAR 3441
ENCODING 13377
SWIDTH 960 0
DWIDTH 12 0
BBX 15 12 -1 -2
BITMAP
19b0
0ffe
01b0
03f8
36d8
1bf8
0180
1ff0
3180
6fe0
c6c0
dc70
ENDCHAR
STARTCHAR 3442
ENCODING 13378
SWIDTH 960 0
DWIDTH 12 0
BBX 15 12 -1 -2
BITMAP
0dde
0756
03de
36ac
1bbc
060c
0de8
1d68
35e8
6ad0
dbd0
d870
ENDCHAR
STARTCHAR 3443
ENCODING 13379
SWIDTH 960 0
DWIDTH 12 0
BBX 15 12 -1 -2
BITMAP
0d80
06fc
0760
35fc
19a0
03fc
0ec0
1bf0
36c0
6fe0
cd80
cff0
ENDCHAR
STARTCHAR 3444
ENCODING 13380
SWIDTH 960 0
DWIDTH 12 0
BBX 15 12 -1 -2
BITMAP
03fc
1f54
07fc
0c00
3ffc
0d18
1bf0
1db0
7760
1a60
3630
0600
ENDCHAR
STARTCHAR 3445
ENCODING 13381
SWIDTH 960 0
DWIDTH 12 0
BBX 15 12 -1 -2
BITMAP
0318
0318
0318
3ffc
0630
0630
0fe0
0c60
0c60
18c0
18c0
1fc0
ENDCHAR
STARTCHAR 3446
ENCODING 13382
SWIDTH 960 0
DWIDTH 12 0
BBX 15 12 -1 -2
BITMAP
1fa0
1a60
1ffe
3380
3f00
34f8
7e00
0000
3ff0
6d60
6d60
fff0
ENDCHAR
STARTCHAR 3447
ENCODING 13383
SWIDTH 960 0
DWIDTH 12 0
BBX 15 12 -1 -2
BITMAP
001c
0ff0
0180
3ffc
0600
3ffc
1c60
37e0
6c60
1fc0
18c0
1fc0
ENDCHAR
STARTCHAR 3448
ENCODING 13384
SWIDTH 960 0
DWIDTH 12 0
BBX 15 12 -1 -2
BITMAP
0c60
0fbe
1b58
0c60
1ff8
0180
0300
7ff8
0300
0600
0600
0600
ENDCHAR
STARTCHAR 3449
ENCODING 13385
SWIDTH 960 0
DWIDTH 12 0
BBX 15 12 -1 -2
BITMAP
0c30
0fde
1b6c
3ffc
300c
37ec
0cc0
0fc0
0c00
1fc0
18c0
1fc0
ENDCHAR
STARTCHAR 344a
ENCODING 13386
SWIDTH 960 0
DWIDTH 12 0
BBX 15 12 -1 -2
BITMAP
0c30
0fdf
1b6c
1f7c
1b4c
1f7c
3798
3ef8
37d8
6db0
6fb0
6070
ENDCHAR
STARTCHAR 344b
ENCODING 13387
SWIDTH 960 0
DWIDTH 12 0
BBX 15 12 -1 -2
BITMAP
061c
06f4
1e68
1bfc
0cc0
3bfc
6e80
19f0
6da0
d6c0
d560
3630
ENDCHAR
STARTCHAR 344c
ENCODING 13388
SWIDTH 960 0
DWIDTH 12 0
BBX 15 12 -1 -2
BITMAP
0600
0600
0ffc
1980
3180
3ffc
0300
3330
3330
6660
7fe0
6060
ENDCHAR
STARTCHAR 344d
ENCODING 13389
SWIDTH 960 0
DWIDTH 12 0
BBX 15 12 -1 -2
BITMAP
0618
1fb4
06e6
3f86
33fc
3f6c
6768
7ed8
18d8
fdb0
36d0
31b0
ENDCHAR
STARTCHAR 344e
ENCODING 13390
SWIDTH 960 0
DWIDTH 12 0
BBX 15 12 -1 -2
BITMAP
0fbe
0d98
0d98
1b30
1ffe
1b30
3660
3e60
3660
6cc0
6cc0
dcc0
ENDCHAR
STARTCHAR 344f
ENCODING 13391
SWIDTH 960 0
DWIDTH 12 0
BBX 15 12 -1 -2
BITMAP
0de8
1e9e
1af0
3d60
35c0
3f3c
6b80
7800
6bf0
d6a0
d6a0
d7f0
ENDCHAR
STARTCHAR 3450
ENCODING 13392
SWIDTH 960 0
DWIDTH 12 0
BBX 15 12 -1 -2
BITMAP
0330
1ffe
0330
0180
3ffc
300c
1fe0
0000
7ff8
0d00
3b30
e1f0
ENDCHAR
STARTCHAR 3451
ENCODING 13393
SWIDTH 960 0
DWIDTH 12 0
BBX 15 12 -1 -2
BITMAP
0c7e
0fe6
0d66
1ffc
354c
3ffc
3598
7ff8
35b0
7ea0
6b68
7e38
ENDCHAR
STARTCHAR 3452
ENCODING 13394
SWIDTH 960 0
DWIDTH 12 0
BBX 15 12 -1 -2
BITMAP
1e30
01fe
1e30
03f8
3f68
03f8
7ad0
07f0
7de0
daa0
ddb0
f980
ENDCHAR
STARTCHAR 3453
ENCODING 13395
SWIDTH 960 0
DWIDTH 12 0
BBX 15 12 -1 -2
BITMAP
0000
07f8
06d8
3ffc
1b60
1fe0
1860
1fe0
1860
3fc0
1dc0
7070
ENDCHAR
STARTCHAR 3454
ENCODING 13396
SWIDTH 960 0
DWIDTH 12 0
BBX 15 12 -1 -2
BITMAP
01fc
0db4
07fe
0000
03f8
3d18
1bf0
1bd8
1ab0
1b70
6d80
c7f8
ENDCHAR
STARTCHAR 3455
ENCODING 13397
SWIDTH 960 0
DWIDTH 12 0
BBX 15 12 -1 -2
BITMAP
06f4
06cf
0d78
1bb0
3fe0
0d9e
7fc0
1800
6df8
7550
3b50
e7f8
ENDCHAR
STARTCHAR 3456
ENCODING 13398
SWIDTH 960 0
DWIDTH 12 0
BBX 15 12 -1 -2
BITMAP
1fbe
19a6
1fbe
334c
3f7c
300c
6fd8
6cd8
6fd8
d9b0
dfb0
c070
ENDCHAR
STARTCHAR 3457
ENCODING 13399
SWIDTH 960 0
DWIDTH 12 0
BBX 15 12 -1 -2
BITMAP
1fbe
19a6
1fbe
334c
3f7c
318c
6fe8
6318
6f98
dab0
d6d0
c670
ENDCHAR
STARTCHAR 3458
ENCODING 13400
SWIDTH 960 0
DWIDTH 12 0
BBX 15 12 -1 -2
BITMAP
1fbe
19a6
1fbe
334c
3f7c
334c
6fe8
6318
6fe8
cd30
d9b0
d070
ENDCHAR
STARTCHAR 3459
ENCODING 13401
SWIDTH 960 0
DWIDTH 12 0
BBX 15 12 -1 -2
BITMAP
0060
1e7c
1ad8
35b0
3860
3b7c
6a98
6a98
76f8
ed30
cd30
cdf0
ENDCHAR
STARTCHAR 345a
ENCODING 13402
SWIDTH 960 0
DWIDTH 12 0
BBX 15 12 -1 -2
BITMAP
0618
1fbe
061a
3ffe
334c
3f7c
6630
7ef8
19b0
fff8
3060
3060
ENDCHAR
STARTCHAR 345b
ENCODING 13403
SWIDTH 960 0
DWIDTH 12 0
BBX 15 12 -1 -2
BITMAP
0630
06fe
0dcc
1f78
3bd8
1f58
36f0
3e80
35f8
6d30
6b30
f3f0
ENDCHAR
STARTCHAR 345c
ENCODING 13404
SWIDTH 960 0
DWIDTH 12 0
BBX 15 12 -1 -2
BITMAP
0630
06fe
0d8c
3b78
3f58
0cd8
7ef0
1980
3ef8
6d30
6d30
7df0
ENDCHAR
STARTCHAR 345d
ENCODING 13405
SWIDTH 960 0
DWIDTH 12 0
BBX 15 12 -1 -2
BITMAP
0300
0300
0300
3fe0
0660
0660
34c0
1cc0
1ec0
36b0
66b0
c0f0
ENDCHAR
STARTCHAR 345e
ENCODING 13406
SWIDTH 960 0
DWIDTH 12 0
BBX 15 12 -1 -2
BITMAP
00c0
01a0
0730
0dd0
381c
1ff0
0180
0300
1fe0
30c0
30c0
3fc0
ENDCHAR
STARTCHAR 345f
ENCODING 13407
SWIDTH 960 0
DWIDTH 12 0
BBX 15 12 -1 -2
BITMAP
0ccc
0ccc
0ffc
0000
1ffc
1800
37f0
3180
3ff8
6300
c300
0300
ENDCHAR
STARTCHAR 3460
ENCODING 13408
SWIDTH 960 0
DWIDTH 12 0
BBX 15 12 -1 -2
BITMAP
0ccc
0ffc
0060
1ffc
1ba0
1b7e
3f98
35a8
3770
3a60
ded0
c7b0
ENDCHAR
STARTCHAR 3461
ENCODING 13409
SWIDTH 960 0
DWIDTH 12 0
BBX 15 12 -1 -2
BITMAP
0000
01fc
1f00
0c00
0c00
3ffc
1b40
1b40
3ec0
ed80
19b0
30f0
ENDCHAR
STARTCHAR 3462
ENCODING 13410
SWIDTH 960 0
DWIDTH 12 0
BBX 15 12 -1 -2
BITMAP
0060
07fe
1af8
1db0
0df0
3ddc
6aa8
1bb8
19c0
39b0
69b0
dff0
ENDCHAR
STARTCHAR 3463
ENCODING 13411
SWIDTH 960 0
DWIDTH 12 0
BBX 15 12 -1 -2
BITMAP
0000
1f7c
1b4c
36f8
3e98
3698
6df0
7d18
6d70
dac0
fba0
0e30
ENDCHAR
STARTCHAR 3464
ENCODING 13412
SWIDTH 960 0
DWIDTH 12 0
BBX 15 12 -1 -2
BITMAP
00c0
0ccc
0ccc
1ff8
0000
3ffc
0c00
0c00
3ff0
6860
d860
1fe0
ENDCHAR
STARTCHAR 3465
ENCODING 13413
SWIDTH 960 0
DWIDTH 12 0
BBX 15 12 -1 -2
BITMAP
0000
1ffc
1b40
1d80
36fc
0dd0
19a0
7ea0
66a0
fd40
cd50
fe70
ENDCHAR
STARTCHAR 3466
ENCODING 13414
SWIDTH 960 0
DWIDTH 12 0
BBX 15 12 -1 -2
BITMAP
0000
0ffe
0da8
1ffc
1ab0
1afc
37e0
3460
6fe0
d8c0
1fc0
3de0
ENDCHAR
STARTCHAR 3467
ENCODING 13415
SWIDTH 960 0
DWIDTH 12 0
BBX 15 12 -1 -2
BITMAP
0000
0ffe
0dac
19fc
1ad0
1ad0
3df8
35a0
6df8
6b40
db40
1bf0
ENDCHAR
STARTCHAR 3468
ENCODING 13416
SWIDTH 960 0
DWIDTH 12 0
BBX 15 12 -1 -2
BITMAP
0000
00fe
1fb0
007c
00cc
3ffc
3598
35f8
3598
6df0
69a0
c730
ENDCHAR
STARTCHAR 3469
ENCODING 13417
SWIDTH 960 0
DWIDTH 12 0
BBX 15 12 -1 -2
BITMAP
0300
1ffe
0db0
0efc
1fcc
1b7c
3d98
36f8
3998
6df0
d9a0
7730
ENDCHAR
STARTCHAR 346a
ENCODING 13418
SWIDTH 960 0
DWIDTH 12 0
BBX 15 12 -1 -2
BITMAP
0000
0fff
0d98
1fbc
1dac
1fbc
3b58
3f78
36d8
7af0
69d0
db18
ENDCHAR
STARTCHAR 346b
ENCODING 13419
SWIDTH 960 0
DWIDTH 12 0
BBX 15 12 -1 -2
BITMAP
00c0
00c0
01a0
0760
0db0
399c
0300
1be0
1b00
3600
3600
fff0
ENDCHAR
STARTCHAR 346c
ENCODING 13420
SWIDTH 960 0
DWIDTH 12 0
BBX 15 12 -1 -2
BITMAP
0330
0330
03fe
0660
0c60
3dfc
6830
1b30
19a0
31c0
3740
3c70
ENDCHAR
STARTCHAR 346d
ENCODING 13421
SWIDTH 960 0
DWIDTH 12 0
BBX 15 12 -1 -2
BITMAP
0180
03f0
0ee0
0180
0ffc
0c00
1be0
1a60
3660
6dd0
cc30
07f0
ENDCHAR
STARTCHAR 346e
ENCODING 13422
SWIDTH 960 0
DWIDTH 12 0
BBX 15 12 -1 -2
BITMAP
00c0
1ffe
00c0
1ff8
0c30
0ff0
0cc0
7ff8
0000
3fc0
30c0
3fc0
ENDCHAR
STARTCHAR 346f
ENCODING 13423
SWIDTH 960 0
DWIDTH 12 0
BBX 15 12 -1 -2
BITMAP
0000
0fbc
0dac
1f78
0180
3ffc
0680
1ce0
7df8
6d60
6d60
7de0
ENDCHAR
STARTCHAR 3470
ENCODING 13424
SWIDTH 960 0
DWIDTH 12 0
BBX 15 12 -1 -2
BITMAP
0330
0ffc
0330
07e0
0660
07e0
0cc0
7ff8
3b60
efb0
0600
7fe0
ENDCHAR
STARTCHAR 3471
ENCODING 13425
SWIDTH 960 0
DWIDTH 12 0
BBX 15 12 -1 -2
BITMAP
00c0
0ffc
03a0
0660
1c30
3ffc
0060
1fa0
19a0
3f40
00c0
01c0
ENDCHAR
STARTCHAR 3472
ENCODING 13426
SWIDTH 960 0
DWIDTH 12 0
BBX 15 12 -1 -2
BITMAP
0c30
0dfe
0d30
3ff8
1a98
1af8
35a0
6ff8
7c00
37e0
6660
c7e0
ENDCHAR
STARTCHAR 3473
ENCODING 13427
SWIDTH 960 0
DWIDTH 12 0
BBX 15 12 -1 -2
BITMAP
00c0
1ffe
18c6
0ff0
0340
0e60
7ff8
0060
1fa0
3340
3f40
01c0
ENDCHAR
STARTCHAR 3474
ENCODING 13428
SWIDTH 960 0
DWIDTH 12 0
BBX 15 12 -1 -2
BITMAP
0030
0630
06fe
3560
3560
35fc
6ab0
6ab0
6ae0
fcc0
03a0
0e30
ENDCHAR
STARTCHAR 3475
ENCODING 13429
SWIDTH 960 0
DWIDTH 12 0
BBX 15 12 -1 -2
BITMAP
0398
00f0
0f98
0300
3ffc
06c0
1ff0
35b0
6da0
1bc0
1b00
0300
ENDCHAR
STARTCHAR 3476
ENCODING 13430
SWIDTH 960 0
DWIDTH 12 0
BBX 15 12 -1 -2
BITMAP
06d8
0d54
1ee8
1aa8
3eb8
0698
7ff8
1b30
19e0
39b0
6750
dc70
ENDCHAR
STARTCHAR 3477
ENCODING 13431
SWIDTH 960 0
DWIDTH 12 0
BBX 15 12 -1 -2
BITMAP
0000
07f8
0018
0ff0
0c00
0c18
07f0
0300
3530
6b30
d8d8
0fc0
ENDCHAR
STARTCHAR 3478
ENCODING 13432
SWIDTH 960 0
DWIDTH 12 0
BBX 15 12 -1 -2
BITMAP
0600
06fe
07b4
3ef8
0c60
0dfc
1ed8
7bf8
18c0
37f8
3180
7180
ENDCHAR
STARTCHAR 3479
ENCODING 13433
SWIDTH 960 0
DWIDTH 12 0
BBX 15 12 -1 -2
BITMAP
0600
067c
066c
3f58
0cd8
1cd8
3db0
3ab0
6b30
d368
3668
3438
ENDCHAR
STARTCHAR 347a
ENCODING 13434
SWIDTH 960 0
DWIDTH 12 0
BBX 15 12 -1 -2
BITMAP
0660
06fe
1fac
0dfc
0cd8
0f78
1ab0
1af0
36b0
6ff0
cda0
3b30
ENDCHAR
STARTCHAR 347b
ENCODING 13435
SWIDTH 960 0
DWIDTH 12 0
BBX 15 12 -1 -2
BITMAP
0000
0ffe
0da8
1f50
1b50
1bfc
3ee0
30e0
35a0
6d50
76d0
cc70
ENDCHAR
STARTCHAR 347c
ENCODING 13436
SWIDTH 960 0
DWIDTH 12 0
BBX 15 12 -1 -2
BITMAP
06c0
06de
1ff6
0dac
0fbc
0dac
1f58
1b78
7fd8
3530
6730
c670
ENDCHAR
STARTCHAR 347d
ENCODING 13437
SWIDTH 960 0
DWIDTH 12 0
BBX 15 12 -1 -2
BITMAP
06cc
06cc
07fe
3e98
0df8
1e98
3bf0
3b30
6bf8
d340
3660
3460
ENDCHAR
STARTCHAR 347e
ENCODING 13438
SWIDTH 960 0
DWIDTH 12 0
BBX 15 12 -1 -2
BITMAP
00c0
1ffe
03b0
1ff8
0db0
3ffc
1b60
7ff8
0f80
3ac0
e670
0600
ENDCHAR
STARTCHAR 3521
ENCODING 13601
SWIDTH 960 0
DWIDTH 12 0
BBX 15 12 -1 -2
BITMAP
066c
06d8
07fc
3eb4
0dfc
1c68
3ff8
3ad0
6be0
d570
39b0
3730
ENDCHAR
STARTCHAR 3522
ENCODING 13602
SWIDTH 960 0
DWIDTH 12 0
BBX 15 12 -1 -2
BITMAP
06f8
0618
1af8
3430
37fc
36cc
6bf8
1ab0
36b0
3560
6300
c300
ENDCHAR
STARTCHAR 3523
ENCODING 13603
SWIDTH 960 0
DWIDTH 12 0
BBX 15 12 -1 -2
BITMAP
0678
1fa8
0ed8
1a9c
3f1c
0df8
7a30
1db0
6ee0
3ac0
e9a0
3b30
ENDCHAR
STARTCHAR 3524
ENCODING 13604
SWIDTH 960 0
DWIDTH 12 0
BBX 15 12 -1 -2
BITMAP
0600
07fc
0e00
1be0
3000
1ff0
0360
1d60
0e60
1a70
3030
e030
ENDCHAR
STARTCHAR 3525
ENCODING 13605
SWIDTH 960 0
DWIDTH 12 0
BBX 15 12 -1 -2
BITMAP
0d00
07fc
0700
35f0
1800
07f0
0060
1860
3068
6070
c030
c030
ENDCHAR
STARTCHAR 3526
ENCODING 13606
SWIDTH 960 0
DWIDTH 12 0
BBX 15 12 -1 -2
BITMAP
06d8
0d54
1ee8
1aa8
3eb8
0698
7ff8
3f30
35e0
7eb0
6b50
7e70
ENDCHAR
STARTCHAR 3527
ENCODING 13607
SWIDTH 960 0
DWIDTH 12 0
BBX 15 12 -1 -2
BITMAP
060c
06f8
1ec0
0680
06fc
0db0
3d60
6b60
1b60
36c0
34c0
38c0
ENDCHAR
STARTCHAR 3528
ENCODING 13608
SWIDTH 960 0
DWIDTH 12 0
BBX 15 12 -1 -2
BITMAP
0078
0fc0
00c0
3ffc
03c0
1eb0
77d8
0180
3ff0
0600
0600
0e00
ENDCHAR
STARTCHAR 3529
ENCODING 13609
SWIDTH 960 0
DWIDTH 12 0
BBX 15 12 -1 -2
BITMAP
036c
1e38
06ec
0dfc
3ea0
0df8
3b50
3d50
6b50
d6e0
3180
3180
ENDCHAR
STARTCHAR 352a
ENCODING 13610
SWIDTH 960 0
DWIDTH 12 0
BBX 15 12 -1 -2
BITMAP
0600
06fc
1e0c
1a18
0c18
3af8
6e80
1980
6d80
d530
d330
31f0
ENDCHAR
STARTCHAR 352b
ENCODING 13611
SWIDTH 960 0
DWIDTH 12 0
BBX 15 12 -1 -2
BITMAP
0354
0d54
1bff
31b4
0d6c
1ba8
1aa8
77d0
3630
6b60
76b0
6718
ENDCHAR
STARTCHAR 352c
ENCODING 13612
SWIDTH 960 0
DWIDTH 12 0
BBX 15 12 -1 -2
BITMAP
06fc
06cc
1fcc
0df8
0d98
3ff8
1b30
1bf0
1d60
3540
66d0
cc70
ENDCHAR
STARTCHAR 352d
ENCODING 13613
SWIDTH 960 0
DWIDTH 12 0
BBX 15 12 -1 -2
BITMAP
0f00
00fc
1f8c
0018
1f18
00f8
3e80
0180
7e80
cd30
cd30
fdf0
ENDCHAR
STARTCHAR 352e
ENCODING 13614
SWIDTH 960 0
DWIDTH 12 0
BBX 15 12 -1 -2
BITMAP
00c0
07f8
06d8
3ffc
0000
0ff0
1860
1fe0
1860
3fc0
19c0
7060
ENDCHAR
STARTCHAR 352f
ENCODING 13615
SWIDTH 960 0
DWIDTH 12 0
BBX 15 12 -1 -2
BITMAP
0300
037c
0fcc
0618
3ff8
06c0
3580
3798
6d98
6cf0
c600
c3f8
ENDCHAR
STARTCHAR 3530
ENCODING 13616
SWIDTH 960 0
DWIDTH 12 0
BBX 15 12 -1 -2
BITMAP
0660
1fa0
0660
3ff0
3550
3f50
6aa0
7ea0
1b60
fd50
36d0
3470
ENDCHAR
STARTCHAR 3531
ENCODING 13617
SWIDTH 960 0
DWIDTH 12 0
BBX 15 12 -1 -2
BITMAP
06fe
1ad6
1bfc
1e60
0dfc
3fac
35f8
3558
37f8
6980
cff0
0180
ENDCHAR
STARTCHAR 3532
ENCODING 13618
SWIDTH 960 0
DWIDTH 12 0
BBX 15 12 -1 -2
BITMAP
0600
0778
1da8
36d0
1b50
1f50
36a0
3ea0
35a0
6d50
6ad0
f470
ENDCHAR
STARTCHAR 3533
ENCODING 13619
SWIDTH 960 0
DWIDTH 12 0
BBX 15 12 -1 -2
BITMAP
0030
1f7c
1a70
3ed0
359c
3ffc
6830
7fd0
0750
d7a0
cc60
38e0
ENDCHAR
STARTCHAR 3534
ENCODING 13620
SWIDTH 960 0
DWIDTH 12 0
BBX 15 12 -1 -2
BITMAP
00c0
0180
07f8
0db0
0ff0
0db0
1fe0
06a0
0dd0
1be0
3330
e1f0
ENDCHAR
STARTCHAR 3535
ENCODING 13621
SWIDTH 960 0
DWIDTH 12 0
BBX 15 12 -1 -2
BITMAP
0180
03f0
0660
3ff0
0db0
0ff0
1b60
3ff0
3330
7fe0
0630
03f0
ENDCHAR
STARTCHAR 3536
ENCODING 13622
SWIDTH 960 0
DWIDTH 12 0
BBX 15 12 -1 -2
BITMAP
06b0
06d0
0660
0ff0
19b0
3bf0
3630
37f8
3818
6d50
6b30
60e0
ENDCHAR
STARTCHAR 3537
ENCODING 13623
SWIDTH 960 0
DWIDTH 12 0
BBX 15 12 -1 -2
BITMAP
06d8
07fe
0c60
0df8
18c0
3ffc
3750
37f8
3350
6ed0
66b0
6e30
ENDCHAR
STARTCHAR 3538
ENCODING 13624
SWIDTH 960 0
DWIDTH 12 0
BBX 15 12 -1 -2
BITMAP
0c30
0c30
0dfe
3f60
1a60
1af8
3430
6db0
7da0
35c0
6360
ce30
ENDCHAR
STARTCHAR 3539
ENCODING 13625
SWIDTH 960 0
DWIDTH 12 0
BBX 15 12 -1 -2
BITMAP
00c0
1ffe
1806
37ec
0660
0660
0fc0
0cc0
0fc0
1980
1980
fff0
ENDCHAR
STARTCHAR 353a
ENCODING 13626
SWIDTH 960 0
DWIDTH 12 0
BBX 15 12 -1 -2
BITMAP
03d0
0334
0fd6
1ae0
1afc
1ba0
3068
3568
3d70
6b50
ddb0
7330
ENDCHAR
STARTCHAR 353b
ENCODING 13627
SWIDTH 960 0
DWIDTH 12 0
BBX 15 12 -1 -2
BITMAP
0630
0630
07fe
3e60
0c60
0ff8
1c30
79a0
19e0
31c0
3360
7630
ENDCHAR
STARTCHAR 353c
ENCODING 13628
SWIDTH 960 0
DWIDTH 12 0
BBX 15 12 -1 -2
BITMAP
0d3e
0de6
0d74
3d50
1bfc
1a38
37b0
7d60
37b8
6740
6dc0
eb70
ENDCHAR
STARTCHAR 353d
ENCODING 13629
SWIDTH 960 0
DWIDTH 12 0
BBX 15 12 -1 -2
BITMAP
0da0
0da0
1fe0
1b7c
1fac
1ba8
3ec0
36c0
7fc0
6b40
6e60
dc30
ENDCHAR
STARTCHAR 353e
ENCODING 13630
SWIDTH 960 0
DWIDTH 12 0
BBX 15 12 -1 -2
BITMAP
0668
1afe
1a30
3efc
3460
37fc
1d68
7bf8
1b68
3768
36d8
3618
ENDCHAR
STARTCHAR 353f
ENCODING 13631
SWIDTH 960 0
DWIDTH 12 0
BBX 15 12 -1 -2
BITMAP
0cfe
0f8c
0c68
0d70
0ffc
1868
3ed0
6d40
3f70
3780
6ac0
cc70
ENDCHAR
STARTCHAR 3540
ENCODING 13632
SWIDTH 960 0
DWIDTH 12 0
BBX 15 12 -1 -2
BITMAP
061c
06f8
1fd8
03b0
06b0
0dfc
3d60
6b60
1b60
3660
37b0
3630
ENDCHAR
STARTCHAR 3541
ENCODING 13633
SWIDTH 960 0
DWIDTH 12 0
BBX 15 12 -1 -2
BITMAP
0330
0ffe
00c0
0ff8
0180
1ffc
0db0
7ff8
0cd0
7ed0
1bb0
3830
ENDCHAR
STARTCHAR 3542
ENCODING 13634
SWIDTH 960 0
DWIDTH 12 0
BBX 15 12 -1 -2
BITMAP
0668
06fe
0630
3ffc
3560
35fc
7f68
1bfc
1b70
3750
3ab0
ee30
ENDCHAR
STARTCHAR 3543
ENCODING 13635
SWIDTH 960 0
DWIDTH 12 0
BBX 15 12 -1 -2
BITMAP
0f30
01fe
1f8c
01f8
1e98
0198
3df0
0330
7df0
da60
da60
fff0
ENDCHAR
STARTCHAR 3544
ENCODING 13636
SWIDTH 960 0
DWIDTH 12 0
BBX 15 12 -1 -2
BITMAP
0f6c
01fe
1f30
01f8
1e60
07fc
3d68
07fc
7d70
df50
dab0
fe30
ENDCHAR
STARTCHAR 3545
ENCODING 13637
SWIDTH 960 0
DWIDTH 12 0
BBX 15 12 -1 -2
BITMAP
06c0
06c0
06fe
3f4c
0d54
0dec
1fe8
7998
1bd8
3550
3330
7360
ENDCHAR
STARTCHAR 3546
ENCODING 13638
SWIDTH 960 0
DWIDTH 12 0
BBX 15 12 -1 -2
BITMAP
0330
1ffe
0330
0600
0ffc
39b4
6d58
3ff8
0f98
1ab0
76d0
06e0
ENDCHAR
STARTCHAR 3547
ENCODING 13639
SWIDTH 960 0
DWIDTH 12 0
BBX 15 12 -1 -2
BITMAP
0d60
1fa0
0d7e
1eec
0dac
3f74
6bf8
7ed8
1be8
feb0
31b0
30e0
ENDCHAR
STARTCHAR 3548
ENCODING 13640
SWIDTH 960 0
DWIDTH 12 0
BBX 15 12 -1 -2
BITMAP
00c0
00c0
1ffe
0180
0180
1ff8
0000
1fe0
1860
30c0
30c0
3fc0
ENDCHAR
STARTCHAR 3549
ENCODING 13641
SWIDTH 960 0
DWIDTH 12 0
BBX 15 12 -1 -2
BITMAP
00c0
00c0
1ffe
3700
3600
37f8
6c60
6dc0
7f00
0c30
0c30
07f0
ENDCHAR
STARTCHAR 354a
ENCODING 13642
SWIDTH 960 0
DWIDTH 12 0
BBX 15 12 -1 -2
BITMAP
00c0
1ffe
1ada
37d4
35ac
37d8
6be0
6980
7ff8
0680
0cc0
3870
ENDCHAR
STARTCHAR 354b
ENCODING 13643
SWIDTH 960 0
DWIDTH 12 0
BBX 15 12 -1 -2
BITMAP
0630
0630
07fe
3e60
0c60
1df8
3c00
3bf0
6b30
d660
3660
37e0
ENDCHAR
STARTCHAR 354c
ENCODING 13644
SWIDTH 960 0
DWIDTH 12 0
BBX 15 12 -1 -2
BITMAP
06fc
0668
07fe
3ee8
0da0
1dfc
3ea8
3b78
6be8
d550
35d0
3470
ENDCHAR
STARTCHAR 354d
ENCODING 13645
SWIDTH 960 0
DWIDTH 12 0
BBX 15 12 -1 -2
BITMAP
0f30
0030
1ffe
0060
1e60
07f8
3c00
03f0
7d30
da60
da60
fbe0
ENDCHAR
STARTCHAR 354e
ENCODING 13646
SWIDTH 960 0
DWIDTH 12 0
BBX 15 12 -1 -2
BITMAP
0030
1fb0
0630
0c7c
1860
1f60
76c0
37f0
3730
6e60
7e60
07e0
ENDCHAR
STARTCHAR 354f
ENCODING 13647
SWIDTH 960 0
DWIDTH 12 0
BBX 15 12 -1 -2
BITMAP
06c0
06c0
06fc
3ea0
0d60
1c60
3df8
3ac0
68c0
d180
3180
3180
ENDCHAR
STARTCHAR 3550
ENCODING 13648
SWIDTH 960 0
DWIDTH 12 0
BBX 15 12 -1 -2
BITMAP
003c
07e0
00c0
3ffc
06a0
1db8
0680
1d60
75b8
0f00
7ae0
0600
ENDCHAR
STARTCHAR 3551
ENCODING 13649
SWIDTH 960 0
DWIDTH 12 0
BBX 15 12 -1 -2
BITMAP
0600
063e
1fd6
0c6c
0c6c
3fac
18d8
1ad8
36f0
7a80
e680
0180
ENDCHAR
STARTCHAR 3552
ENCODING 13650
SWIDTH 960 0
DWIDTH 12 0
BBX 15 12 -1 -2
BITMAP
00c0
1ffe
1986
33ec
0660
1d40
0340
1ee0
77f8
18c0
18c0
1fc0
ENDCHAR
STARTCHAR 3553
ENCODING 13651
SWIDTH 960 0
DWIDTH 12 0
BBX 15 12 -1 -2
BITMAP
00c0
1ede
1bfa
35b4
3db4
37f4
6b68
7aa8
6bf0
dec0
d0c0
d0c0
ENDCHAR
STARTCHAR 3554
ENCODING 13652
SWIDTH 960 0
DWIDTH 12 0
BBX 15 12 -1 -2
BITMAP
00c0
00fc
00c0
1ffc
198c
1be0
3330
37f0
3400
6fe0
d800
1fe0
ENDCHAR
STARTCHAR 3555
ENCODING 13653
SWIDTH 960 0
DWIDTH 12 0
BBX 15 12 -1 -2
BITMAP
00cc
0c68
06fe
0060
036c
3d6c
1bf8
1ac0
1980
1b00
6c00
c7f8
ENDCHAR
STARTCHAR 3556
ENCODING 13654
SWIDTH 960 0
DWIDTH 12 0
BBX 15 12 -1 -2
BITMAP
0000
0038
07e0
0c00
0c00
0ff8
18c0
18c0
18c0
3180
3180
fff0
ENDCHAR
STARTCHAR 3557
ENCODING 13655
SWIDTH 960 0
DWIDTH 12 0
BBX 15 12 -1 -2
BITMAP
0180
0180
01f0
0360
0660
1cc0
3180
0300
0680
1d80
30c0
e070
ENDCHAR
STARTCHAR 3558
ENCODING 13656
SWIDTH 960 0
DWIDTH 12 0
BBX 15 12 -1 -2
BITMAP
06c0
06c0
06c0
0ff0
19b0
39b0
3360
3360
3660
6cd0
68d0
7070
ENDCHAR
STARTCHAR 3559
ENCODING 13657
SWIDTH 960 0
DWIDTH 12 0
BBX 15 12 -1 -2
BITMAP
0330
0330
0330
07fc
0c60
3cf0
69e0
1b50
1ed8
3998
3180
3180
ENDCHAR
STARTCHAR 355a
ENCODING 13658
SWIDTH 960 0
DWIDTH 12 0
BBX 15 12 -1 -2
BITMAP
0000
07f8
01b0
0360
0378
0730
0d30
0da0
19e0
31c0
6760
dc30
ENDCHAR
STARTCHAR 355b
ENCODING 13659
SWIDTH 960 0
DWIDTH 12 0
BBX 15 12 -1 -2
BITMAP
0000
01fc
1f68
36d0
36dc
36cc
6dd8
6d50
7d60
06e0
0db0
1b18
ENDCHAR
STARTCHAR 355c
ENCODING 13660
SWIDTH 960 0
DWIDTH 12 0
BBX 15 12 -1 -2
BITMAP
00c0
1ffe
1806
37ec
0660
0660
0fc0
0600
1fe0
30c0
30c0
3fc0
ENDCHAR
STARTCHAR 355d
ENCODING 13661
SWIDTH 960 0
DWIDTH 12 0
BBX 15 12 -1 -2
BITMAP
03f8
0018
0018
0ff0
0c00
0c00
1ff0
0030
0030
0060
00c0
0780
ENDCHAR
STARTCHAR 355e
ENCODING 13662
SWIDTH 960 0
DWIDTH 12 0
BBX 15 12 -1 -2
BITMAP
0300
03f0
0e60
1bf0
0030
07f0
0060
3fe0
3300
6b60
d8d0
0fc0
ENDCHAR
STARTCHAR 355f
ENCODING 13663
SWIDTH 960 0
DWIDTH 12 0
BBX 15 12 -1 -2
BITMAP
03b0
0350
1ffe
06d8
36d8
36b0
3730
1d60
75e0
db60
1a60
3c30
ENDCHAR
STARTCHAR 3560
ENCODING 13664
SWIDTH 960 0
DWIDTH 12 0
BBX 15 12 -1 -2
BITMAP
0600
06fe
0660
3f40
0cc0
1df8
3d30
3a30
6830
d060
3060
31c0
ENDCHAR
STARTCHAR 3561
ENCODING 13665
SWIDTH 960 0
DWIDTH 12 0
BBX 15 12 -1 -2
BITMAP
00c0
00d0
00d8
3ffc
0180
19d8
1ba0
0740
3d60
e660
0630
0e00
ENDCHAR
STARTCHAR 3562
ENCODING 13666
SWIDTH 960 0
DWIDTH 12 0
BBX 15 12 -1 -2
BITMAP
0c00
07f8
00d0
31a0
19b8
0198
03b0
1aa0
36c0
6dc0
db60
d630
ENDCHAR
STARTCHAR 3563
ENCODING 13667
SWIDTH 960 0
DWIDTH 12 0
BBX 15 12 -1 -2
BITMAP
0c60
0660
0060
37fc
1818
0318
0330
1b30
3360
66c0
c6c0
dff0
ENDCHAR
STARTCHAR 3564
ENCODING 13668
SWIDTH 960 0
DWIDTH 12 0
BBX 15 12 -1 -2
BITMAP
0180
01f0
0760
1dc0
0370
0e9c
7800
0d30
3fe0
0d00
3980
e0f0
ENDCHAR
STARTCHAR 3565
ENCODING 13669
SWIDTH 960 0
DWIDTH 12 0
BBX 15 12 -1 -2
BITMAP
0030
1f38
0634
0dfc
3e60
0d6c
19f0
19e0
1d50
f698
0180
0380
ENDCHAR
STARTCHAR 3566
ENCODING 13670
SWIDTH 960 0
DWIDTH 12 0
BBX 15 12 -1 -2
BITMAP
00c0
1ffe
1b4c
36cc
06d8
0db8
3b00
3fc0
06c0
0db0
19b0
70f0
ENDCHAR
STARTCHAR 3567
ENCODING 13671
SWIDTH 960 0
DWIDTH 12 0
BBX 15 12 -1 -2
BITMAP
00c0
1ffe
1bc6
0efc
0600
1efc
3618
3ef8
3680
fdf0
3430
ece0
ENDCHAR
STARTCHAR 3568
ENCODING 13672
SWIDTH 960 0
DWIDTH 12 0
BBX 15 12 -1 -2
BITMAP
0c60
0fbe
1b58
0c60
1fc0
0cc0
0de0
0c60
1ac0
7700
dd80
70e0
ENDCHAR
STARTCHAR 3569
ENCODING 13673
SWIDTH 960 0
DWIDTH 12 0
BBX 15 12 -1 -2
BITMAP
0600
06f8
1ed0
1aa0
0db8
3ad0
6f50
1b60
6ee0
d6a0
d560
3a30
ENDCHAR
STARTCHAR 356a
ENCODING 13674
SWIDTH 960 0
DWIDTH 12 0
BBX 15 12 -1 -2
BITMAP
060c
066c
1e6c
1ad8
0cd8
1ad8
3eb0
69bc
6bd0
d460
d060
3060
ENDCHAR
STARTCHAR 356b
ENCODING 13675
SWIDTH 960 0
DWIDTH 12 0
BBX 15 12 -1 -2
BITMAP
0630
0630
1e68
1ad8
0df8
3a0c
6e00
1bf0
6d30
d660
d660
37e0
ENDCHAR
STARTCHAR 356c
ENCODING 13676
SWIDTH 960 0
DWIDTH 12 0
BBX 15 12 -1 -2
BITMAP
0c00
0dfc
0d8c
1b18
1b18
1bf8
3630
3630
3630
6c60
6fe0
6000
ENDCHAR
STARTCHAR 356d
ENCODING 13677
SWIDTH 960 0
DWIDTH 12 0
BBX 15 12 -1 -2
BITMAP
00c0
06c0
06c0
0ff8
1980
3180
0300
7ff8
0300
0600
0600
0600
ENDCHAR
STARTCHAR 356e
ENCODING 13678
SWIDTH 960 0
DWIDTH 12 0
BBX 15 12 -1 -2
BITMAP
00c0
00c0
0ffc
0180
0180
3ffc
0300
06c0
0cc0
1be0
7e60
0060
ENDCHAR
STARTCHAR 356f
ENCODING 13679
SWIDTH 960 0
DWIDTH 12 0
BBX 15 12 -1 -2
BITMAP
0000
07fc
060c
0ff8
0cc0
0ffc
1980
1980
3ff0
6860
d860
1fe0
ENDCHAR
STARTCHAR 3570
ENCODING 13680
SWIDTH 960 0
DWIDTH 12 0
BBX 15 12 -1 -2
BITMAP
0000
0ffe
0c00
1800
1ff8
1818
3030
3ff0
3000
6000
6000
7ff0
ENDCHAR
STARTCHAR 3571
ENCODING 13681
SWIDTH 960 0
DWIDTH 12 0
BBX 15 12 -1 -2
BITMAP
0600
06fe
06c0
3e80
0df8
0d98
1d30
7bf0
1b00
3600
3600
77f0
ENDCHAR
STARTCHAR 3572
ENCODING 13682
SWIDTH 960 0
DWIDTH 12 0
BBX 15 12 -1 -2
BITMAP
0600
06de
06da
3ed4
0d54
0d54
1da8
79a8
1bd8
36b8
34c0
7878
ENDCHAR
STARTCHAR 3573
ENCODING 13683
SWIDTH 960 0
DWIDTH 12 0
BBX 15 12 -1 -2
BITMAP
0d98
06d8
1ffe
06c0
0fe0
3b30
6fd8
0300
3fe0
0600
0600
1c00
ENDCHAR
STARTCHAR 3574
ENCODING 13684
SWIDTH 960 0
DWIDTH 12 0
BBX 15 12 -1 -2
BITMAP
0dfe
0680
19fc
1b18
03f8
1d00
37f8
6300
7ff8
0f00
3ac0
e670
ENDCHAR
STARTCHAR 3575
ENCODING 13685
SWIDTH 960 0
DWIDTH 12 0
BBX 15 12 -1 -2
BITMAP
00c0
00f8
00c0
1ffc
1b0c
1fe0
3630
33f0
3ae0
6d80
cd00
7ff0
ENDCHAR
STARTCHAR 3576
ENCODING 13686
SWIDTH 960 0
DWIDTH 12 0
BBX 15 12 -1 -2
BITMAP
0f40
00c0
1ffc
0360
1e60
0060
3ff8
00c0
7cc0
d980
d980
f980
ENDCHAR
STARTCHAR 3577
ENCODING 13687
SWIDTH 960 0
DWIDTH 12 0
BBX 15 12 -1 -2
BITMAP
0000
1f7e
1b40
3680
3ef8
0d98
6b30
6ff0
6b00
d600
da00
e7f0
ENDCHAR
STARTCHAR 3578
ENCODING 13688
SWIDTH 960 0
DWIDTH 12 0
BBX 15 12 -1 -2
BITMAP
0600
06fe
0d46
1bfc
3eb0
0dfc
7f60
1b60
6ff8
7530
3b30
e3f0
ENDCHAR
STARTCHAR 3579
ENCODING 13689
SWIDTH 960 0
DWIDTH 12 0
BBX 15 12 -1 -2
BITMAP
0c60
067c
01d8
3760
1bfc
036c
07f8
1ad8
37f8
6000
cd50
db68
ENDCHAR
STARTCHAR 357a
ENCODING 13690
SWIDTH 960 0
DWIDTH 12 0
BBX 15 12 -1 -2
BITMAP
069e
0dfa
1aaa
1cf4
355c
0df0
1860
3ff0
0000
fff0
1a80
76e0
ENDCHAR
STARTCHAR 357b
ENCODING 13691
SWIDTH 960 0
DWIDTH 12 0
BBX 15 12 -1 -2
BITMAP
0180
01f0
0360
0ec0
1ff8
3598
1ff0
1b30
1ff0
0000
6d60
cdb0
ENDCHAR
STARTCHAR 357c
ENCODING 13692
SWIDTH 960 0
DWIDTH 12 0
BBX 15 12 -1 -2
BITMAP
00c0
1ffe
07f8
0c30
0ff0
0000
3ff0
00c0
0380
0600
0600
0e00
ENDCHAR
STARTCHAR 357d
ENCODING 13693
SWIDTH 960 0
DWIDTH 12 0
BBX 15 12 -1 -2
BITMAP
00c0
1ffe
07f8
0c30
0ff0
0000
1fe0
0180
7ff8
0600
0600
0e00
ENDCHAR
STARTCHAR 357e
ENCODING 13694
SWIDTH 960 0
DWIDTH 12 0
BBX 15 12 -1 -2
BITMAP
00c0
1ffe
0000
0ff0
0c30
0c30
1fe0
0300
1b60
3660
6660
0e00
ENDCHAR
STARTCHAR 3621
ENCODING 13857
SWIDTH 960 0
DWIDTH 12 0
BBX 15 12 -1 -2
BITMAP
036c
036c
036c
07fc
0cd8
3cd8
69b0
1ffc
1800
3360
3630
3430
ENDCHAR
STARTCHAR 3622
ENCODING 13858
SWIDTH 960 0
DWIDTH 12 0
BBX 15 12 -1 -2
BITMAP
0660
0660
07fc
0ed8
1b50
3b40
3ff8
3180
33c0
66c0
6c60
7830
ENDCHAR
STARTCHAR 3623
ENCODING 13859
SWIDTH 960 0
DWIDTH 12 0
BBX 15 12 -1 -2
BITMAP
037c
0330
06fe
0cd0
0d9c
3db0
69a0
1bf8
1ae8
3550
35d0
3470
ENDCHAR
STARTCHAR 3624
ENCODING 13860
SWIDTH 960 0
DWIDTH 12 0
BBX 15 12 -1 -2
BITMAP
0060
0dac
0dcc
19d8
1b68
1e18
3bf0
0680
0d80
1b30
3330
e1f0
ENDCHAR
STARTCHAR 3625
ENCODING 13861
SWIDTH 960 0
DWIDTH 12 0
BBX 15 12 -1 -2
BITMAP
0330
1ffc
0d68
3ffc
0000
1f78
36b0
3ef0
36a0
3550
6ed0
cc70
ENDCHAR
STARTCHAR 3626
ENCODING 13862
SWIDTH 960 0
DWIDTH 12 0
BBX 15 12 -1 -2
BITMAP
0330
0330
0330
1ff8
0660
0660
0cc0
7ff8
00c0
18c0
3060
e060
ENDCHAR
STARTCHAR 3627
ENCODING 13863
SWIDTH 960 0
DWIDTH 12 0
BBX 15 12 -1 -2
BITMAP
0018
0c1a
0d36
1b34
19ac
19cc
3358
3668
3c68
6030
7ff0
6000
ENDCHAR
STARTCHAR 3628
ENCODING 13864
SWIDTH 960 0
DWIDTH 12 0
BBX 15 12 -1 -2
BITMAP
0c60
0dfc
0c6c
3ed8
1998
1b70
3660
3ff8
3668
6ad0
76b0
6f70
ENDCHAR
STARTCHAR 3629
ENCODING 13865
SWIDTH 960 0
DWIDTH 12 0
BBX 15 12 -1 -2
BITMAP
0000
1ffe
1800
37f8
3180
3180
6fe0
6300
6300
dfe0
c000
fff0
ENDCHAR
STARTCHAR 362a
ENCODING 13866
SWIDTH 960 0
DWIDTH 12 0
BBX 15 12 -1 -2
BITMAP
0600
1dee
19aa
35d4
3554
3554
6ba8
6a68
7b78
1d40
6ec0
c0c0
ENDCHAR
STARTCHAR 362b
ENCODING 13867
SWIDTH 960 0
DWIDTH 12 0
BBX 15 12 -1 -2
BITMAP
0018
1f58
1b58
36b0
36b0
36b0
6d60
6d78
7de0
cec0
00c0
00c0
ENDCHAR
STARTCHAR 362c
ENCODING 13868
SWIDTH 960 0
DWIDTH 12 0
BBX 15 12 -1 -2
BITMAP
0078
07c0
00c0
3ff8
07e0
1e70
77d8
3ff0
37d0
69a0
6fa0
60e0
ENDCHAR
STARTCHAR 362d
ENCODING 13869
SWIDTH 960 0
DWIDTH 12 0
BBX 15 12 -1 -2
BITMAP
0c60
0dfc
0db8
19a0
3ffc
1b30
37e0
3660
3fe0
e680
0db0
38f0
ENDCHAR
STARTCHAR 362e
ENCODING 13870
SWIDTH 960 0
DWIDTH 12 0
BBX 15 12 -1 -2
BITMAP
0030
0630
06fe
0c6c
35a8
3570
6bf8
6ac0
6ac0
fd40
0660
1c30
ENDCHAR
STARTCHAR 362f
ENCODING 13871
SWIDTH 960 0
DWIDTH 12 0
BBX 15 12 -1 -2
BITMAP
0060
1f68
03cc
077c
3e6c
31f8
7d50
0df0
0d50
19b0
31f0
ef30
ENDCHAR
STARTCHAR 3630
ENCODING 13872
SWIDTH 960 0
DWIDTH 12 0
BBX 15 12 -1 -2
BITMAP
0000
1ffe
06b4
0df8
3d68
33f8
7ff8
1ad0
1bf0
35a0
37e0
eff0
ENDCHAR
STARTCHAR 3631
ENCODING 13873
SWIDTH 960 0
DWIDTH 12 0
BBX 15 12 -1 -2
BITMAP
0630
0630
0630
1df8
1c60
3660
6ff8
1980
1b60
36c0
37e0
3e60
ENDCHAR
STARTCHAR 3632
ENCODING 13874
SWIDTH 960 0
DWIDTH 12 0
BBX 15 12 -1 -2
BITMAP
00f8
1fd8
06d8
0dd0
0fb4
3d34
0638
0d00
3530
6b30
d8d0
0fc0
ENDCHAR
STARTCHAR 3633
ENCODING 13875
SWIDTH 960 0
DWIDTH 12 0
BBX 15 12 -1 -2
BITMAP
0330
0330
0ffc
0660
0660
3ffc
0cc0
1a60
7af8
35a0
6da0
1c00
ENDCHAR
STARTCHAR 3634
ENCODING 13876
SWIDTH 960 0
DWIDTH 12 0
BBX 15 12 -1 -2
BITMAP
0630
0630
07fe
3e60
0dac
0db8
1fe8
78c0
19c0
3340
3660
7c30
ENDCHAR
STARTCHAR 3635
ENCODING 13877
SWIDTH 960 0
DWIDTH 12 0
BBX 15 12 -1 -2
BITMAP
0630
06d0
1fb0
0d7c
3fd8
0dd0
3ed0
6ce0
0f60
f9c0
1b60
3e30
ENDCHAR
STARTCHAR 3636
ENCODING 13878
SWIDTH 960 0
DWIDTH 12 0
BBX 15 12 -1 -2
BITMAP
06fc
0630
07fe
3ed0
0d98
1fb4
3da0
3bf8
6ae8
d550
35d0
3470
ENDCHAR
STARTCHAR 3637
ENCODING 13879
SWIDTH 960 0
DWIDTH 12 0
BBX 15 12 -1 -2
BITMAP
0c00
06fc
018c
3318
1b18
03f8
0340
1b40
36c0
66b0
cdb0
d8f0
ENDCHAR
STARTCHAR 3638
ENCODING 13880
SWIDTH 960 0
DWIDTH 12 0
BBX 15 12 -1 -2
BITMAP
1b00
0dfe
0630
1c60
3460
0ff8
1cc0
38c0
68c0
3180
3180
eff0
ENDCHAR
STARTCHAR 3639
ENCODING 13881
SWIDTH 960 0
DWIDTH 12 0
BBX 15 12 -1 -2
BITMAP
1b60
0d60
07fc
1ed8
3550
0d40
1ff8
3980
6b80
3680
34c0
e870
ENDCHAR
STARTCHAR 363a
ENCODING 13882
SWIDTH 960 0
DWIDTH 12 0
BBX 15 12 -1 -2
BITMAP
0cfc
0c30
0f7e
1cd0
359c
0df0
7da0
1bf8
36e8
6d50
cdd0
0c70
ENDCHAR
STARTCHAR 363b
ENCODING 13883
SWIDTH 960 0
DWIDTH 12 0
BBX 15 12 -1 -2
BITMAP
00c0
1ec0
1afe
350c
3e34
37b4
6aa8
7b68
6a68
d7d0
d030
d0e0
ENDCHAR
STARTCHAR 363c
ENCODING 13884
SWIDTH 960 0
DWIDTH 12 0
BBX 15 12 -1 -2
BITMAP
00c0
07f8
00d8
0db0
3f7c
1d6c
76b8
1fe0
1860
3fc0
30c0
31c0
ENDCHAR
STARTCHAR 363d
ENCODING 13885
SWIDTH 960 0
DWIDTH 12 0
BBX 15 12 -1 -2
BITMAP
0300
0efc
0dac
1ff8
1b58
1bd8
3ef0
37b0
7ff8
0d80
18c0
7060
ENDCHAR
STARTCHAR 363e
ENCODING 13886
SWIDTH 960 0
DWIDTH 12 0
BBX 15 12 -1 -2
BITMAP
0330
1ffe
0330
0ff0
0180
3ffc
1ee0
77b8
3ff0
6f60
6d60
6f60
ENDCHAR
STARTCHAR 363f
ENCODING 13887
SWIDTH 960 0
DWIDTH 12 0
BBX 15 12 -1 -2
BITMAP
0c00
0dee
1aaa
1dd4
0d58
1bd4
3a6c
7b6c
1ba8
36f0
6dc0
c0c0
ENDCHAR
STARTCHAR 3640
ENCODING 13888
SWIDTH 960 0
DWIDTH 12 0
BBX 15 12 -1 -2
BITMAP
0630
06fc
0d68
1bfc
3e98
0df8
7f30
1bf0
6d60
7540
3ad0
ec70
ENDCHAR
STARTCHAR 3641
ENCODING 13889
SWIDTH 960 0
DWIDTH 12 0
BBX 15 12 -1 -2
BITMAP
06ee
1daa
0eec
3fb4
0d54
3bb8
6ff8
0cc0
7ff8
3fc0
30c0
3fc0
ENDCHAR
STARTCHAR 3642
ENCODING 13890
SWIDTH 960 0
DWIDTH 12 0
BBX 15 12 -1 -2
BITMAP
06ee
1daa
0eec
3fb4
0d54
1bf8
03a0
1fe0
74d8
1f80
1b40
3de0
ENDCHAR
STARTCHAR 3643
ENCODING 13891
SWIDTH 960 0
DWIDTH 12 0
BBX 15 12 -1 -2
BITMAP
06b0
1fde
0cf4
3ed8
1aa8
1ff4
1980
1ff0
1980
3ff0
6b50
cce0
ENDCHAR
STARTCHAR 3644
ENCODING 13892
SWIDTH 960 0
DWIDTH 12 0
BBX 15 12 -1 -2
BITMAP
0670
06c0
0dbe
0d6c
1b6c
3b6c
36d8
36d8
37d0
6ee0
6180
6180
ENDCHAR
STARTCHAR 3645
ENCODING 13893
SWIDTH 960 0
DWIDTH 12 0
BBX 15 12 -1 -2
BITMAP
067e
06c6
1b3c
1db0
07fc
0634
0fa0
3ab8
6fa0
6dc0
dac0
3670
ENDCHAR
STARTCHAR 3646
ENCODING 13894
SWIDTH 960 0
DWIDTH 12 0
BBX 15 12 -1 -2
BITMAP
00c0
0ff8
00c0
0da0
3ff8
0c60
0000
7ff8
0d80
1b60
3360
e1e0
ENDCHAR
STARTCHAR 3647
ENCODING 13895
SWIDTH 960 0
DWIDTH 12 0
BBX 15 12 -1 -2
BITMAP
0060
03fc
1e60
3550
37fc
3d30
6800
6ff8
7b40
c6b0
0db0
38f0
ENDCHAR
STARTCHAR 3648
ENCODING 13896
SWIDTH 960 0
DWIDTH 12 0
BBX 15 12 -1 -2
BITMAP
01a0
06a8
1ffe
0660
1ff8
0180
1fe0
0300
7ff8
1a80
36c0
6660
ENDCHAR
STARTCHAR 3649
ENCODING 13897
SWIDTH 960 0
DWIDTH 12 0
BBX 15 12 -1 -2
BITMAP
0000
07fc
060c
0ff8
0c00
0ffc
1818
1bd8
36d8
6db0
cfb0
00e0
ENDCHAR
STARTCHAR 364a
ENCODING 13898
SWIDTH 960 0
DWIDTH 12 0
BBX 15 12 -1 -2
BITMAP
01b0
01b0
01b0
1ffc
1b6c
1b6c
3ff8
36d8
36d8
6db0
6db0
7ff0
ENDCHAR
STARTCHAR 364b
ENCODING 13899
SWIDTH 960 0
DWIDTH 12 0
BBX 15 12 -1 -2
BITMAP
0600
06fe
06e0
3e80
0ddc
1ce8
3f68
3d50
6d70
ddd0
3380
37f0
ENDCHAR
STARTCHAR 364c
ENCODING 13900
SWIDTH 960 0
DWIDTH 12 0
BBX 15 12 -1 -2
BITMAP
0000
0ffc
00c0
0180
0180
0180
1fe0
0300
0340
06c0
06c0
fff0
ENDCHAR
STARTCHAR 364d
ENCODING 13901
SWIDTH 960 0
DWIDTH 12 0
BBX 15 12 -1 -2
BITMAP
0600
06fe
0686
3f74
0d0c
1d74
3ea8
3aa8
6ae8
d430
3430
3470
ENDCHAR
STARTCHAR 364e
ENCODING 13902
SWIDTH 960 0
DWIDTH 12 0
BBX 15 12 -1 -2
BITMAP
061c
1af0
0f30
0c60
3e60
0ffc
3cc0
3ac0
68c0
d180
3180
3180
ENDCHAR
STARTCHAR 364f
ENCODING 13903
SWIDTH 960 0
DWIDTH 12 0
BBX 15 12 -1 -2
BITMAP
0668
06fe
0c68
0dfc
1b6c
3bfc
30c0
37f8
30c0
67e0
6180
6ff0
ENDCHAR
STARTCHAR 3650
ENCODING 13904
SWIDTH 960 0
DWIDTH 12 0
BBX 15 12 -1 -2
BITMAP
06b0
1fd0
06b0
0ffc
1aac
1fac
0cd8
3f58
0cd8
7db0
1f30
fae0
ENDCHAR
STARTCHAR 3651
ENCODING 13905
SWIDTH 960 0
DWIDTH 12 0
BBX 15 12 -1 -2
BITMAP
0660
0660
06fe
3e8c
0d0c
0ecc
1868
1dd8
3718
e030
0030
00e0
ENDCHAR
STARTCHAR 3652
ENCODING 13906
SWIDTH 960 0
DWIDTH 12 0
BBX 15 12 -1 -2
BITMAP
00c0
00c0
00c0
1ff8
1998
1998
3330
3330
3360
0600
0600
0600
ENDCHAR
STARTCHAR 3653
ENCODING 13907
SWIDTH 960 0
DWIDTH 12 0
BBX 15 12 -1 -2
BITMAP
0660
06fc
0d4c
1bf8
3f98
0df8
7ec0
1bf8
6d58
76b0
3ab0
e180
ENDCHAR
STARTCHAR 3654
ENCODING 13908
SWIDTH 960 0
DWIDTH 12 0
BBX 15 12 -1 -2
BITMAP
0018
0070
07c0
0c00
0ffc
0cc0
1980
1980
3180
3300
6300
c300
ENDCHAR
STARTCHAR 3655
ENCODING 13909
SWIDTH 960 0
DWIDTH 12 0
BBX 15 12 -1 -2
BITMAP
03a0
0e60
0c60
18fc
1fac
1b68
36c0
34c0
35c0
6b40
da60
1c30
ENDCHAR
STARTCHAR 3656
ENCODING 13910
SWIDTH 960 0
DWIDTH 12 0
BBX 15 12 -1 -2
BITMAP
0660
0660
0d60
1b7c
3fac
0d68
7ec0
18c0
6dc0
7540
3a60
ec30
ENDCHAR
STARTCHAR 3657
ENCODING 13911
SWIDTH 960 0
DWIDTH 12 0
BBX 15 12 -1 -2
BITMAP
1fbe
0618
1fbe
0c30
3efc
07c0
1ce0
77d8
0000
3fc0
0180
0700
ENDCHAR
STARTCHAR 3658
ENCODING 13912
SWIDTH 960 0
DWIDTH 12 0
BBX 15 12 -1 -2
BITMAP
0630
1ffe
0770
0db0
1da8
346c
1fe0
0000
7ff8
36c0
e660
0e00
ENDCHAR
STARTCHAR 3659
ENCODING 13913
SWIDTH 960 0
DWIDTH 12 0
BBX 15 12 -1 -2
BITMAP
00c0
01b0
0ff8
3b6e
0dd8
0f68
1df0
0300
3ff8
66b0
6fd0
60d0
ENDCHAR
STARTCHAR 365a
ENCODING 13914
SWIDTH 960 0
DWIDTH 12 0
BBX 15 12 -1 -2
BITMAP
0c60
0fbe
1bd8
1f60
1bfc
1f6c
36d8
36d8
3e98
6db0
6d30
dee0
ENDCHAR
STARTCHAR 365b
ENCODING 13915
SWIDTH 960 0
DWIDTH 12 0
BBX 15 12 -1 -2
BITMAP
0000
0fde
0d0c
1fa8
1fb0
1ae8
3f98
1ce0
07b0
fff0
1ab0
76c0
ENDCHAR
STARTCHAR 365c
ENCODING 13916
SWIDTH 960 0
DWIDTH 12 0
BBX 15 12 -1 -2
BITMAP
0330
1ffe
0330
0078
0fc0
0c00
1ff8
1980
3180
3300
6300
c300
ENDCHAR
STARTCHAR 365d
ENCODING 13917
SWIDTH 960 0
DWIDTH 12 0
BBX 15 12 -1 -2
BITMAP
01b0
1fff
01b0
1ffc
18ec
1b8c
3318
3ff8
3798
7ad0
6630
7ff0
ENDCHAR
STARTCHAR 365e
ENCODING 13918
SWIDTH 960 0
DWIDTH 12 0
BBX 15 12 -1 -2
BITMAP
0630
0630
1fb0
0350
0698
0f74
3c00
6bf0
1830
3060
30c0
3180
ENDCHAR
STARTCHAR 365f
ENCODING 13919
SWIDTH 960 0
DWIDTH 12 0
BBX 15 12 -1 -2
BITMAP
0cd8
0dfe
1ed8
0df8
0eb4
1bfc
3800
7ff8
36d0
6db0
69b0
6380
ENDCHAR
STARTCHAR 3660
ENCODING 13920
SWIDTH 960 0
DWIDTH 12 0
BBX 15 12 -1 -2
BITMAP
0f6c
01fe
1f6c
00f8
1ea8
01f8
3cc0
07f0
7cc0
dbe0
d980
fff0
ENDCHAR
STARTCHAR 3661
ENCODING 13921
SWIDTH 960 0
DWIDTH 12 0
BBX 15 12 -1 -2
BITMAP
000e
0cf8
06c0
0180
01fc
3db0
1b60
1b60
1a60
3cc0
6c00
c7f8
ENDCHAR
STARTCHAR 3662
ENCODING 13922
SWIDTH 960 0
DWIDTH 12 0
BBX 15 12 -1 -2
BITMAP
00c0
00c0
01a0
0760
0ff0
399c
0300
3ff0
0300
36c0
1a80
fff0
ENDCHAR
STARTCHAR 3663
ENCODING 13923
SWIDTH 960 0
DWIDTH 12 0
BBX 15 12 -1 -2
BITMAP
0060
0070
1ed0
35b0
35f8
360c
6800
6bf0
6860
f0c0
0180
0300
ENDCHAR
STARTCHAR 3664
ENCODING 13924
SWIDTH 960 0
DWIDTH 12 0
BBX 15 12 -1 -2
BITMAP
0600
06fc
0d4c
1bf8
3e98
0df8
7f58
1b50
6d60
76c0
3ba0
ee30
ENDCHAR
STARTCHAR 3665
ENCODING 13925
SWIDTH 960 0
DWIDTH 12 0
BBX 15 12 -1 -2
BITMAP
0180
0180
0180
1fe0
0360
0360
06c0
06c0
0cc0
19b0
31b0
60f0
ENDCHAR
STARTCHAR 3666
ENCODING 13926
SWIDTH 960 0
DWIDTH 12 0
BBX 15 12 -1 -2
BITMAP
0300
03fc
038c
0718
0df8
3d18
6bf0
1a30
1ff8
3340
3660
3c30
ENDCHAR
STARTCHAR 3667
ENCODING 13927
SWIDTH 960 0
DWIDTH 12 0
BBX 15 12 -1 -2
BITMAP
0300
0300
07fe
0c0c
1bec
366c
0cd8
0cd8
0fd8
0030
0030
00e0
ENDCHAR
STARTCHAR 3668
ENCODING 13928
SWIDTH 960 0
DWIDTH 12 0
BBX 15 12 -1 -2
BITMAP
0000
0ffe
0c30
1830
1b60
19c0
3180
3340
3660
6800
7ff0
6000
ENDCHAR
STARTCHAR 3669
ENCODING 13929
SWIDTH 960 0
DWIDTH 12 0
BBX 15 12 -1 -2
BITMAP
1b40
0ec0
1cfe
358c
0d0c
0ff4
3b68
6b68
1be8
3030
3030
e0e0
ENDCHAR
STARTCHAR 366a
ENCODING 13930
SWIDTH 960 0
DWIDTH 12 0
BBX 15 12 -1 -2
BITMAP
0060
1fa0
06dc
0cd8
3e98
0d30
1a60
18e0
3ea0
e360
0630
1c30
ENDCHAR
STARTCHAR 366b
ENCODING 13931
SWIDTH 960 0
DWIDTH 12 0
BBX 15 12 -1 -2
BITMAP
0c00
0cfe
0fc0
1d80
35f8
0d98
3f30
1bf0
1d00
3600
6600
c7f0
ENDCHAR
STARTCHAR 366c
ENCODING 13932
SWIDTH 960 0
DWIDTH 12 0
BBX 15 12 -1 -2
BITMAP
0330
1ffe
0330
06a0
0180
3ffc
0300
0300
1fe0
30c0
30c0
3fc0
ENDCHAR
STARTCHAR 366d
ENCODING 13933
SWIDTH 960 0
DWIDTH 12 0
BBX 15 12 -1 -2
BITMAP
0600
0fbe
0da0
1f4c
1b6c
1f58
37b0
7ea8
1ed8
3580
ed00
1df0
ENDCHAR
STARTCHAR 366e
ENCODING 13934
SWIDTH 960 0
DWIDTH 12 0
BBX 15 12 -1 -2
BITMAP
0000
1ffe
1acc
3e98
35a8
3eb0
6b60
7f50
0798
d700
ce00
3bf0
ENDCHAR
STARTCHAR 366f
ENCODING 13935
SWIDTH 960 0
DWIDTH 12 0
BBX 15 12 -1 -2
BITMAP
000c
1f98
1a70
3ec0
34fc
3ed8
69b0
7eb0
06b0
d560
cd60
3bf8
ENDCHAR
STARTCHAR 3670
ENCODING 13936
SWIDTH 960 0
DWIDTH 12 0
BBX 15 12 -1 -2
BITMAP
0060
1fa0
1afe
3e8c
35f4
3fb4
69a8
7ea8
06e8
d430
cc30
38e0
ENDCHAR
STARTCHAR 3671
ENCODING 13937
SWIDTH 960 0
DWIDTH 12 0
BBX 15 12 -1 -2
BITMAP
07f0
0630
07f0
0c60
0fe0
0c60
1fc0
0000
7ff8
1b00
31c0
e060
ENDCHAR
STARTCHAR 3672
ENCODING 13938
SWIDTH 960 0
DWIDTH 12 0
BBX 15 12 -1 -2
BITMAP
07f8
06d8
07f8
0db0
3ffc
374c
6dd8
6e68
0d78
6b60
d8d0
0fc0
ENDCHAR
STARTCHAR 3673
ENCODING 13939
SWIDTH 960 0
DWIDTH 12 0
BBX 15 12 -1 -2
BITMAP
00c0
00f8
0ffe
1998
1bf8
1d30
3be0
3fc0
60c0
7ff0
ccc0
d860
ENDCHAR
STARTCHAR 3674
ENCODING 13940
SWIDTH 960 0
DWIDTH 12 0
BBX 15 12 -1 -2
BITMAP
0060
00d0
1ff8
3618
35f4
3530
6be0
6be0
6ab0
f4c0
0ee0
3c30
ENDCHAR
STARTCHAR 3675
ENCODING 13941
SWIDTH 960 0
DWIDTH 12 0
BBX 15 12 -1 -2
BITMAP
00c0
1ffe
1b4c
36cc
06d8
0c78
3800
1ff0
0300
0600
0600
fff0
ENDCHAR
STARTCHAR 3676
ENCODING 13942
SWIDTH 960 0
DWIDTH 12 0
BBX 15 12 -1 -2
BITMAP
0600
06fc
0dac
0df8
1b58
3bf8
3180
37f8
35a8
6bd0
6ed0
6870
ENDCHAR
STARTCHAR 3677
ENCODING 13943
SWIDTH 960 0
DWIDTH 12 0
BBX 15 12 -1 -2
BITMAP
00c0
1ffe
1806
37f4
0db0
0ff0
1b60
3ff0
3350
6fa0
61a0
60e0
ENDCHAR
STARTCHAR 3678
ENCODING 13944
SWIDTH 960 0
DWIDTH 12 0
BBX 15 12 -1 -2
BITMAP
01fc
0dac
06fc
0358
03f8
3cc0
1bf8
1aa8
1be8
1cf0
6c00
c7f8
ENDCHAR
STARTCHAR 3679
ENCODING 13945
SWIDTH 960 0
DWIDTH 12 0
BBX 15 12 -1 -2
BITMAP
0000
1efc
1aac
35f8
3b58
3bf8
6980
6ff8
7da8
ebd0
ded0
d870
ENDCHAR
STARTCHAR 367a
ENCODING 13946
SWIDTH 960 0
DWIDTH 12 0
BBX 15 12 -1 -2
BITMAP
00c0
00c0
0ffc
1998
1ff8
0180
7ff8
6318
7ff8
0600
0600
0600
ENDCHAR
STARTCHAR 367b
ENCODING 13947
SWIDTH 960 0
DWIDTH 12 0
BBX 15 12 -1 -2
BITMAP
0698
06ee
07b4
3e98
0ddc
1d54
3fa8
3aa8
6ba8
d4f0
3740
3540
ENDCHAR
STARTCHAR 367c
ENCODING 13948
SWIDTH 960 0
DWIDTH 12 0
BBX 15 12 -1 -2
BITMAP
0666
066a
0d6a
1b54
3f54
0cd4
7ea8
19a8
6da8
7550
3b30
e630
ENDCHAR
STARTCHAR 367d
ENCODING 13949
SWIDTH 960 0
DWIDTH 12 0
BBX 15 12 -1 -2
BITMAP
0ffe
0c06
0ffe
1ad8
1b50
1bf0
3430
37f0
3430
6fe0
d860
18e0
ENDCHAR
STARTCHAR 367e
ENCODING 13950
SWIDTH 960 0
DWIDTH 12 0
BBX 15 12 -1 -2
BITMAP
0000
0ffe
0c06
1ffc
18c0
1ad8
35b0
37f0
3180
7330
d330
3ff0
ENDCHAR
STARTCHAR 3721
ENCODING 14113
SWIDTH 960 0
DWIDTH 12 0
BBX 15 12 -1 -2
BITMAP
0600
06fe
0686
3ffc
0d30
0d54
1ea8
7af8
1a60
36d0
3ad0
77f0
ENDCHAR
STARTCHAR 3722
ENCODING 14114
SWIDTH 960 0
DWIDTH 12 0
BBX 15 12 -1 -2
BITMAP
00c0
1ffe
1b1a
0ff0
3c3c
0ff0
1980
1db0
3ff0
6300
d360
3fe0
ENDCHAR
STARTCHAR 3723
ENCODING 14115
SWIDTH 960 0
DWIDTH 12 0
BBX 15 12 -1 -2
BITMAP
00c0
00dc
1f70
06c0
0db0
399c
0700
1fe0
1860
3fc0
30c0
3fc0
ENDCHAR
STARTCHAR 3724
ENCODING 14116
SWIDTH 960 0
DWIDTH 12 0
BBX 15 12 -1 -2
BITMAP
0d68
1fa8
0d58
1eb4
0d54
3f58
6aa0
7ea0
19a0
fd50
3350
3370
ENDCHAR
STARTCHAR 3725
ENCODING 14117
SWIDTH 960 0
DWIDTH 12 0
BBX 15 12 -1 -2
BITMAP
0df4
18d8
1ff4
1ab4
3ffc
19b8
7ff0
3368
3fe0
30c0
30c0
3fc0
ENDCHAR
STARTCHAR 3726
ENCODING 14118
SWIDTH 960 0
DWIDTH 12 0
BBX 15 12 -1 -2
BITMAP
00c0
1ffe
1bac
1e78
18c0
0df8
6180
37f8
0180
37e0
6300
dff0
ENDCHAR
STARTCHAR 3727
ENCODING 14119
SWIDTH 960 0
DWIDTH 12 0
BBX 15 12 -1 -2
BITMAP
066c
0db8
1fe6
1bbc
1f00
1b58
3ee0
3698
66f8
0000
6b60
cdb0
ENDCHAR
STARTCHAR 3728
ENCODING 14120
SWIDTH 960 0
DWIDTH 12 0
BBX 15 12 -1 -2
BITMAP
0000
1efc
1aac
35f8
3b58
3bf8
6800
6ff8
76b0
edc0
cd60
de30
ENDCHAR
STARTCHAR 3729
ENCODING 14121
SWIDTH 960 0
DWIDTH 12 0
BBX 15 12 -1 -2
BITMAP
0180
01f0
0f60
39c0
0670
3d3c
1b60
0d40
7ff8
0f00
3ac0
e670
ENDCHAR
STARTCHAR 372a
ENCODING 14122
SWIDTH 960 0
DWIDTH 12 0
BBX 15 12 -1 -2
BITMAP
0000
1ffe
01a0
1ff8
1b58
1ff8
0300
7ff8
0f80
3ac0
e670
0600
ENDCHAR
STARTCHAR 372b
ENCODING 14123
SWIDTH 960 0
DWIDTH 12 0
BBX 15 12 -1 -2
BITMAP
0678
0668
1e78
1a00
0ddc
3b54
6fb8
18c0
6bf8
d5c0
d6a0
35b0
ENDCHAR
STARTCHAR 372c
ENCODING 14124
SWIDTH 960 0
DWIDTH 12 0
BBX 15 12 -1 -2
BITMAP
07f8
0330
03c0
0e70
3ff8
1b50
1d60
77b0
7ff8
0f00
3ac0
e670
ENDCHAR
STARTCHAR 372d
ENCODING 14125
SWIDTH 960 0
DWIDTH 12 0
BBX 15 12 -1 -2
BITMAP
0634
06ec
0d6c
1b5a
3efa
0cdc
7db0
1bd0
6ef0
7b50
3db0
e318
ENDCHAR
STARTCHAR 372e
ENCODING 14126
SWIDTH 960 0
DWIDTH 12 0
BBX 15 12 -1 -2
BITMAP
0fd0
0330
1ffe
1aac
1fac
1aac
3f58
0d98
7f70
60c0
6b60
cdb0
ENDCHAR
STARTCHAR 372f
ENCODING 14127
SWIDTH 960 0
DWIDTH 12 0
BBX 15 12 -1 -2
BITMAP
0000
0ff8
0198
3ffc
0330
0330
3fe0
0c00
3fe0
68c0
d8c0
1fc0
ENDCHAR
STARTCHAR 3730
ENCODING 14128
SWIDTH 960 0
DWIDTH 12 0
BBX 15 12 -1 -2
BITMAP
0330
1ffe
0330
1ff8
0180
3ffc
1b60
1fe0
1b60
fff0
6b60
cdb0
ENDCHAR
STARTCHAR 3731
ENCODING 14129
SWIDTH 960 0
DWIDTH 12 0
BBX 15 12 -1 -2
BITMAP
0f66
006a
1faa
00d4
1ed4
00d4
3da8
01a8
7d68
db50
da30
fa30
ENDCHAR
STARTCHAR 3732
ENCODING 14130
SWIDTH 960 0
DWIDTH 12 0
BBX 15 12 -1 -2
BITMAP
0066
0fd4
06fe
3fd0
0db0
1ffc
1860
1f60
3bf8
76c0
d6c0
3ec0
ENDCHAR
STARTCHAR 3733
ENCODING 14131
SWIDTH 960 0
DWIDTH 12 0
BBX 15 12 -1 -2
BITMAP
1ffe
18c6
1bfa
0180
1ff8
1998
3ff0
3330
3ff0
0600
fff0
0600
ENDCHAR
STARTCHAR 3734
ENCODING 14132
SWIDTH 960 0
DWIDTH 12 0
BBX 15 12 -1 -2
BITMAP
0000
0fde
06d4
3fe8
0db0
1fa8
18d8
1f58
3b50
76e0
d680
3e80
ENDCHAR
STARTCHAR 3735
ENCODING 14133
SWIDTH 960 0
DWIDTH 12 0
BBX 15 12 -1 -2
BITMAP
0330
0330
0fd0
0660
3fb0
0668
0cd8
3f58
0cc0
1f80
f180
0180
ENDCHAR
STARTCHAR 3736
ENCODING 14134
SWIDTH 960 0
DWIDTH 12 0
BBX 15 12 -1 -2
BITMAP
0600
067c
1fac
0d58
0d58
1b78
7000
7ff8
0d30
3b60
eec0
3870
ENDCHAR
STARTCHAR 3737
ENCODING 14135
SWIDTH 960 0
DWIDTH 12 0
BBX 15 12 -1 -2
BITMAP
0600
067c
1fa8
0350
06e0
0cd0
3db0
6a98
19b0
3360
3300
3300
ENDCHAR
STARTCHAR 3738
ENCODING 14136
SWIDTH 960 0
DWIDTH 12 0
BBX 15 12 -1 -2
BITMAP
031c
03f0
036c
07b0
0ce0
3cd8
6be8
18c0
1b50
36b0
35b0
3180
ENDCHAR
STARTCHAR 3739
ENCODING 14137
SWIDTH 960 0
DWIDTH 12 0
BBX 15 12 -1 -2
BITMAP
0600
06fe
0630
0ef8
1ad8
3b78
35b0
35f0
37b0
6de0
63a0
6e30
ENDCHAR
STARTCHAR 373a
ENCODING 14138
SWIDTH 960 0
DWIDTH 12 0
BBX 15 12 -1 -2
BITMAP
0006
1fd6
0db6
1b6c
1b6c
3fec
36d8
36d8
36d8
6c30
6c30
cc70
ENDCHAR
STARTCHAR 373b
ENCODING 14139
SWIDTH 960 0
DWIDTH 12 0
BBX 15 12 -1 -2
BITMAP
0000
07f8
0618
0c30
0c30
0ff0
0680
0680
0d80
1b30
3330
e1f0
ENDCHAR
STARTCHAR 373c
ENCODING 14140
SWIDTH 960 0
DWIDTH 12 0
BBX 15 12 -1 -2
BITMAP
1fa0
007e
0fec
1ba8
1f30
18e8
3398
6000
1fe0
30c0
30c0
3fc0
ENDCHAR
STARTCHAR 373d
ENCODING 14141
SWIDTH 960 0
DWIDTH 12 0
BBX 15 12 -1 -2
BITMAP
00c0
00c0
07fc
0180
0180
1ffc
0300
0300
3ff0
0600
0600
fff0
ENDCHAR
STARTCHAR 373e
ENCODING 14142
SWIDTH 960 0
DWIDTH 12 0
BBX 15 12 -1 -2
BITMAP
0030
1f30
06fc
0c60
3e60
0dfc
18c0
18c0
1ff0
f180
0180
1ff0
ENDCHAR
STARTCHAR 373f
ENCODING 14143
SWIDTH 960 0
DWIDTH 12 0
BBX 15 12 -1 -2
BITMAP
0006
0ff6
06b6
0d6c
3fec
1d6c
3318
6338
1fe0
0600
0600
fff0
ENDCHAR
STARTCHAR 3740
ENCODING 14144
SWIDTH 960 0
DWIDTH 12 0
BBX 15 12 -1 -2
BITMAP
0300
0fbe
0336
1fac
066c
0fd8
7b70
0300
7ff8
0d00
39c0
e070
ENDCHAR
STARTCHAR 3741
ENCODING 14145
SWIDTH 960 0
DWIDTH 12 0
BBX 15 12 -1 -2
BITMAP
0018
1fd8
0db0
1b68
1b58
3fb0
3660
36d8
3630
6c60
6cc0
cd80
ENDCHAR
STARTCHAR 3742
ENCODING 14146
SWIDTH 960 0
DWIDTH 12 0
BBX 15 12 -1 -2
BITMAP
0600
06fc
0e18
3ad0
0c60
0dd0
3b58
68c0
1bf0
3180
3180
3ff0
ENDCHAR
STARTCHAR 3743
ENCODING 14147
SWIDTH 960 0
DWIDTH 12 0
BBX 15 12 -1 -2
BITMAP
00c0
1ffe
00c0
0ff8
0d98
0ff8
1b30
1ff0
1b00
6b60
d8d0
0fc0
ENDCHAR
STARTCHAR 3744
ENCODING 14148
SWIDTH 960 0
DWIDTH 12 0
BBX 15 12 -1 -2
BITMAP
00c0
0ffe
0db0
1ff8
1b68
1ffc
36b0
3be8
36d8
7b00
cdc0
7870
ENDCHAR
STARTCHAR 3745
ENCODING 14149
SWIDTH 960 0
DWIDTH 12 0
BBX 15 12 -1 -2
BITMAP
1fbc
0630
1ffc
0c60
1ff8
0030
3fe0
0060
3fe0
6a60
db50
0fc0
ENDCHAR
STARTCHAR 3746
ENCODING 14150
SWIDTH 960 0
DWIDTH 12 0
BBX 15 12 -1 -2
BITMAP
03b0
1e7c
066c
3f78
0cd8
1f78
36b0
3ef0
0d00
6b60
d8d0
0fc0
ENDCHAR
STARTCHAR 3747
ENCODING 14151
SWIDTH 960 0
DWIDTH 12 0
BBX 15 12 -1 -2
BITMAP
06fc
06cc
06fc
3e98
0df8
0cc0
1df8
7b18
1de8
3630
33d0
70e0
ENDCHAR
STARTCHAR 3748
ENCODING 14152
SWIDTH 960 0
DWIDTH 12 0
BBX 15 12 -1 -2
BITMAP
06cc
06fe
07d8
3efc
0db0
0dfc
1d60
7bf8
1b30
3370
3630
74e0
ENDCHAR
STARTCHAR 3749
ENCODING 14153
SWIDTH 960 0
DWIDTH 12 0
BBX 15 12 -1 -2
BITMAP
06b0
1fd0
06be
0cd8
1fd8
19d0
7d50
3560
3560
7ac0
0760
1c30
ENDCHAR
STARTCHAR 374a
ENCODING 14154
SWIDTH 960 0
DWIDTH 12 0
BBX 15 12 -1 -2
BITMAP
07f8
0618
07f8
0c30
3ffc
0000
1fe0
1860
1fe0
0680
36c0
ee60
ENDCHAR
STARTCHAR 374b
ENCODING 14155
SWIDTH 960 0
DWIDTH 12 0
BBX 15 12 -1 -2
BITMAP
0630
0630
06fc
3f60
0c60
1ffc
3cc0
3ac0
6bf0
d180
3180
37f0
ENDCHAR
STARTCHAR 374c
ENCODING 14156
SWIDTH 960 0
DWIDTH 12 0
BBX 15 12 -1 -2
BITMAP
0c7c
07cc
0358
3358
1b50
03f8
0180
1ff8
3180
6380
c6c0
dc70
ENDCHAR
STARTCHAR 374d
ENCODING 14157
SWIDTH 960 0
DWIDTH 12 0
BBX 15 12 -1 -2
BITMAP
0030
1fb0
1afc
3560
3560
3ffc
6ac0
6ac0
6bf0
fd80
0180
0ff0
ENDCHAR
STARTCHAR 374e
ENCODING 14158
SWIDTH 960 0
DWIDTH 12 0
BBX 15 12 -1 -2
BITMAP
036c
1efe
0670
0cdc
3f98
0df0
3d18
3bf8
6b30
d7e0
3660
37e0
ENDCHAR
STARTCHAR 374f
ENCODING 14159
SWIDTH 960 0
DWIDTH 12 0
BBX 15 12 -1 -2
BITMAP
003c
0fe0
01d8
0d60
06c0
03b0
7ff0
0318
1b40
36c0
6660
0600
ENDCHAR
STARTCHAR 3750
ENCODING 14160
SWIDTH 960 0
DWIDTH 12 0
BBX 15 12 -1 -2
BITMAP
0600
06fc
1e68
1a70
0cd0
3b9c
6ec0
18c0
6df0
d680
d180
37f0
ENDCHAR
STARTCHAR 3751
ENCODING 14161
SWIDTH 960 0
DWIDTH 12 0
BBX 15 12 -1 -2
BITMAP
06d8
06d8
1eee
1ab8
0dfc
3ab0
6f70
1b70
6da8
d6c0
d6c0
37f0
ENDCHAR
STARTCHAR 3752
ENCODING 14162
SWIDTH 960 0
DWIDTH 12 0
BBX 15 12 -1 -2
BITMAP
1fb8
066a
1fde
35f8
3f58
0ce0
7fb8
1da0
0740
fff0
1a80
76e0
ENDCHAR
STARTCHAR 3753
ENCODING 14163
SWIDTH 960 0
DWIDTH 12 0
BBX 15 12 -1 -2
BITMAP
0000
0ffc
0dac
1ff8
0660
1fa0
0ce0
7fd0
0cd8
7e80
1e80
f980
ENDCHAR
STARTCHAR 3754
ENCODING 14164
SWIDTH 960 0
DWIDTH 12 0
BBX 15 12 -1 -2
BITMAP
0330
1ffe
0330
1ff0
06e0
0700
1dc0
7378
1fe0
0600
0600
fff0
ENDCHAR
STARTCHAR 3755
ENCODING 14165
SWIDTH 960 0
DWIDTH 12 0
BBX 15 12 -1 -2
BITMAP
0360
1ffe
0360
0018
3fd8
0d58
1ab0
7fb0
1ab0
3560
6c60
cce0
ENDCHAR
STARTCHAR 3756
ENCODING 14166
SWIDTH 960 0
DWIDTH 12 0
BBX 15 12 -1 -2
BITMAP
0d98
06d8
06f0
3fdc
318c
37f4
1b60
1b60
1fe0
0660
07f0
fc30
ENDCHAR
STARTCHAR 3757
ENCODING 14167
SWIDTH 960 0
DWIDTH 12 0
BBX 15 12 -1 -2
BITMAP
0f30
0030
1fb0
0060
1ffc
0060
3cc0
00c0
7cc0
d980
d980
f980
ENDCHAR
STARTCHAR 3758
ENCODING 14168
SWIDTH 960 0
DWIDTH 12 0
BBX 15 12 -1 -2
BITMAP
0f40
00dc
1ff0
018c
1efc
0000
3df0
0330
7df0
da60
da60
fbe0
ENDCHAR
STARTCHAR 3759
ENCODING 14169
SWIDTH 960 0
DWIDTH 12 0
BBX 15 12 -1 -2
BITMAP
06b0
1fdf
0ce6
3eac
1ab8
1eee
0700
3ff8
07c0
3fe0
3060
3fe0
ENDCHAR
STARTCHAR 375a
ENCODING 14170
SWIDTH 960 0
DWIDTH 12 0
BBX 15 12 -1 -2
BITMAP
0600
1fbe
060c
3f68
3530
3f5c
6a60
7e60
19f8
fcc0
30c0
37f8
ENDCHAR
STARTCHAR 375b
ENCODING 14171
SWIDTH 960 0
DWIDTH 12 0
BBX 15 12 -1 -2
BITMAP
0000
1fbe
01b0
1b7c
0ecc
3b7c
6998
3ef8
1998
35f0
39a0
e730
ENDCHAR
STARTCHAR 375c
ENCODING 14172
SWIDTH 960 0
DWIDTH 12 0
BBX 15 12 -1 -2
BITMAP
03a0
1efc
00cc
35f8
3580
01f8
7f00
1bf8
7e18
3350
6a30
c0e0
ENDCHAR
STARTCHAR 375d
ENCODING 14173
SWIDTH 960 0
DWIDTH 12 0
BBX 15 12 -1 -2
BITMAP
0330
1ffe
0330
0660
1ff8
0000
7ff8
0300
0ec0
1bc0
7e60
0060
ENDCHAR
STARTCHAR 375e
ENCODING 14174
SWIDTH 960 0
DWIDTH 12 0
BBX 15 12 -1 -2
BITMAP
0000
0c60
06fe
036c
036c
3d6c
1ad8
1bd8
1af0
1980
6d80
c7f8
ENDCHAR
STARTCHAR 375f
ENCODING 14175
SWIDTH 960 0
DWIDTH 12 0
BBX 15 12 -1 -2
BITMAP
0630
07fe
0d00
1f78
3558
3f58
6af0
7e60
1db0
7550
6ad0
c1c0
ENDCHAR
STARTCHAR 3760
ENCODING 14176
SWIDTH 960 0
DWIDTH 12 0
BBX 15 12 -1 -2
BITMAP
03c6
0336
0fd6
1dac
1f6c
186c
3f58
35d8
3b58
6e30
d530
1870
ENDCHAR
STARTCHAR 3761
ENCODING 14177
SWIDTH 960 0
DWIDTH 12 0
BBX 15 12 -1 -2
BITMAP
0630
1fb8
0634
3f7c
33e0
3f70
66d0
7ee0
1860
fdb0
3330
3630
ENDCHAR
STARTCHAR 3762
ENCODING 14178
SWIDTH 960 0
DWIDTH 12 0
BBX 15 12 -1 -2
BITMAP
033c
1fd4
0d55
1ffe
1aa8
3ff8
0d8c
1fe0
0180
fff0
0300
0700
ENDCHAR
STARTCHAR 3763
ENCODING 14179
SWIDTH 960 0
DWIDTH 12 0
BBX 15 12 -1 -2
BITMAP
0db0
07d0
036e
37a8
1ad8
07d0
06d0
1fa0
36e0
6ea0
db60
d630
ENDCHAR
STARTCHAR 3764
ENCODING 14180
SWIDTH 960 0
DWIDTH 12 0
BBX 15 12 -1 -2
BITMAP
0030
1ed4
1ab6
35f8
3b18
3bf8
6a30
6bf0
7750
cdb0
d9b0
c380
ENDCHAR
STARTCHAR 3765
ENCODING 14181
SWIDTH 960 0
DWIDTH 12 0
BBX 15 12 -1 -2
BITMAP
0660
06dc
0780
3ec0
0dbc
1fb0
3d60
3b60
6b60
d6c0
36c0
36c0
ENDCHAR
STARTCHAR 3766
ENCODING 14182
SWIDTH 960 0
DWIDTH 12 0
BBX 15 12 -1 -2
BITMAP
068c
06cc
075e
0fa8
19fc
3b18
3db0
37f8
37c0
6d40
6b70
6300
ENDCHAR
STARTCHAR 3767
ENCODING 14183
SWIDTH 960 0
DWIDTH 12 0
BBX 15 12 -1 -2
BITMAP
0300
0300
0600
07fc
0d98
19b0
3300
0380
0680
1d80
30c0
e070
ENDCHAR
STARTCHAR 3768
ENCODING 14184
SWIDTH 960 0
DWIDTH 12 0
BBX 15 12 -1 -2
BITMAP
0c60
0660
03fc
30d8
18d8
00d8
1ffc
19c0
3340
66c0
cc60
d830
ENDCHAR
STARTCHAR 3769
ENCODING 14185
SWIDTH 960 0
DWIDTH 12 0
BBX 15 12 -1 -2
BITMAP
0dbe
07ea
019a
0fb4
33ec
1ed8
0f40
1bb0
37e8
3540
db60
c300
ENDCHAR
STARTCHAR 376a
ENCODING 14186
SWIDTH 960 0
DWIDTH 12 0
BBX 15 12 -1 -2
BITMAP
00c0
00c0
1ffe
300c
300c
06e0
0cc0
0cc0
18c0
30c0
6060
c030
ENDCHAR
STARTCHAR 376b
ENCODING 14187
SWIDTH 960 0
DWIDTH 12 0
BBX 15 12 -1 -2
BITMAP
0630
0630
1ffe
1a60
0c60
3bf8
6e00
1bf0
6d30
d660
d660
37e0
ENDCHAR
STARTCHAR 376c
ENCODING 14188
SWIDTH 960 0
DWIDTH 12 0
BBX 15 12 -1 -2
BITMAP
0180
0180
0700
1df8
1b58
1b58
36b0
36b0
36b0
6d60
fff0
0000
ENDCHAR
STARTCHAR 376d
ENCODING 14189
SWIDTH 960 0
DWIDTH 12 0
BBX 15 12 -1 -2
BITMAP
0f60
0060
1e60
03f8
1ed8
00d8
3ff8
0180
7dc0
dac0
dc60
f830
ENDCHAR
STARTCHAR 376e
ENCODING 14190
SWIDTH 960 0
DWIDTH 12 0
BBX 15 12 -1 -2
BITMAP
0000
03fc
030c
0618
07f8
0618
0c30
0ff0
1830
1860
3060
60e0
ENDCHAR
STARTCHAR 376f
ENCODING 14191
SWIDTH 960 0
DWIDTH 12 0
BBX 15 12 -1 -2
BITMAP
0330
0350
0350
07f8
0d60
3e60
6ff8
18c0
18c0
3180
3180
3180
ENDCHAR
STARTCHAR 3770
ENCODING 14192
SWIDTH 960 0
DWIDTH 12 0
BBX 15 12 -1 -2
BITMAP
0330
0368
07cc
0d74
0e66
3efc
6ad8
1bf8
19c0
3340
3660
3430
ENDCHAR
STARTCHAR 3771
ENCODING 14193
SWIDTH 960 0
DWIDTH 12 0
BBX 15 12 -1 -2
BITMAP
066c
06a8
07fc
0cc0
1bfc
3ba0
3660
37d0
38d8
6f80
6c60
67e0
ENDCHAR
STARTCHAR 3772
ENCODING 14194
SWIDTH 960 0
DWIDTH 12 0
BBX 15 12 -1 -2
BITMAP
0618
067e
07da
0dfe
1b34
3bfc
3360
35f8
3760
67f0
6d40
69f8
ENDCHAR
STARTCHAR 3773
ENCODING 14195
SWIDTH 960 0
DWIDTH 12 0
BBX 15 12 -1 -2
BITMAP
0330
1ffe
01a0
1ff8
0358
3ffc
06b0
3ff0
1ec0
3540
ed70
0d00
ENDCHAR
STARTCHAR 3774
ENCODING 14196
SWIDTH 960 0
DWIDTH 12 0
BBX 15 12 -1 -2
BITMAP
06d8
0358
0350
1ff8
0340
3ffc
0cc0
1fe0
74d8
0d80
1980
3700
ENDCHAR
STARTCHAR 3775
ENCODING 14197
SWIDTH 960 0
DWIDTH 12 0
BBX 15 12 -1 -2
BITMAP
0306
06b6
1cd6
376c
066c
1fac
3558
3f58
0ed8
1a30
3330
e070
ENDCHAR
STARTCHAR 3776
ENCODING 14198
SWIDTH 960 0
DWIDTH 12 0
BBX 15 12 -1 -2
BITMAP
0030
1ffe
1b0c
35f8
3400
35f8
6a30
6bf0
7a30
0fe0
0000
1ff0
ENDCHAR
STARTCHAR 3777
ENCODING 14199
SWIDTH 960 0
DWIDTH 12 0
BBX 15 12 -1 -2
BITMAP
0000
1ffe
1b56
37f4
318c
3ffc
6fd8
79b8
6f98
d9b0
cfb0
fff0
ENDCHAR
STARTCHAR 3778
ENCODING 14200
SWIDTH 960 0
DWIDTH 12 0
BBX 15 12 -1 -2
BITMAP
0000
1fbe
1a06
3f4c
3368
3f70
68d0
7f98
0300
3fc0
0600
fff0
ENDCHAR
STARTCHAR 3779
ENCODING 14201
SWIDTH 960 0
DWIDTH 12 0
BBX 15 12 -1 -2
BITMAP
0d98
0dfe
0cd0
3ff8
1aa8
1bfc
3550
6ff0
7d40
36c0
6ab0
c680
ENDCHAR
STARTCHAR 377a
ENCODING 14202
SWIDTH 960 0
DWIDTH 12 0
BBX 15 12 -1 -2
BITMAP
0030
0f7c
0734
0dfc
1868
1ef8
0cc0
35f0
38c0
3bf0
6e80
c3f8
ENDCHAR
STARTCHAR 377b
ENCODING 14203
SWIDTH 960 0
DWIDTH 12 0
BBX 15 12 -1 -2
BITMAP
00c0
1ffe
18c6
37f4
0180
3ffc
36b0
3ff0
3500
6b60
d8d0
0fc0
ENDCHAR
STARTCHAR 377c
ENCODING 14204
SWIDTH 960 0
DWIDTH 12 0
BBX 15 12 -1 -2
BITMAP
07bc
1af0
1bb4
35d0
3768
33fc
7ec0
1b50
6bb8
1b60
68d0
cfd0
ENDCHAR
STARTCHAR 377d
ENCODING 14205
SWIDTH 960 0
DWIDTH 12 0
BBX 15 12 -1 -2
BITMAP
06d8
0350
0ffc
0340
3ffc
1dd0
7738
1fe0
0300
7fe0
0600
0e00
ENDCHAR
STARTCHAR 377e
ENCODING 14206
SWIDTH 960 0
DWIDTH 12 0
BBX 15 12 -1 -2
BITMAP
06b6
06d4
06fc
3e60
0dfc
0dd0
1d30
7aec
1860
37c0
3660
73e0
ENDCHAR
STARTCHAR 3821
ENCODING 14369
SWIDTH 960 0
DWIDTH 12 0
BBX 15 12 -1 -2
BITMAP
0630
0668
06dc
3f74
0c60
1df8
3ed0
3bf0
69c0
d340
3660
3c30
ENDCHAR
STARTCHAR 3822
ENCODING 14370
SWIDTH 960 0
DWIDTH 12 0
BBX 15 12 -1 -2
BITMAP
06c0
06fc
07b0
3efc
0cd0
0efc
3b40
3df0
6b40
d7e0
3680
37f0
ENDCHAR
STARTCHAR 3823
ENCODING 14371
SWIDTH 960 0
DWIDTH 12 0
BBX 15 12 -1 -2
BITMAP
00c0
1ffe
01d0
0740
3ffc
336c
6fa8
1b00
3fe0
6600
fff0
0600
ENDCHAR
STARTCHAR 3824
ENCODING 14372
SWIDTH 960 0
DWIDTH 12 0
BBX 15 12 -1 -2
BITMAP
00c0
00d8
00cc
0180
3ffc
0180
0380
0680
0d80
1980
30c0
e070
ENDCHAR
STARTCHAR 3825
ENCODING 14373
SWIDTH 960 0
DWIDTH 12 0
BBX 15 12 -1 -2
BITMAP
0318
1fdc
031a
3fb0
3bfc
36b0
7f60
6d50
7f50
dab0
db30
da18
ENDCHAR
STARTCHAR 3826
ENCODING 14374
SWIDTH 960 0
DWIDTH 12 0
BBX 15 12 -1 -2
BITMAP
0000
1ffe
066c
0cd8
18d8
1ffc
76b0
36b0
3730
7d60
0660
0c60
ENDCHAR
STARTCHAR 3827
ENCODING 14375
SWIDTH 960 0
DWIDTH 12 0
BBX 15 12 -1 -2
BITMAP
0000
1ffc
06cc
0df8
1998
1ef8
7530
35f0
3560
6b40
7ad0
0c70
ENDCHAR
STARTCHAR 3828
ENCODING 14376
SWIDTH 960 0
DWIDTH 12 0
BBX 15 12 -1 -2
BITMAP
067e
0c66
1b7e
1c00
1b7c
3f4c
1af8
6d98
6df8
d530
d330
3370
ENDCHAR
STARTCHAR 3829
ENCODING 14377
SWIDTH 960 0
DWIDTH 12 0
BBX 15 12 -1 -2
BITMAP
0000
03f8
1b18
37f0
3630
37f0
6c60
6fe0
6000
fff0
36c0
e670
ENDCHAR
STARTCHAR 382a
ENCODING 14378
SWIDTH 960 0
DWIDTH 12 0
BBX 15 12 -1 -2
BITMAP
0000
0ffe
0000
1ffc
180c
1ffc
3430
37f0
3430
6fe0
d860
18e0
ENDCHAR
STARTCHAR 382b
ENCODING 14379
SWIDTH 960 0
DWIDTH 12 0
BBX 15 12 -1 -2
BITMAP
0000
07f8
0618
0ff0
0c30
0ff0
1860
1fe0
0e80
1b30
3330
e1f0
ENDCHAR
STARTCHAR 382c
ENCODING 14380
SWIDTH 960 0
DWIDTH 12 0
BBX 15 12 -1 -2
BITMAP
1ecc
01fe
1f68
01fc
3cd4
03fe
79a8
07f8
7da0
db60
dd50
fb40
ENDCHAR
STARTCHAR 382d
ENCODING 14381
SWIDTH 960 0
DWIDTH 12 0
BBX 15 12 -1 -2
BITMAP
1ffe
1a6c
1fb8
3368
3fcc
0ff0
1860
1fe0
1860
3fc0
1dc0
f070
ENDCHAR
STARTCHAR 382e
ENCODING 14382
SWIDTH 960 0
DWIDTH 12 0
BBX 15 12 -1 -2
BITMAP
0600
1fbe
0618
3f30
3530
3ffc
6a60
7e60
1860
fec0
30c0
30c0
ENDCHAR
STARTCHAR 382f
ENCODING 14383
SWIDTH 960 0
DWIDTH 12 0
BBX 15 12 -1 -2
BITMAP
0060
0dfc
06ac
07fc
0000
3df0
1a60
1bf0
1a30
1fe0
6c00
c7f8
ENDCHAR
STARTCHAR 3830
ENCODING 14384
SWIDTH 960 0
DWIDTH 12 0
BBX 15 12 -1 -2
BITMAP
0618
077e
0dda
39fe
1eb4
0d7c
7fa0
1af8
6da0
73f0
3ac0
ecf8
ENDCHAR
STARTCHAR 3831
ENCODING 14385
SWIDTH 960 0
DWIDTH 12 0
BBX 15 12 -1 -2
BITMAP
1e60
1ad0
1bb8
36ec
38c0
3bf8
6db0
6ff0
7380
c680
ccc0
d860
ENDCHAR
STARTCHAR 3832
ENCODING 14386
SWIDTH 960 0
DWIDTH 12 0
BBX 15 12 -1 -2
BITMAP
0000
1fbe
19b0
3f7c
334c
3f7c
3598
75f8
7698
6bf0
6da0
f730
ENDCHAR
STARTCHAR 3833
ENCODING 14387
SWIDTH 960 0
DWIDTH 12 0
BBX 15 12 -1 -2
BITMAP
0030
1fa8
1adc
3ff4
3460
3ef8
6b50
7ff0
1ac0
d5c0
cd60
3a30
ENDCHAR
STARTCHAR 3834
ENCODING 14388
SWIDTH 960 0
DWIDTH 12 0
BBX 15 12 -1 -2
BITMAP
0630
07a8
06dc
3ff4
3360
3bf8
6f50
6bf0
7ac0
edc0
cd60
fe30
ENDCHAR
STARTCHAR 3835
ENCODING 14389
SWIDTH 960 0
DWIDTH 12 0
BBX 15 12 -1 -2
BITMAP
0000
03f8
0000
0000
1ffc
0360
06c0
06c0
0cc0
19b0
31b0
60f0
ENDCHAR
STARTCHAR 3836
ENCODING 14390
SWIDTH 960 0
DWIDTH 12 0
BBX 15 12 -1 -2
BITMAP
0000
07fe
0660
0df8
0d18
0df8
1a30
1bf0
31a0
6b60
d330
0700
ENDCHAR
STARTCHAR 3837
ENCODING 14391
SWIDTH 960 0
DWIDTH 12 0
BBX 15 12 -1 -2
BITMAP
06cc
0368
0ffe
1860
1be0
1b7c
3fb0
3550
37e0
3ae0
deb0
0730
ENDCHAR
STARTCHAR 3838
ENCODING 14392
SWIDTH 960 0
DWIDTH 12 0
BBX 15 12 -1 -2
BITMAP
0000
06fe
0c06
0c0c
3b0c
0e0c
0c18
1818
3618
6c30
fa30
06e0
ENDCHAR
STARTCHAR 3839
ENCODING 14393
SWIDTH 960 0
DWIDTH 12 0
BBX 15 12 -1 -2
BITMAP
0030
1f30
03fe
0660
3e68
3750
7db0
0da0
0de0
0d60
37d0
e030
ENDCHAR
STARTCHAR 383a
ENCODING 14394
SWIDTH 960 0
DWIDTH 12 0
BBX 15 12 -1 -2
BITMAP
0c1c
061a
07fe
0630
37d4
1a38
0fb0
1ea0
36e0
6fa8
db38
d618
ENDCHAR
STARTCHAR 383b
ENCODING 14395
SWIDTH 960 0
DWIDTH 12 0
BBX 15 12 -1 -2
BITMAP
0c00
07fe
0330
36f8
1a98
06f8
0d30
1df0
34d0
6ab0
d5b0
e380
ENDCHAR
STARTCHAR 383c
ENCODING 14396
SWIDTH 960 0
DWIDTH 12 0
BBX 15 12 -1 -2
BITMAP
00c0
00c0
1ffe
0300
0360
06c0
3a80
0300
0740
0cc0
1fe0
f060
ENDCHAR
STARTCHAR 383d
ENCODING 14397
SWIDTH 960 0
DWIDTH 12 0
BBX 15 12 -1 -2
BITMAP
00fe
1fc6
06fe
0d8c
0dfc
3f8c
1bf8
19a0
3d60
e6d8
0cd8
3878
ENDCHAR
STARTCHAR 383e
ENCODING 14398
SWIDTH 960 0
DWIDTH 12 0
BBX 15 12 -1 -2
BITMAP
0630
0630
1efe
1a60
0c68
3bd0
6ea0
18c0
6de0
d560
d7f0
3030
ENDCHAR
STARTCHAR 383f
ENCODING 14399
SWIDTH 960 0
DWIDTH 12 0
BBX 15 12 -1 -2
BITMAP
0618
0f98
0dfe
1d60
1b68
1bd0
7ea0
36c0
3ab0
6d60
6fd0
dc30
ENDCHAR
STARTCHAR 3840
ENCODING 14400
SWIDTH 960 0
DWIDTH 12 0
BBX 15 12 -1 -2
BITMAP
03f0
0000
1ffe
0000
07e0
0000
0fc0
0000
1fe0
30c0
30c0
3fc0
ENDCHAR
STARTCHAR 3841
ENCODING 14401
SWIDTH 960 0
DWIDTH 12 0
BBX 15 12 -1 -2
BITMAP
0f30
00fe
1fac
00d8
1efc
01b0
3dd8
0330
7ee0
da30
dce0
fd80
ENDCHAR
STARTCHAR 3842
ENCODING 14402
SWIDTH 960 0
DWIDTH 12 0
BBX 15 12 -1 -2
BITMAP
0000
1ef8
1a98
35f0
3b30
3530
6fe0
6eb0
7ae0
cd40
ce60
d830
ENDCHAR
STARTCHAR 3843
ENCODING 14403
SWIDTH 960 0
DWIDTH 12 0
BBX 15 12 -1 -2
BITMAP
0038
0fe0
00d8
0db0
06a0
0680
7ff8
0300
0300
0600
0600
0e00
ENDCHAR
STARTCHAR 3844
ENCODING 14404
SWIDTH 960 0
DWIDTH 12 0
BBX 15 12 -1 -2
BITMAP
0600
07fe
0766
0ecc
1bfc
3acc
35e8
3568
3568
6bd0
6830
6ff0
ENDCHAR
STARTCHAR 3845
ENCODING 14405
SWIDTH 960 0
DWIDTH 12 0
BBX 15 12 -1 -2
BITMAP
00c0
00c0
00c0
3ffc
0180
0180
0300
1fe0
1860
30c0
30c0
3fc0
ENDCHAR
STARTCHAR 3846
ENCODING 14406
SWIDTH 960 0
DWIDTH 12 0
BBX 15 12 -1 -2
BITMAP
001c
03f0
1e6c
36d8
3550
3540
6ff8
6980
7980
0300
0300
0700
ENDCHAR
STARTCHAR 3847
ENCODING 14407
SWIDTH 960 0
DWIDTH 12 0
BBX 15 12 -1 -2
BITMAP
0000
0ffe
0cc6
198c
1ffc
198c
37e8
3468
3468
6fd0
6030
7ff0
ENDCHAR
STARTCHAR 3848
ENCODING 14408
SWIDTH 960 0
DWIDTH 12 0
BBX 15 12 -1 -2
BITMAP
0c30
0c30
0d30
3ffc
1a60
1a60
34c0
6df0
7d30
3660
6660
c7e0
ENDCHAR
STARTCHAR 3849
ENCODING 14409
SWIDTH 960 0
DWIDTH 12 0
BBX 15 12 -1 -2
BITMAP
000e
1f7c
0354
06a8
0da8
0da8
1d50
7b50
1b50
36b0
36b0
75e8
ENDCHAR
STARTCHAR 384a
ENCODING 14410
SWIDTH 960 0
DWIDTH 12 0
BBX 15 12 -1 -2
BITMAP
0000
0ff8
0018
0030
0030
1ff0
3000
3000
3030
6060
6060
3fe0
ENDCHAR
STARTCHAR 384b
ENCODING 14411
SWIDTH 960 0
DWIDTH 12 0
BBX 15 12 -1 -2
BITMAP
0060
0ffe
0c60
1ffc
1ad8
1bf8
35b0
37f0
3180
7ff0
c300
0300
ENDCHAR
STARTCHAR 384c
ENCODING 14412
SWIDTH 960 0
DWIDTH 12 0
BBX 15 12 -1 -2
BITMAP
000e
1f78
0358
06a8
3ea8
31a8
7d50
0d50
0ee8
1ab0
35f0
eb68
ENDCHAR
STARTCHAR 384d
ENCODING 14413
SWIDTH 960 0
DWIDTH 12 0
BBX 15 12 -1 -2
BITMAP
0000
0ffe
0000
0ff8
0c18
0c18
1ff0
1800
3000
3000
6000
c000
ENDCHAR
STARTCHAR 384e
ENCODING 14414
SWIDTH 960 0
DWIDTH 12 0
BBX 15 12 -1 -2
BITMAP
0630
0630
0660
3f7c
0d98
0db0
1eb0
36e0
3660
6dc0
7d60
0e30
ENDCHAR
STARTCHAR 384f
ENCODING 14415
SWIDTH 960 0
DWIDTH 12 0
BBX 15 12 -1 -2
BITMAP
0630
0630
0630
3ffc
0c60
1c60
3cc0
3bf0
6b30
d660
3660
37e0
ENDCHAR
STARTCHAR 3850
ENCODING 14416
SWIDTH 960 0
DWIDTH 12 0
BBX 15 12 -1 -2
BITMAP
1980
0dbe
01b6
0fec
337c
1b6c
0fd8
1df8
35d8
6fb0
c330
c670
ENDCHAR
STARTCHAR 3851
ENCODING 14417
SWIDTH 960 0
DWIDTH 12 0
BBX 15 12 -1 -2
BITMAP
1a1c
0ef0
1db0
3550
0d50
0d50
3aa0
6aa0
1ae0
35a0
35e0
eb30
ENDCHAR
STARTCHAR 3852
ENCODING 14418
SWIDTH 960 0
DWIDTH 12 0
BBX 15 12 -1 -2
BITMAP
06de
1b5a
0ffa
0db4
3ebc
0db4
3ba8
3eb8
6aa8
d750
31b0
3370
ENDCHAR
STARTCHAR 3853
ENCODING 14419
SWIDTH 960 0
DWIDTH 12 0
BBX 15 12 -1 -2
BITMAP
0630
0630
1efe
06d0
0df8
0d1c
3ff0
6a80
19f0
3060
3060
31c0
ENDCHAR
STARTCHAR 3854
ENCODING 14420
SWIDTH 960 0
DWIDTH 12 0
BBX 15 12 -1 -2
BITMAP
0078
0fa8
0da8
1b5c
1f8c
1b00
37f0
3e60
36c0
6d80
6d40
de70
ENDCHAR
STARTCHAR 3855
ENCODING 14421
SWIDTH 960 0
DWIDTH 12 0
BBX 15 12 -1 -2
BITMAP
0000
067e
0666
3fcc
0cfc
0ccc
1e98
36f8
3698
6d30
7d30
0670
ENDCHAR
STARTCHAR 3856
ENCODING 14422
SWIDTH 960 0
DWIDTH 12 0
BBX 15 12 -1 -2
BITMAP
0360
1ffc
0360
0038
3ff0
0750
0ea0
1ea0
7aa0
3560
3560
7bd0
ENDCHAR
STARTCHAR 3857
ENCODING 14423
SWIDTH 960 0
DWIDTH 12 0
BBX 15 12 -1 -2
BITMAP
00c0
00f8
00c0
0ffc
0d18
0ff0
1a00
1bf0
3340
36b0
6db0
d8f0
ENDCHAR
STARTCHAR 3858
ENCODING 14424
SWIDTH 960 0
DWIDTH 12 0
BBX 15 12 -1 -2
BITMAP
0e30
01fe
1f68
0198
3d74
0000
7bf0
0180
7df0
d860
d860
f9c0
ENDCHAR
STARTCHAR 3859
ENCODING 14425
SWIDTH 960 0
DWIDTH 12 0
BBX 15 12 -1 -2
BITMAP
0030
1f7e
1b70
36d0
3ef8
0d0c
6bf8
6e80
69f0
d460
d860
e1c0
ENDCHAR
STARTCHAR 385a
ENCODING 14426
SWIDTH 960 0
DWIDTH 12 0
BBX 15 12 -1 -2
BITMAP
0630
0630
0d30
1bfc
3e60
0c60
7ec0
1bf0
6d30
7660
3a60
e7e0
ENDCHAR
STARTCHAR 385b
ENCODING 14427
SWIDTH 960 0
DWIDTH 12 0
BBX 15 12 -1 -2
BITMAP
0000
0ffe
0000
0ff8
0c18
0ff8
1a60
1ff8
3ac0
6fe0
6d80
cff0
ENDCHAR
STARTCHAR 385c
ENCODING 14428
SWIDTH 960 0
DWIDTH 12 0
BBX 15 12 -1 -2
BITMAP
0000
1fbe
0018
3ffc
31cc
3ffc
6a98
6ff8
7a98
dff0
d5a0
3f30
ENDCHAR
STARTCHAR 385d
ENCODING 14429
SWIDTH 960 0
DWIDTH 12 0
BBX 15 12 -1 -2
BITMAP
0630
1fb0
06fc
3e60
0060
3ff8
6630
7f30
6ea0
69c0
3d40
e670
ENDCHAR
STARTCHAR 385e
ENCODING 14430
SWIDTH 960 0
DWIDTH 12 0
BBX 15 12 -1 -2
BITMAP
0000
07fc
00c0
0180
0180
0ff0
0360
0360
0660
0cc0
0cc0
7ff0
ENDCHAR
STARTCHAR 385f
ENCODING 14431
SWIDTH 960 0
DWIDTH 12 0
BBX 15 12 -1 -2
BITMAP
0000
0ffc
0300
0600
07e0
0c60
0cc0
18c0
3f80
0300
0300
fff0
ENDCHAR
STARTCHAR 3860
ENCODING 14432
SWIDTH 960 0
DWIDTH 12 0
BBX 15 12 -1 -2
BITMAP
0300
03fe
0660
06c0
0cc0
3df0
69a0
1b60
1b60
36c0
36c0
3ff0
ENDCHAR
STARTCHAR 3861
ENCODING 14433
SWIDTH 960 0
DWIDTH 12 0
BBX 15 12 -1 -2
BITMAP
0300
0300
07fc
0cc0
18c0
00c0
7ff8
0180
0180
0300
0300
0300
ENDCHAR
STARTCHAR 3862
ENCODING 14434
SWIDTH 960 0
DWIDTH 12 0
BBX 15 12 -1 -2
BITMAP
03f8
0d18
0d18
1bf0
1800
1ff0
3060
0060
7ff8
1b00
31c0
e060
ENDCHAR
STARTCHAR 3863
ENCODING 14435
SWIDTH 960 0
DWIDTH 12 0
BBX 15 12 -1 -2
BITMAP
0ffc
0180
0180
1ff0
0630
0630
7ff8
0000
1fe0
30c0
30c0
3fc0
ENDCHAR
STARTCHAR 3864
ENCODING 14436
SWIDTH 960 0
DWIDTH 12 0
BBX 15 12 -1 -2
BITMAP
0c7c
0dac
0dac
3f78
1b00
1bf8
3430
6c30
7ff8
3540
6660
cc30
ENDCHAR
STARTCHAR 3865
ENCODING 14437
SWIDTH 960 0
DWIDTH 12 0
BBX 15 12 -1 -2
BITMAP
0660
06d8
1db0
35d0
0d98
1bf8
7198
33e0
3740
6380
6740
7c70
ENDCHAR
STARTCHAR 3866
ENCODING 14438
SWIDTH 960 0
DWIDTH 12 0
BBX 15 12 -1 -2
BITMAP
0d00
0d1e
1bfa
35b4
0ff4
19b4
75e8
3568
3570
6be0
7ec0
60c0
ENDCHAR
STARTCHAR 3867
ENCODING 14439
SWIDTH 960 0
DWIDTH 12 0
BBX 15 12 -1 -2
BITMAP
0600
06fe
0630
0df8
1cd8
3ed8
6bfc
1800
1bf0
3660
3660
37e0
ENDCHAR
STARTCHAR 3868
ENCODING 14440
SWIDTH 960 0
DWIDTH 12 0
BBX 15 12 -1 -2
BITMAP
0600
06fe
0630
3ff8
0cd8
1cd8
3ff8
3a00
6bf0
d660
d660
37e0
ENDCHAR
STARTCHAR 3869
ENCODING 14441
SWIDTH 960 0
DWIDTH 12 0
BBX 15 12 -1 -2
BITMAP
0630
0670
06d0
3f58
0d6c
1db8
3bf0
3cc0
6ff8
d5b0
37d0
3470
ENDCHAR
STARTCHAR 386a
ENCODING 14442
SWIDTH 960 0
DWIDTH 12 0
BBX 15 12 -1 -2
BITMAP
00c0
1f5e
0cd6
1bec
19bc
3dac
37d8
35f8
3dd8
efb0
0330
0670
ENDCHAR
STARTCHAR 386b
ENCODING 14443
SWIDTH 960 0
DWIDTH 12 0
BBX 15 12 -1 -2
BITMAP
0318
0ffe
0318
07f0
0630
07f0
0c60
7ffc
1d60
37e0
ecd8
0fc0
ENDCHAR
STARTCHAR 386c
ENCODING 14444
SWIDTH 960 0
DWIDTH 12 0
BBX 15 12 -1 -2
BITMAP
0f00
01fc
1e60
03f0
1eb0
01b0
3ff8
0000
7df0
da60
da60
fbe0
ENDCHAR
STARTCHAR 386d
ENCODING 14445
SWIDTH 960 0
DWIDTH 12 0
BBX 15 12 -1 -2
BITMAP
0e7c
01ac
1fac
0378
1f00
07f8
3c30
0030
7ff8
db40
db60
fa30
ENDCHAR
STARTCHAR 386e
ENCODING 14446
SWIDTH 960 0
DWIDTH 12 0
BBX 15 12 -1 -2
BITMAP
0e68
01fe
1f68
01fc
1ed0
077c
3da0
03f8
7d70
dbc0
db40
fe70
ENDCHAR
STARTCHAR 386f
ENCODING 14447
SWIDTH 960 0
DWIDTH 12 0
BBX 15 12 -1 -2
BITMAP
0060
1fae
0d7a
1adc
3f54
3df4
76e8
66f8
7ee8
cfb0
fdb0
0370
ENDCHAR
STARTCHAR 3870
ENCODING 14448
SWIDTH 960 0
DWIDTH 12 0
BBX 15 12 -1 -2
BITMAP
0300
0300
07fe
0c00
1bf0
30e0
0180
0700
0c00
1830
3030
1ff0
ENDCHAR
STARTCHAR 3871
ENCODING 14449
SWIDTH 960 0
DWIDTH 12 0
BBX 15 12 -1 -2
BITMAP
0600
07be
0d6a
1f7c
3554
3f54
6af8
7e60
1df8
74c0
68c0
c7f0
ENDCHAR
STARTCHAR 3872
ENCODING 14450
SWIDTH 960 0
DWIDTH 12 0
BBX 15 12 -1 -2
BITMAP
00c0
00c0
1ffe
0660
0630
1c68
34c0
0680
0700
0d00
39c0
e070
ENDCHAR
STARTCHAR 3873
ENCODING 14451
SWIDTH 960 0
DWIDTH 12 0
BBX 15 12 -1 -2
BITMAP
0330
0330
03fe
06d0
0d98
3db4
6b60
19a0
19c0
3340
3660
3c30
ENDCHAR
STARTCHAR 3874
ENCODING 14452
SWIDTH 960 0
DWIDTH 12 0
BBX 15 12 -1 -2
BITMAP
0300
037c
030c
07fc
0d80
3dfc
6ac0
1cc0
1bf8
3340
3660
3c30
ENDCHAR
STARTCHAR 3875
ENCODING 14453
SWIDTH 960 0
DWIDTH 12 0
BBX 15 12 -1 -2
BITMAP
0600
06fc
060c
0ffc
1a80
3bf8
36c0
34c0
37f8
6b40
6660
6c30
ENDCHAR
STARTCHAR 3876
ENCODING 14454
SWIDTH 960 0
DWIDTH 12 0
BBX 15 12 -1 -2
BITMAP
0330
0330
07fc
0c60
0ffc
3d98
6bf8
18c0
1bf0
3180
3180
3180
ENDCHAR
STARTCHAR 3877
ENCODING 14455
SWIDTH 960 0
DWIDTH 12 0
BBX 15 12 -1 -2
BITMAP
00c0
0cd8
0cd0
0da0
0180
1ffc
0680
0680
0d80
1b30
3330
e1f0
ENDCHAR
STARTCHAR 3878
ENCODING 14456
SWIDTH 960 0
DWIDTH 12 0
BBX 15 12 -1 -2
BITMAP
0330
0330
0630
0630
0d98
3b0c
6300
06c0
0ec0
1be0
7c60
0060
ENDCHAR
STARTCHAR 3879
ENCODING 14457
SWIDTH 960 0
DWIDTH 12 0
BBX 15 12 -1 -2
BITMAP
0030
0030
1f30
0dfc
0c6c
0c6c
18d8
1ad8
3d98
e330
0630
0ce0
ENDCHAR
STARTCHAR 387a
ENCODING 14458
SWIDTH 960 0
DWIDTH 12 0
BBX 15 12 -1 -2
BITMAP
0330
0330
1fd0
0dfc
1b6c
36ac
1ad8
0cd8
1d98
3530
6630
cce0
ENDCHAR
ENDFONT
